%TF.GenerationSoftware,KiCad,Pcbnew,(6.0.1-0)*%
%TF.CreationDate,2022-09-06T14:47:33+02:00*%
%TF.ProjectId,nano_board,6e616e6f-5f62-46f6-9172-642e6b696361,rev?*%
%TF.SameCoordinates,Original*%
%TF.FileFunction,Legend,Top*%
%TF.FilePolarity,Positive*%
%FSLAX46Y46*%
G04 Gerber Fmt 4.6, Leading zero omitted, Abs format (unit mm)*
G04 Created by KiCad (PCBNEW (6.0.1-0)) date 2022-09-06 14:47:33*
%MOMM*%
%LPD*%
G01*
G04 APERTURE LIST*
%ADD10C,0.200000*%
%ADD11C,0.100000*%
%ADD12C,0.150000*%
%ADD13C,0.075000*%
%ADD14C,0.120000*%
%ADD15C,0.127000*%
G04 APERTURE END LIST*
D10*
X103200000Y-81000000D02*
X103200000Y-81400000D01*
X105800000Y-81400000D02*
X105800000Y-81000000D01*
X103200000Y-81400000D02*
X105800000Y-81400000D01*
D11*
X101842857Y-82659857D02*
X101928571Y-82688428D01*
X102071428Y-82688428D01*
X102128571Y-82659857D01*
X102157142Y-82631285D01*
X102185714Y-82574142D01*
X102185714Y-82517000D01*
X102157142Y-82459857D01*
X102128571Y-82431285D01*
X102071428Y-82402714D01*
X101957142Y-82374142D01*
X101900000Y-82345571D01*
X101871428Y-82317000D01*
X101842857Y-82259857D01*
X101842857Y-82202714D01*
X101871428Y-82145571D01*
X101900000Y-82117000D01*
X101957142Y-82088428D01*
X102100000Y-82088428D01*
X102185714Y-82117000D01*
X102442857Y-82374142D02*
X102642857Y-82374142D01*
X102728571Y-82688428D02*
X102442857Y-82688428D01*
X102442857Y-82088428D01*
X102728571Y-82088428D01*
X102900000Y-82088428D02*
X103242857Y-82088428D01*
X103071428Y-82688428D02*
X103071428Y-82088428D01*
X104071428Y-82088428D02*
X104071428Y-82517000D01*
X104042857Y-82602714D01*
X103985714Y-82659857D01*
X103900000Y-82688428D01*
X103842857Y-82688428D01*
X104357142Y-82088428D02*
X104357142Y-82574142D01*
X104385714Y-82631285D01*
X104414285Y-82659857D01*
X104471428Y-82688428D01*
X104585714Y-82688428D01*
X104642857Y-82659857D01*
X104671428Y-82631285D01*
X104700000Y-82574142D01*
X104700000Y-82088428D01*
X104985714Y-82688428D02*
X104985714Y-82088428D01*
X105185714Y-82517000D01*
X105385714Y-82088428D01*
X105385714Y-82688428D01*
X105671428Y-82688428D02*
X105671428Y-82088428D01*
X105900000Y-82088428D01*
X105957142Y-82117000D01*
X105985714Y-82145571D01*
X106014285Y-82202714D01*
X106014285Y-82288428D01*
X105985714Y-82345571D01*
X105957142Y-82374142D01*
X105900000Y-82402714D01*
X105671428Y-82402714D01*
X106271428Y-82374142D02*
X106471428Y-82374142D01*
X106557142Y-82688428D02*
X106271428Y-82688428D01*
X106271428Y-82088428D01*
X106557142Y-82088428D01*
X107157142Y-82688428D02*
X106957142Y-82402714D01*
X106814285Y-82688428D02*
X106814285Y-82088428D01*
X107042857Y-82088428D01*
X107100000Y-82117000D01*
X107128571Y-82145571D01*
X107157142Y-82202714D01*
X107157142Y-82288428D01*
X107128571Y-82345571D01*
X107100000Y-82374142D01*
X107042857Y-82402714D01*
X106814285Y-82402714D01*
X102557142Y-83054428D02*
X102928571Y-83054428D01*
X102728571Y-83283000D01*
X102814285Y-83283000D01*
X102871428Y-83311571D01*
X102900000Y-83340142D01*
X102928571Y-83397285D01*
X102928571Y-83540142D01*
X102900000Y-83597285D01*
X102871428Y-83625857D01*
X102814285Y-83654428D01*
X102642857Y-83654428D01*
X102585714Y-83625857D01*
X102557142Y-83597285D01*
X103100000Y-83054428D02*
X103300000Y-83654428D01*
X103500000Y-83054428D01*
X103642857Y-83054428D02*
X104014285Y-83054428D01*
X103814285Y-83283000D01*
X103900000Y-83283000D01*
X103957142Y-83311571D01*
X103985714Y-83340142D01*
X104014285Y-83397285D01*
X104014285Y-83540142D01*
X103985714Y-83597285D01*
X103957142Y-83625857D01*
X103900000Y-83654428D01*
X103728571Y-83654428D01*
X103671428Y-83625857D01*
X103642857Y-83597285D01*
X104271428Y-83425857D02*
X104728571Y-83425857D01*
X105357142Y-83654428D02*
X105157142Y-83368714D01*
X105014285Y-83654428D02*
X105014285Y-83054428D01*
X105242857Y-83054428D01*
X105300000Y-83083000D01*
X105328571Y-83111571D01*
X105357142Y-83168714D01*
X105357142Y-83254428D01*
X105328571Y-83311571D01*
X105300000Y-83340142D01*
X105242857Y-83368714D01*
X105014285Y-83368714D01*
X105614285Y-83340142D02*
X105814285Y-83340142D01*
X105900000Y-83654428D02*
X105614285Y-83654428D01*
X105614285Y-83054428D01*
X105900000Y-83054428D01*
X106357142Y-83340142D02*
X106157142Y-83340142D01*
X106157142Y-83654428D02*
X106157142Y-83054428D01*
X106442857Y-83054428D01*
X145116666Y-76733333D02*
X145116666Y-77066666D01*
X145450000Y-77100000D01*
X145416666Y-77066666D01*
X145383333Y-77000000D01*
X145383333Y-76833333D01*
X145416666Y-76766666D01*
X145450000Y-76733333D01*
X145516666Y-76700000D01*
X145683333Y-76700000D01*
X145750000Y-76733333D01*
X145783333Y-76766666D01*
X145816666Y-76833333D01*
X145816666Y-77000000D01*
X145783333Y-77066666D01*
X145750000Y-77100000D01*
X145116666Y-76500000D02*
X145816666Y-76266666D01*
X145116666Y-76033333D01*
X145616666Y-75300000D02*
X145616666Y-74966666D01*
X145816666Y-75366666D02*
X145116666Y-75133333D01*
X145816666Y-74900000D01*
X145816666Y-74666666D02*
X145350000Y-74666666D01*
X145483333Y-74666666D02*
X145416666Y-74633333D01*
X145383333Y-74600000D01*
X145350000Y-74533333D01*
X145350000Y-74466666D01*
X145816666Y-73933333D02*
X145116666Y-73933333D01*
X145783333Y-73933333D02*
X145816666Y-74000000D01*
X145816666Y-74133333D01*
X145783333Y-74200000D01*
X145750000Y-74233333D01*
X145683333Y-74266666D01*
X145483333Y-74266666D01*
X145416666Y-74233333D01*
X145383333Y-74200000D01*
X145350000Y-74133333D01*
X145350000Y-74000000D01*
X145383333Y-73933333D01*
D12*
X146790476Y-71652380D02*
X147123809Y-72652380D01*
X147457142Y-71652380D01*
X148219047Y-72604761D02*
X148123809Y-72652380D01*
X147933333Y-72652380D01*
X147838095Y-72604761D01*
X147790476Y-72557142D01*
X147742857Y-72461904D01*
X147742857Y-72176190D01*
X147790476Y-72080952D01*
X147838095Y-72033333D01*
X147933333Y-71985714D01*
X148123809Y-71985714D01*
X148219047Y-72033333D01*
X149076190Y-72604761D02*
X148980952Y-72652380D01*
X148790476Y-72652380D01*
X148695238Y-72604761D01*
X148647619Y-72557142D01*
X148600000Y-72461904D01*
X148600000Y-72176190D01*
X148647619Y-72080952D01*
X148695238Y-72033333D01*
X148790476Y-71985714D01*
X148980952Y-71985714D01*
X149076190Y-72033333D01*
X150219047Y-72604761D02*
X150314285Y-72652380D01*
X150504761Y-72652380D01*
X150600000Y-72604761D01*
X150647619Y-72509523D01*
X150647619Y-72461904D01*
X150600000Y-72366666D01*
X150504761Y-72319047D01*
X150361904Y-72319047D01*
X150266666Y-72271428D01*
X150219047Y-72176190D01*
X150219047Y-72128571D01*
X150266666Y-72033333D01*
X150361904Y-71985714D01*
X150504761Y-71985714D01*
X150600000Y-72033333D01*
X151457142Y-72604761D02*
X151361904Y-72652380D01*
X151171428Y-72652380D01*
X151076190Y-72604761D01*
X151028571Y-72509523D01*
X151028571Y-72128571D01*
X151076190Y-72033333D01*
X151171428Y-71985714D01*
X151361904Y-71985714D01*
X151457142Y-72033333D01*
X151504761Y-72128571D01*
X151504761Y-72223809D01*
X151028571Y-72319047D01*
X152076190Y-72652380D02*
X151980952Y-72604761D01*
X151933333Y-72509523D01*
X151933333Y-71652380D01*
X152838095Y-72604761D02*
X152742857Y-72652380D01*
X152552380Y-72652380D01*
X152457142Y-72604761D01*
X152409523Y-72509523D01*
X152409523Y-72128571D01*
X152457142Y-72033333D01*
X152552380Y-71985714D01*
X152742857Y-71985714D01*
X152838095Y-72033333D01*
X152885714Y-72128571D01*
X152885714Y-72223809D01*
X152409523Y-72319047D01*
X153742857Y-72604761D02*
X153647619Y-72652380D01*
X153457142Y-72652380D01*
X153361904Y-72604761D01*
X153314285Y-72557142D01*
X153266666Y-72461904D01*
X153266666Y-72176190D01*
X153314285Y-72080952D01*
X153361904Y-72033333D01*
X153457142Y-71985714D01*
X153647619Y-71985714D01*
X153742857Y-72033333D01*
X154028571Y-71985714D02*
X154409523Y-71985714D01*
X154171428Y-71652380D02*
X154171428Y-72509523D01*
X154219047Y-72604761D01*
X154314285Y-72652380D01*
X154409523Y-72652380D01*
D10*
X108613095Y-43959226D02*
X108613095Y-42709226D01*
X109327380Y-43959226D01*
X109327380Y-42709226D01*
X110458333Y-43959226D02*
X110458333Y-43304464D01*
X110398809Y-43185416D01*
X110279761Y-43125892D01*
X110041666Y-43125892D01*
X109922619Y-43185416D01*
X110458333Y-43899702D02*
X110339285Y-43959226D01*
X110041666Y-43959226D01*
X109922619Y-43899702D01*
X109863095Y-43780654D01*
X109863095Y-43661607D01*
X109922619Y-43542559D01*
X110041666Y-43483035D01*
X110339285Y-43483035D01*
X110458333Y-43423511D01*
X111053571Y-43125892D02*
X111053571Y-43959226D01*
X111053571Y-43244940D02*
X111113095Y-43185416D01*
X111232142Y-43125892D01*
X111410714Y-43125892D01*
X111529761Y-43185416D01*
X111589285Y-43304464D01*
X111589285Y-43959226D01*
X112363095Y-43959226D02*
X112244047Y-43899702D01*
X112184523Y-43840178D01*
X112125000Y-43721130D01*
X112125000Y-43363988D01*
X112184523Y-43244940D01*
X112244047Y-43185416D01*
X112363095Y-43125892D01*
X112541666Y-43125892D01*
X112660714Y-43185416D01*
X112720238Y-43244940D01*
X112779761Y-43363988D01*
X112779761Y-43721130D01*
X112720238Y-43840178D01*
X112660714Y-43899702D01*
X112541666Y-43959226D01*
X112363095Y-43959226D01*
X113315476Y-43483035D02*
X114267857Y-43483035D01*
X114863095Y-42709226D02*
X114863095Y-43721130D01*
X114922619Y-43840178D01*
X114982142Y-43899702D01*
X115101190Y-43959226D01*
X115339285Y-43959226D01*
X115458333Y-43899702D01*
X115517857Y-43840178D01*
X115577380Y-43721130D01*
X115577380Y-42709226D01*
X115994047Y-43125892D02*
X116470238Y-43125892D01*
X116172619Y-42709226D02*
X116172619Y-43780654D01*
X116232142Y-43899702D01*
X116351190Y-43959226D01*
X116470238Y-43959226D01*
X116886904Y-43959226D02*
X116886904Y-43125892D01*
X116886904Y-42709226D02*
X116827380Y-42768750D01*
X116886904Y-42828273D01*
X116946428Y-42768750D01*
X116886904Y-42709226D01*
X116886904Y-42828273D01*
X117660714Y-43959226D02*
X117541666Y-43899702D01*
X117482142Y-43780654D01*
X117482142Y-42709226D01*
X118136904Y-43483035D02*
X119089285Y-43483035D01*
X120101190Y-43304464D02*
X120279761Y-43363988D01*
X120339285Y-43423511D01*
X120398809Y-43542559D01*
X120398809Y-43721130D01*
X120339285Y-43840178D01*
X120279761Y-43899702D01*
X120160714Y-43959226D01*
X119684523Y-43959226D01*
X119684523Y-42709226D01*
X120101190Y-42709226D01*
X120220238Y-42768750D01*
X120279761Y-42828273D01*
X120339285Y-42947321D01*
X120339285Y-43066369D01*
X120279761Y-43185416D01*
X120220238Y-43244940D01*
X120101190Y-43304464D01*
X119684523Y-43304464D01*
X121113095Y-43959226D02*
X120994047Y-43899702D01*
X120934523Y-43840178D01*
X120875000Y-43721130D01*
X120875000Y-43363988D01*
X120934523Y-43244940D01*
X120994047Y-43185416D01*
X121113095Y-43125892D01*
X121291666Y-43125892D01*
X121410714Y-43185416D01*
X121470238Y-43244940D01*
X121529761Y-43363988D01*
X121529761Y-43721130D01*
X121470238Y-43840178D01*
X121410714Y-43899702D01*
X121291666Y-43959226D01*
X121113095Y-43959226D01*
X122601190Y-43959226D02*
X122601190Y-43304464D01*
X122541666Y-43185416D01*
X122422619Y-43125892D01*
X122184523Y-43125892D01*
X122065476Y-43185416D01*
X122601190Y-43899702D02*
X122482142Y-43959226D01*
X122184523Y-43959226D01*
X122065476Y-43899702D01*
X122005952Y-43780654D01*
X122005952Y-43661607D01*
X122065476Y-43542559D01*
X122184523Y-43483035D01*
X122482142Y-43483035D01*
X122601190Y-43423511D01*
X123196428Y-43959226D02*
X123196428Y-43125892D01*
X123196428Y-43363988D02*
X123255952Y-43244940D01*
X123315476Y-43185416D01*
X123434523Y-43125892D01*
X123553571Y-43125892D01*
X124505952Y-43959226D02*
X124505952Y-42709226D01*
X124505952Y-43899702D02*
X124386904Y-43959226D01*
X124148809Y-43959226D01*
X124029761Y-43899702D01*
X123970238Y-43840178D01*
X123910714Y-43721130D01*
X123910714Y-43363988D01*
X123970238Y-43244940D01*
X124029761Y-43185416D01*
X124148809Y-43125892D01*
X124386904Y-43125892D01*
X124505952Y-43185416D01*
X125934523Y-43125892D02*
X126232142Y-43959226D01*
X126529761Y-43125892D01*
X127244047Y-42709226D02*
X127363095Y-42709226D01*
X127482142Y-42768750D01*
X127541666Y-42828273D01*
X127601190Y-42947321D01*
X127660714Y-43185416D01*
X127660714Y-43483035D01*
X127601190Y-43721130D01*
X127541666Y-43840178D01*
X127482142Y-43899702D01*
X127363095Y-43959226D01*
X127244047Y-43959226D01*
X127125000Y-43899702D01*
X127065476Y-43840178D01*
X127005952Y-43721130D01*
X126946428Y-43483035D01*
X126946428Y-43185416D01*
X127005952Y-42947321D01*
X127065476Y-42828273D01*
X127125000Y-42768750D01*
X127244047Y-42709226D01*
X128196428Y-43840178D02*
X128255952Y-43899702D01*
X128196428Y-43959226D01*
X128136904Y-43899702D01*
X128196428Y-43840178D01*
X128196428Y-43959226D01*
X129446428Y-43959226D02*
X128732142Y-43959226D01*
X129089285Y-43959226D02*
X129089285Y-42709226D01*
X128970238Y-42887797D01*
X128851190Y-43006845D01*
X128732142Y-43066369D01*
X114952380Y-45316964D02*
X115130952Y-45376488D01*
X115190476Y-45436011D01*
X115250000Y-45555059D01*
X115250000Y-45733630D01*
X115190476Y-45852678D01*
X115130952Y-45912202D01*
X115011904Y-45971726D01*
X114535714Y-45971726D01*
X114535714Y-44721726D01*
X114952380Y-44721726D01*
X115071428Y-44781250D01*
X115130952Y-44840773D01*
X115190476Y-44959821D01*
X115190476Y-45078869D01*
X115130952Y-45197916D01*
X115071428Y-45257440D01*
X114952380Y-45316964D01*
X114535714Y-45316964D01*
X115785714Y-45971726D02*
X115785714Y-44721726D01*
X116500000Y-45971726D02*
X115964285Y-45257440D01*
X116500000Y-44721726D02*
X115785714Y-45436011D01*
X118226190Y-44721726D02*
X118345238Y-44721726D01*
X118464285Y-44781250D01*
X118523809Y-44840773D01*
X118583333Y-44959821D01*
X118642857Y-45197916D01*
X118642857Y-45495535D01*
X118583333Y-45733630D01*
X118523809Y-45852678D01*
X118464285Y-45912202D01*
X118345238Y-45971726D01*
X118226190Y-45971726D01*
X118107142Y-45912202D01*
X118047619Y-45852678D01*
X117988095Y-45733630D01*
X117928571Y-45495535D01*
X117928571Y-45197916D01*
X117988095Y-44959821D01*
X118047619Y-44840773D01*
X118107142Y-44781250D01*
X118226190Y-44721726D01*
X119238095Y-45971726D02*
X119476190Y-45971726D01*
X119595238Y-45912202D01*
X119654761Y-45852678D01*
X119773809Y-45674107D01*
X119833333Y-45436011D01*
X119833333Y-44959821D01*
X119773809Y-44840773D01*
X119714285Y-44781250D01*
X119595238Y-44721726D01*
X119357142Y-44721726D01*
X119238095Y-44781250D01*
X119178571Y-44840773D01*
X119119047Y-44959821D01*
X119119047Y-45257440D01*
X119178571Y-45376488D01*
X119238095Y-45436011D01*
X119357142Y-45495535D01*
X119595238Y-45495535D01*
X119714285Y-45436011D01*
X119773809Y-45376488D01*
X119833333Y-45257440D01*
X121261904Y-44662202D02*
X120190476Y-46269345D01*
X121619047Y-44840773D02*
X121678571Y-44781250D01*
X121797619Y-44721726D01*
X122095238Y-44721726D01*
X122214285Y-44781250D01*
X122273809Y-44840773D01*
X122333333Y-44959821D01*
X122333333Y-45078869D01*
X122273809Y-45257440D01*
X121559523Y-45971726D01*
X122333333Y-45971726D01*
X122809523Y-44840773D02*
X122869047Y-44781250D01*
X122988095Y-44721726D01*
X123285714Y-44721726D01*
X123404761Y-44781250D01*
X123464285Y-44840773D01*
X123523809Y-44959821D01*
X123523809Y-45078869D01*
X123464285Y-45257440D01*
X122750000Y-45971726D01*
X123523809Y-45971726D01*
D11*
X158425000Y-75885714D02*
X158389285Y-75957142D01*
X158389285Y-76064285D01*
X158425000Y-76171428D01*
X158496428Y-76242857D01*
X158567857Y-76278571D01*
X158710714Y-76314285D01*
X158817857Y-76314285D01*
X158960714Y-76278571D01*
X159032142Y-76242857D01*
X159103571Y-76171428D01*
X159139285Y-76064285D01*
X159139285Y-75992857D01*
X159103571Y-75885714D01*
X159067857Y-75850000D01*
X158817857Y-75850000D01*
X158817857Y-75992857D01*
X159139285Y-75528571D02*
X158389285Y-75528571D01*
X159139285Y-75100000D01*
X158389285Y-75100000D01*
X159139285Y-74742857D02*
X158389285Y-74742857D01*
X158389285Y-74564285D01*
X158425000Y-74457142D01*
X158496428Y-74385714D01*
X158567857Y-74350000D01*
X158710714Y-74314285D01*
X158817857Y-74314285D01*
X158960714Y-74350000D01*
X159032142Y-74385714D01*
X159103571Y-74457142D01*
X159139285Y-74564285D01*
X159139285Y-74742857D01*
X158853571Y-73992857D02*
X158853571Y-73421428D01*
X159103571Y-73100000D02*
X159139285Y-72992857D01*
X159139285Y-72814285D01*
X159103571Y-72742857D01*
X159067857Y-72707142D01*
X158996428Y-72671428D01*
X158925000Y-72671428D01*
X158853571Y-72707142D01*
X158817857Y-72742857D01*
X158782142Y-72814285D01*
X158746428Y-72957142D01*
X158710714Y-73028571D01*
X158675000Y-73064285D01*
X158603571Y-73100000D01*
X158532142Y-73100000D01*
X158460714Y-73064285D01*
X158425000Y-73028571D01*
X158389285Y-72957142D01*
X158389285Y-72778571D01*
X158425000Y-72671428D01*
X159139285Y-72350000D02*
X158639285Y-72350000D01*
X158389285Y-72350000D02*
X158425000Y-72385714D01*
X158460714Y-72350000D01*
X158425000Y-72314285D01*
X158389285Y-72350000D01*
X158460714Y-72350000D01*
X158639285Y-71671428D02*
X159246428Y-71671428D01*
X159317857Y-71707142D01*
X159353571Y-71742857D01*
X159389285Y-71814285D01*
X159389285Y-71921428D01*
X159353571Y-71992857D01*
X159103571Y-71671428D02*
X159139285Y-71742857D01*
X159139285Y-71885714D01*
X159103571Y-71957142D01*
X159067857Y-71992857D01*
X158996428Y-72028571D01*
X158782142Y-72028571D01*
X158710714Y-71992857D01*
X158675000Y-71957142D01*
X158639285Y-71885714D01*
X158639285Y-71742857D01*
X158675000Y-71671428D01*
X158639285Y-71314285D02*
X159139285Y-71314285D01*
X158710714Y-71314285D02*
X158675000Y-71278571D01*
X158639285Y-71207142D01*
X158639285Y-71100000D01*
X158675000Y-71028571D01*
X158746428Y-70992857D01*
X159139285Y-70992857D01*
X159139285Y-70314285D02*
X158746428Y-70314285D01*
X158675000Y-70350000D01*
X158639285Y-70421428D01*
X158639285Y-70564285D01*
X158675000Y-70635714D01*
X159103571Y-70314285D02*
X159139285Y-70385714D01*
X159139285Y-70564285D01*
X159103571Y-70635714D01*
X159032142Y-70671428D01*
X158960714Y-70671428D01*
X158889285Y-70635714D01*
X158853571Y-70564285D01*
X158853571Y-70385714D01*
X158817857Y-70314285D01*
X159139285Y-69850000D02*
X159103571Y-69921428D01*
X159032142Y-69957142D01*
X158389285Y-69957142D01*
D12*
X160247619Y-65700000D02*
X160171428Y-65661904D01*
X160057142Y-65661904D01*
X159942857Y-65700000D01*
X159866666Y-65776190D01*
X159828571Y-65852380D01*
X159790476Y-66004761D01*
X159790476Y-66119047D01*
X159828571Y-66271428D01*
X159866666Y-66347619D01*
X159942857Y-66423809D01*
X160057142Y-66461904D01*
X160133333Y-66461904D01*
X160247619Y-66423809D01*
X160285714Y-66385714D01*
X160285714Y-66119047D01*
X160133333Y-66119047D01*
X160628571Y-66461904D02*
X160628571Y-65661904D01*
X161085714Y-66461904D01*
X161085714Y-65661904D01*
X161466666Y-66461904D02*
X161466666Y-65661904D01*
X161657142Y-65661904D01*
X161771428Y-65700000D01*
X161847619Y-65776190D01*
X161885714Y-65852380D01*
X161923809Y-66004761D01*
X161923809Y-66119047D01*
X161885714Y-66271428D01*
X161847619Y-66347619D01*
X161771428Y-66423809D01*
X161657142Y-66461904D01*
X161466666Y-66461904D01*
X162266666Y-66157142D02*
X162876190Y-66157142D01*
X163219047Y-66423809D02*
X163333333Y-66461904D01*
X163523809Y-66461904D01*
X163600000Y-66423809D01*
X163638095Y-66385714D01*
X163676190Y-66309523D01*
X163676190Y-66233333D01*
X163638095Y-66157142D01*
X163600000Y-66119047D01*
X163523809Y-66080952D01*
X163371428Y-66042857D01*
X163295238Y-66004761D01*
X163257142Y-65966666D01*
X163219047Y-65890476D01*
X163219047Y-65814285D01*
X163257142Y-65738095D01*
X163295238Y-65700000D01*
X163371428Y-65661904D01*
X163561904Y-65661904D01*
X163676190Y-65700000D01*
X164476190Y-66385714D02*
X164438095Y-66423809D01*
X164323809Y-66461904D01*
X164247619Y-66461904D01*
X164133333Y-66423809D01*
X164057142Y-66347619D01*
X164019047Y-66271428D01*
X163980952Y-66119047D01*
X163980952Y-66004761D01*
X164019047Y-65852380D01*
X164057142Y-65776190D01*
X164133333Y-65700000D01*
X164247619Y-65661904D01*
X164323809Y-65661904D01*
X164438095Y-65700000D01*
X164476190Y-65738095D01*
X165200000Y-66461904D02*
X164819047Y-66461904D01*
X164819047Y-65661904D01*
X165466666Y-66157142D02*
X166076190Y-66157142D01*
X166419047Y-66423809D02*
X166533333Y-66461904D01*
X166723809Y-66461904D01*
X166800000Y-66423809D01*
X166838095Y-66385714D01*
X166876190Y-66309523D01*
X166876190Y-66233333D01*
X166838095Y-66157142D01*
X166800000Y-66119047D01*
X166723809Y-66080952D01*
X166571428Y-66042857D01*
X166495238Y-66004761D01*
X166457142Y-65966666D01*
X166419047Y-65890476D01*
X166419047Y-65814285D01*
X166457142Y-65738095D01*
X166495238Y-65700000D01*
X166571428Y-65661904D01*
X166761904Y-65661904D01*
X166876190Y-65700000D01*
X167219047Y-66461904D02*
X167219047Y-65661904D01*
X167409523Y-65661904D01*
X167523809Y-65700000D01*
X167600000Y-65776190D01*
X167638095Y-65852380D01*
X167676190Y-66004761D01*
X167676190Y-66119047D01*
X167638095Y-66271428D01*
X167600000Y-66347619D01*
X167523809Y-66423809D01*
X167409523Y-66461904D01*
X167219047Y-66461904D01*
X167980952Y-66233333D02*
X168361904Y-66233333D01*
X167904761Y-66461904D02*
X168171428Y-65661904D01*
X168438095Y-66461904D01*
X168704761Y-66157142D02*
X169314285Y-66157142D01*
X169580952Y-65661904D02*
X169847619Y-66461904D01*
X170114285Y-65661904D01*
X170723809Y-66423809D02*
X170647619Y-66461904D01*
X170495238Y-66461904D01*
X170419047Y-66423809D01*
X170380952Y-66385714D01*
X170342857Y-66309523D01*
X170342857Y-66080952D01*
X170380952Y-66004761D01*
X170419047Y-65966666D01*
X170495238Y-65928571D01*
X170647619Y-65928571D01*
X170723809Y-65966666D01*
X171409523Y-66423809D02*
X171333333Y-66461904D01*
X171180952Y-66461904D01*
X171104761Y-66423809D01*
X171066666Y-66385714D01*
X171028571Y-66309523D01*
X171028571Y-66080952D01*
X171066666Y-66004761D01*
X171104761Y-65966666D01*
X171180952Y-65928571D01*
X171333333Y-65928571D01*
X171409523Y-65966666D01*
X163519047Y-90247380D02*
X163519047Y-89247380D01*
X164090476Y-90247380D01*
X164090476Y-89247380D01*
X164423809Y-89247380D02*
X164995238Y-89247380D01*
X164709523Y-90247380D02*
X164709523Y-89247380D01*
X165900000Y-90152142D02*
X165852380Y-90199761D01*
X165709523Y-90247380D01*
X165614285Y-90247380D01*
X165471428Y-90199761D01*
X165376190Y-90104523D01*
X165328571Y-90009285D01*
X165280952Y-89818809D01*
X165280952Y-89675952D01*
X165328571Y-89485476D01*
X165376190Y-89390238D01*
X165471428Y-89295000D01*
X165614285Y-89247380D01*
X165709523Y-89247380D01*
X165852380Y-89295000D01*
X165900000Y-89342619D01*
X167090476Y-90247380D02*
X167090476Y-89247380D01*
X167471428Y-89247380D01*
X167566666Y-89295000D01*
X167614285Y-89342619D01*
X167661904Y-89437857D01*
X167661904Y-89580714D01*
X167614285Y-89675952D01*
X167566666Y-89723571D01*
X167471428Y-89771190D01*
X167090476Y-89771190D01*
X168090476Y-90247380D02*
X168090476Y-89580714D01*
X168090476Y-89247380D02*
X168042857Y-89295000D01*
X168090476Y-89342619D01*
X168138095Y-89295000D01*
X168090476Y-89247380D01*
X168090476Y-89342619D01*
X168566666Y-89580714D02*
X168566666Y-90247380D01*
X168566666Y-89675952D02*
X168614285Y-89628333D01*
X168709523Y-89580714D01*
X168852380Y-89580714D01*
X168947619Y-89628333D01*
X168995238Y-89723571D01*
X168995238Y-90247380D01*
X169423809Y-90199761D02*
X169519047Y-90247380D01*
X169709523Y-90247380D01*
X169804761Y-90199761D01*
X169852380Y-90104523D01*
X169852380Y-90056904D01*
X169804761Y-89961666D01*
X169709523Y-89914047D01*
X169566666Y-89914047D01*
X169471428Y-89866428D01*
X169423809Y-89771190D01*
X169423809Y-89723571D01*
X169471428Y-89628333D01*
X169566666Y-89580714D01*
X169709523Y-89580714D01*
X169804761Y-89628333D01*
X170280952Y-90152142D02*
X170328571Y-90199761D01*
X170280952Y-90247380D01*
X170233333Y-90199761D01*
X170280952Y-90152142D01*
X170280952Y-90247380D01*
X170280952Y-89628333D02*
X170328571Y-89675952D01*
X170280952Y-89723571D01*
X170233333Y-89675952D01*
X170280952Y-89628333D01*
X170280952Y-89723571D01*
X162852380Y-90857380D02*
X163471428Y-90857380D01*
X163138095Y-91238333D01*
X163280952Y-91238333D01*
X163376190Y-91285952D01*
X163423809Y-91333571D01*
X163471428Y-91428809D01*
X163471428Y-91666904D01*
X163423809Y-91762142D01*
X163376190Y-91809761D01*
X163280952Y-91857380D01*
X162995238Y-91857380D01*
X162900000Y-91809761D01*
X162852380Y-91762142D01*
X163757142Y-90857380D02*
X164090476Y-91857380D01*
X164423809Y-90857380D01*
X164661904Y-90857380D02*
X165280952Y-90857380D01*
X164947619Y-91238333D01*
X165090476Y-91238333D01*
X165185714Y-91285952D01*
X165233333Y-91333571D01*
X165280952Y-91428809D01*
X165280952Y-91666904D01*
X165233333Y-91762142D01*
X165185714Y-91809761D01*
X165090476Y-91857380D01*
X164804761Y-91857380D01*
X164709523Y-91809761D01*
X164661904Y-91762142D01*
X166471428Y-91476428D02*
X167233333Y-91476428D01*
X168423809Y-91571666D02*
X168900000Y-91571666D01*
X168328571Y-91857380D02*
X168661904Y-90857380D01*
X168995238Y-91857380D01*
X169328571Y-91857380D02*
X169328571Y-90857380D01*
X169566666Y-90857380D01*
X169709523Y-90905000D01*
X169804761Y-91000238D01*
X169852380Y-91095476D01*
X169900000Y-91285952D01*
X169900000Y-91428809D01*
X169852380Y-91619285D01*
X169804761Y-91714523D01*
X169709523Y-91809761D01*
X169566666Y-91857380D01*
X169328571Y-91857380D01*
X170900000Y-91762142D02*
X170852380Y-91809761D01*
X170709523Y-91857380D01*
X170614285Y-91857380D01*
X170471428Y-91809761D01*
X170376190Y-91714523D01*
X170328571Y-91619285D01*
X170280952Y-91428809D01*
X170280952Y-91285952D01*
X170328571Y-91095476D01*
X170376190Y-91000238D01*
X170471428Y-90905000D01*
X170614285Y-90857380D01*
X170709523Y-90857380D01*
X170852380Y-90905000D01*
X170900000Y-90952619D01*
D11*
X155366666Y-77716666D02*
X155366666Y-77283333D01*
X155633333Y-77516666D01*
X155633333Y-77416666D01*
X155666666Y-77350000D01*
X155700000Y-77316666D01*
X155766666Y-77283333D01*
X155933333Y-77283333D01*
X156000000Y-77316666D01*
X156033333Y-77350000D01*
X156066666Y-77416666D01*
X156066666Y-77616666D01*
X156033333Y-77683333D01*
X156000000Y-77716666D01*
X155366666Y-77083333D02*
X156066666Y-76850000D01*
X155366666Y-76616666D01*
X155366666Y-76450000D02*
X155366666Y-76016666D01*
X155633333Y-76250000D01*
X155633333Y-76150000D01*
X155666666Y-76083333D01*
X155700000Y-76050000D01*
X155766666Y-76016666D01*
X155933333Y-76016666D01*
X156000000Y-76050000D01*
X156033333Y-76083333D01*
X156066666Y-76150000D01*
X156066666Y-76350000D01*
X156033333Y-76416666D01*
X156000000Y-76450000D01*
X155866666Y-75216666D02*
X155866666Y-74883333D01*
X156066666Y-75283333D02*
X155366666Y-75050000D01*
X156066666Y-74816666D01*
X156066666Y-74583333D02*
X155600000Y-74583333D01*
X155733333Y-74583333D02*
X155666666Y-74550000D01*
X155633333Y-74516666D01*
X155600000Y-74450000D01*
X155600000Y-74383333D01*
X156066666Y-73850000D02*
X155366666Y-73850000D01*
X156033333Y-73850000D02*
X156066666Y-73916666D01*
X156066666Y-74050000D01*
X156033333Y-74116666D01*
X156000000Y-74150000D01*
X155933333Y-74183333D01*
X155733333Y-74183333D01*
X155666666Y-74150000D01*
X155633333Y-74116666D01*
X155600000Y-74050000D01*
X155600000Y-73916666D01*
X155633333Y-73850000D01*
D12*
X99738333Y-59442857D02*
X99738333Y-59919047D01*
X99452619Y-59347619D02*
X100452619Y-59680952D01*
X99452619Y-60014285D01*
X99452619Y-60347619D02*
X100119285Y-60347619D01*
X99928809Y-60347619D02*
X100024047Y-60395238D01*
X100071666Y-60442857D01*
X100119285Y-60538095D01*
X100119285Y-60633333D01*
X99452619Y-61395238D02*
X100452619Y-61395238D01*
X99500238Y-61395238D02*
X99452619Y-61300000D01*
X99452619Y-61109523D01*
X99500238Y-61014285D01*
X99547857Y-60966666D01*
X99643095Y-60919047D01*
X99928809Y-60919047D01*
X100024047Y-60966666D01*
X100071666Y-61014285D01*
X100119285Y-61109523D01*
X100119285Y-61300000D01*
X100071666Y-61395238D01*
X100119285Y-62300000D02*
X99452619Y-62300000D01*
X100119285Y-61871428D02*
X99595476Y-61871428D01*
X99500238Y-61919047D01*
X99452619Y-62014285D01*
X99452619Y-62157142D01*
X99500238Y-62252380D01*
X99547857Y-62300000D01*
X99452619Y-62776190D02*
X100119285Y-62776190D01*
X100452619Y-62776190D02*
X100405000Y-62728571D01*
X100357380Y-62776190D01*
X100405000Y-62823809D01*
X100452619Y-62776190D01*
X100357380Y-62776190D01*
X100119285Y-63252380D02*
X99452619Y-63252380D01*
X100024047Y-63252380D02*
X100071666Y-63300000D01*
X100119285Y-63395238D01*
X100119285Y-63538095D01*
X100071666Y-63633333D01*
X99976428Y-63680952D01*
X99452619Y-63680952D01*
X99452619Y-64300000D02*
X99500238Y-64204761D01*
X99547857Y-64157142D01*
X99643095Y-64109523D01*
X99928809Y-64109523D01*
X100024047Y-64157142D01*
X100071666Y-64204761D01*
X100119285Y-64300000D01*
X100119285Y-64442857D01*
X100071666Y-64538095D01*
X100024047Y-64585714D01*
X99928809Y-64633333D01*
X99643095Y-64633333D01*
X99547857Y-64585714D01*
X99500238Y-64538095D01*
X99452619Y-64442857D01*
X99452619Y-64300000D01*
X99452619Y-65823809D02*
X100452619Y-65823809D01*
X99452619Y-66395238D01*
X100452619Y-66395238D01*
X99452619Y-67300000D02*
X99976428Y-67300000D01*
X100071666Y-67252380D01*
X100119285Y-67157142D01*
X100119285Y-66966666D01*
X100071666Y-66871428D01*
X99500238Y-67300000D02*
X99452619Y-67204761D01*
X99452619Y-66966666D01*
X99500238Y-66871428D01*
X99595476Y-66823809D01*
X99690714Y-66823809D01*
X99785952Y-66871428D01*
X99833571Y-66966666D01*
X99833571Y-67204761D01*
X99881190Y-67300000D01*
X100119285Y-67776190D02*
X99452619Y-67776190D01*
X100024047Y-67776190D02*
X100071666Y-67823809D01*
X100119285Y-67919047D01*
X100119285Y-68061904D01*
X100071666Y-68157142D01*
X99976428Y-68204761D01*
X99452619Y-68204761D01*
X99452619Y-68823809D02*
X99500238Y-68728571D01*
X99547857Y-68680952D01*
X99643095Y-68633333D01*
X99928809Y-68633333D01*
X100024047Y-68680952D01*
X100071666Y-68728571D01*
X100119285Y-68823809D01*
X100119285Y-68966666D01*
X100071666Y-69061904D01*
X100024047Y-69109523D01*
X99928809Y-69157142D01*
X99643095Y-69157142D01*
X99547857Y-69109523D01*
X99500238Y-69061904D01*
X99452619Y-68966666D01*
X99452619Y-68823809D01*
X98842619Y-61038095D02*
X98033095Y-61038095D01*
X97937857Y-61085714D01*
X97890238Y-61133333D01*
X97842619Y-61228571D01*
X97842619Y-61419047D01*
X97890238Y-61514285D01*
X97937857Y-61561904D01*
X98033095Y-61609523D01*
X98842619Y-61609523D01*
X97890238Y-62038095D02*
X97842619Y-62180952D01*
X97842619Y-62419047D01*
X97890238Y-62514285D01*
X97937857Y-62561904D01*
X98033095Y-62609523D01*
X98128333Y-62609523D01*
X98223571Y-62561904D01*
X98271190Y-62514285D01*
X98318809Y-62419047D01*
X98366428Y-62228571D01*
X98414047Y-62133333D01*
X98461666Y-62085714D01*
X98556904Y-62038095D01*
X98652142Y-62038095D01*
X98747380Y-62085714D01*
X98795000Y-62133333D01*
X98842619Y-62228571D01*
X98842619Y-62466666D01*
X98795000Y-62609523D01*
X98366428Y-63371428D02*
X98318809Y-63514285D01*
X98271190Y-63561904D01*
X98175952Y-63609523D01*
X98033095Y-63609523D01*
X97937857Y-63561904D01*
X97890238Y-63514285D01*
X97842619Y-63419047D01*
X97842619Y-63038095D01*
X98842619Y-63038095D01*
X98842619Y-63371428D01*
X98795000Y-63466666D01*
X98747380Y-63514285D01*
X98652142Y-63561904D01*
X98556904Y-63561904D01*
X98461666Y-63514285D01*
X98414047Y-63466666D01*
X98366428Y-63371428D01*
X98366428Y-63038095D01*
X97842619Y-64800000D02*
X98842619Y-64800000D01*
X97842619Y-65228571D02*
X98366428Y-65228571D01*
X98461666Y-65180952D01*
X98509285Y-65085714D01*
X98509285Y-64942857D01*
X98461666Y-64847619D01*
X98414047Y-64800000D01*
X97890238Y-66085714D02*
X97842619Y-65990476D01*
X97842619Y-65800000D01*
X97890238Y-65704761D01*
X97985476Y-65657142D01*
X98366428Y-65657142D01*
X98461666Y-65704761D01*
X98509285Y-65800000D01*
X98509285Y-65990476D01*
X98461666Y-66085714D01*
X98366428Y-66133333D01*
X98271190Y-66133333D01*
X98175952Y-65657142D01*
X97842619Y-66561904D02*
X98509285Y-66561904D01*
X98318809Y-66561904D02*
X98414047Y-66609523D01*
X98461666Y-66657142D01*
X98509285Y-66752380D01*
X98509285Y-66847619D01*
X97890238Y-67561904D02*
X97842619Y-67466666D01*
X97842619Y-67276190D01*
X97890238Y-67180952D01*
X97985476Y-67133333D01*
X98366428Y-67133333D01*
X98461666Y-67180952D01*
X98509285Y-67276190D01*
X98509285Y-67466666D01*
X98461666Y-67561904D01*
X98366428Y-67609523D01*
X98271190Y-67609523D01*
X98175952Y-67133333D01*
%TO.C,R/O-Board_I2C_Interface*%
X141747619Y-43190476D02*
X142223809Y-42857142D01*
X141747619Y-42619047D02*
X142747619Y-42619047D01*
X142747619Y-42999999D01*
X142700000Y-43095238D01*
X142652380Y-43142857D01*
X142557142Y-43190476D01*
X142414285Y-43190476D01*
X142319047Y-43142857D01*
X142271428Y-43095238D01*
X142223809Y-42999999D01*
X142223809Y-42619047D01*
X142795238Y-44333333D02*
X141509523Y-43476190D01*
X142747619Y-44857142D02*
X142747619Y-45047619D01*
X142700000Y-45142857D01*
X142604761Y-45238095D01*
X142414285Y-45285714D01*
X142080952Y-45285714D01*
X141890476Y-45238095D01*
X141795238Y-45142857D01*
X141747619Y-45047619D01*
X141747619Y-44857142D01*
X141795238Y-44761904D01*
X141890476Y-44666666D01*
X142080952Y-44619047D01*
X142414285Y-44619047D01*
X142604761Y-44666666D01*
X142700000Y-44761904D01*
X142747619Y-44857142D01*
X142128571Y-45714285D02*
X142128571Y-46476190D01*
X142271428Y-47285714D02*
X142223809Y-47428571D01*
X142176190Y-47476190D01*
X142080952Y-47523809D01*
X141938095Y-47523809D01*
X141842857Y-47476190D01*
X141795238Y-47428571D01*
X141747619Y-47333333D01*
X141747619Y-46952380D01*
X142747619Y-46952380D01*
X142747619Y-47285714D01*
X142700000Y-47380952D01*
X142652380Y-47428571D01*
X142557142Y-47476190D01*
X142461904Y-47476190D01*
X142366666Y-47428571D01*
X142319047Y-47380952D01*
X142271428Y-47285714D01*
X142271428Y-46952380D01*
X141747619Y-48095238D02*
X141795238Y-48000000D01*
X141842857Y-47952380D01*
X141938095Y-47904761D01*
X142223809Y-47904761D01*
X142319047Y-47952380D01*
X142366666Y-48000000D01*
X142414285Y-48095238D01*
X142414285Y-48238095D01*
X142366666Y-48333333D01*
X142319047Y-48380952D01*
X142223809Y-48428571D01*
X141938095Y-48428571D01*
X141842857Y-48380952D01*
X141795238Y-48333333D01*
X141747619Y-48238095D01*
X141747619Y-48095238D01*
X141747619Y-49285714D02*
X142271428Y-49285714D01*
X142366666Y-49238095D01*
X142414285Y-49142857D01*
X142414285Y-48952380D01*
X142366666Y-48857142D01*
X141795238Y-49285714D02*
X141747619Y-49190476D01*
X141747619Y-48952380D01*
X141795238Y-48857142D01*
X141890476Y-48809523D01*
X141985714Y-48809523D01*
X142080952Y-48857142D01*
X142128571Y-48952380D01*
X142128571Y-49190476D01*
X142176190Y-49285714D01*
X141747619Y-49761904D02*
X142414285Y-49761904D01*
X142223809Y-49761904D02*
X142319047Y-49809523D01*
X142366666Y-49857142D01*
X142414285Y-49952380D01*
X142414285Y-50047619D01*
X141747619Y-50809523D02*
X142747619Y-50809523D01*
X141795238Y-50809523D02*
X141747619Y-50714285D01*
X141747619Y-50523809D01*
X141795238Y-50428571D01*
X141842857Y-50380952D01*
X141938095Y-50333333D01*
X142223809Y-50333333D01*
X142319047Y-50380952D01*
X142366666Y-50428571D01*
X142414285Y-50523809D01*
X142414285Y-50714285D01*
X142366666Y-50809523D01*
X141652380Y-51047619D02*
X141652380Y-51809523D01*
X141747619Y-52047619D02*
X142747619Y-52047619D01*
X142652380Y-52476190D02*
X142700000Y-52523809D01*
X142747619Y-52619047D01*
X142747619Y-52857142D01*
X142700000Y-52952380D01*
X142652380Y-53000000D01*
X142557142Y-53047619D01*
X142461904Y-53047619D01*
X142319047Y-53000000D01*
X141747619Y-52428571D01*
X141747619Y-53047619D01*
X141842857Y-54047619D02*
X141795238Y-54000000D01*
X141747619Y-53857142D01*
X141747619Y-53761904D01*
X141795238Y-53619047D01*
X141890476Y-53523809D01*
X141985714Y-53476190D01*
X142176190Y-53428571D01*
X142319047Y-53428571D01*
X142509523Y-53476190D01*
X142604761Y-53523809D01*
X142700000Y-53619047D01*
X142747619Y-53761904D01*
X142747619Y-53857142D01*
X142700000Y-54000000D01*
X142652380Y-54047619D01*
X141652380Y-54238095D02*
X141652380Y-55000000D01*
X141747619Y-55238095D02*
X142747619Y-55238095D01*
X142414285Y-55714285D02*
X141747619Y-55714285D01*
X142319047Y-55714285D02*
X142366666Y-55761904D01*
X142414285Y-55857142D01*
X142414285Y-56000000D01*
X142366666Y-56095238D01*
X142271428Y-56142857D01*
X141747619Y-56142857D01*
X142414285Y-56476190D02*
X142414285Y-56857142D01*
X142747619Y-56619047D02*
X141890476Y-56619047D01*
X141795238Y-56666666D01*
X141747619Y-56761904D01*
X141747619Y-56857142D01*
X141795238Y-57571428D02*
X141747619Y-57476190D01*
X141747619Y-57285714D01*
X141795238Y-57190476D01*
X141890476Y-57142857D01*
X142271428Y-57142857D01*
X142366666Y-57190476D01*
X142414285Y-57285714D01*
X142414285Y-57476190D01*
X142366666Y-57571428D01*
X142271428Y-57619047D01*
X142176190Y-57619047D01*
X142080952Y-57142857D01*
X141747619Y-58047619D02*
X142414285Y-58047619D01*
X142223809Y-58047619D02*
X142319047Y-58095238D01*
X142366666Y-58142857D01*
X142414285Y-58238095D01*
X142414285Y-58333333D01*
X142414285Y-58523809D02*
X142414285Y-58904761D01*
X141747619Y-58666666D02*
X142604761Y-58666666D01*
X142700000Y-58714285D01*
X142747619Y-58809523D01*
X142747619Y-58904761D01*
X141747619Y-59666666D02*
X142271428Y-59666666D01*
X142366666Y-59619047D01*
X142414285Y-59523809D01*
X142414285Y-59333333D01*
X142366666Y-59238095D01*
X141795238Y-59666666D02*
X141747619Y-59571428D01*
X141747619Y-59333333D01*
X141795238Y-59238095D01*
X141890476Y-59190476D01*
X141985714Y-59190476D01*
X142080952Y-59238095D01*
X142128571Y-59333333D01*
X142128571Y-59571428D01*
X142176190Y-59666666D01*
X141795238Y-60571428D02*
X141747619Y-60476190D01*
X141747619Y-60285714D01*
X141795238Y-60190476D01*
X141842857Y-60142857D01*
X141938095Y-60095238D01*
X142223809Y-60095238D01*
X142319047Y-60142857D01*
X142366666Y-60190476D01*
X142414285Y-60285714D01*
X142414285Y-60476190D01*
X142366666Y-60571428D01*
X141795238Y-61380952D02*
X141747619Y-61285714D01*
X141747619Y-61095238D01*
X141795238Y-61000000D01*
X141890476Y-60952380D01*
X142271428Y-60952380D01*
X142366666Y-61000000D01*
X142414285Y-61095238D01*
X142414285Y-61285714D01*
X142366666Y-61380952D01*
X142271428Y-61428571D01*
X142176190Y-61428571D01*
X142080952Y-60952380D01*
%TO.C,R4*%
X126333333Y-88352380D02*
X126000000Y-87876190D01*
X125761904Y-88352380D02*
X125761904Y-87352380D01*
X126142857Y-87352380D01*
X126238095Y-87400000D01*
X126285714Y-87447619D01*
X126333333Y-87542857D01*
X126333333Y-87685714D01*
X126285714Y-87780952D01*
X126238095Y-87828571D01*
X126142857Y-87876190D01*
X125761904Y-87876190D01*
X127190476Y-87685714D02*
X127190476Y-88352380D01*
X126952380Y-87304761D02*
X126714285Y-88019047D01*
X127333333Y-88019047D01*
%TO.C,R3*%
X118233333Y-88452380D02*
X117900000Y-87976190D01*
X117661904Y-88452380D02*
X117661904Y-87452380D01*
X118042857Y-87452380D01*
X118138095Y-87500000D01*
X118185714Y-87547619D01*
X118233333Y-87642857D01*
X118233333Y-87785714D01*
X118185714Y-87880952D01*
X118138095Y-87928571D01*
X118042857Y-87976190D01*
X117661904Y-87976190D01*
X118566666Y-87452380D02*
X119185714Y-87452380D01*
X118852380Y-87833333D01*
X118995238Y-87833333D01*
X119090476Y-87880952D01*
X119138095Y-87928571D01*
X119185714Y-88023809D01*
X119185714Y-88261904D01*
X119138095Y-88357142D01*
X119090476Y-88404761D01*
X118995238Y-88452380D01*
X118709523Y-88452380D01*
X118614285Y-88404761D01*
X118566666Y-88357142D01*
%TO.C,I2C-Pins*%
X161909523Y-63452380D02*
X161909523Y-62452380D01*
X162338095Y-62547619D02*
X162385714Y-62500000D01*
X162480952Y-62452380D01*
X162719047Y-62452380D01*
X162814285Y-62500000D01*
X162861904Y-62547619D01*
X162909523Y-62642857D01*
X162909523Y-62738095D01*
X162861904Y-62880952D01*
X162290476Y-63452380D01*
X162909523Y-63452380D01*
X163909523Y-63357142D02*
X163861904Y-63404761D01*
X163719047Y-63452380D01*
X163623809Y-63452380D01*
X163480952Y-63404761D01*
X163385714Y-63309523D01*
X163338095Y-63214285D01*
X163290476Y-63023809D01*
X163290476Y-62880952D01*
X163338095Y-62690476D01*
X163385714Y-62595238D01*
X163480952Y-62500000D01*
X163623809Y-62452380D01*
X163719047Y-62452380D01*
X163861904Y-62500000D01*
X163909523Y-62547619D01*
X164338095Y-63071428D02*
X165100000Y-63071428D01*
X165576190Y-63452380D02*
X165576190Y-62452380D01*
X165957142Y-62452380D01*
X166052380Y-62500000D01*
X166100000Y-62547619D01*
X166147619Y-62642857D01*
X166147619Y-62785714D01*
X166100000Y-62880952D01*
X166052380Y-62928571D01*
X165957142Y-62976190D01*
X165576190Y-62976190D01*
X166576190Y-63452380D02*
X166576190Y-62785714D01*
X166576190Y-62452380D02*
X166528571Y-62500000D01*
X166576190Y-62547619D01*
X166623809Y-62500000D01*
X166576190Y-62452380D01*
X166576190Y-62547619D01*
X167052380Y-62785714D02*
X167052380Y-63452380D01*
X167052380Y-62880952D02*
X167100000Y-62833333D01*
X167195238Y-62785714D01*
X167338095Y-62785714D01*
X167433333Y-62833333D01*
X167480952Y-62928571D01*
X167480952Y-63452380D01*
X167909523Y-63404761D02*
X168004761Y-63452380D01*
X168195238Y-63452380D01*
X168290476Y-63404761D01*
X168338095Y-63309523D01*
X168338095Y-63261904D01*
X168290476Y-63166666D01*
X168195238Y-63119047D01*
X168052380Y-63119047D01*
X167957142Y-63071428D01*
X167909523Y-62976190D01*
X167909523Y-62928571D01*
X167957142Y-62833333D01*
X168052380Y-62785714D01*
X168195238Y-62785714D01*
X168290476Y-62833333D01*
%TO.C,Freq_PinHeader*%
X158885714Y-77828571D02*
X158552380Y-77828571D01*
X158552380Y-78352380D02*
X158552380Y-77352380D01*
X159028571Y-77352380D01*
X159409523Y-78352380D02*
X159409523Y-77685714D01*
X159409523Y-77876190D02*
X159457142Y-77780952D01*
X159504761Y-77733333D01*
X159600000Y-77685714D01*
X159695238Y-77685714D01*
X160409523Y-78304761D02*
X160314285Y-78352380D01*
X160123809Y-78352380D01*
X160028571Y-78304761D01*
X159980952Y-78209523D01*
X159980952Y-77828571D01*
X160028571Y-77733333D01*
X160123809Y-77685714D01*
X160314285Y-77685714D01*
X160409523Y-77733333D01*
X160457142Y-77828571D01*
X160457142Y-77923809D01*
X159980952Y-78019047D01*
X161314285Y-77685714D02*
X161314285Y-78685714D01*
X161314285Y-78304761D02*
X161219047Y-78352380D01*
X161028571Y-78352380D01*
X160933333Y-78304761D01*
X160885714Y-78257142D01*
X160838095Y-78161904D01*
X160838095Y-77876190D01*
X160885714Y-77780952D01*
X160933333Y-77733333D01*
X161028571Y-77685714D01*
X161219047Y-77685714D01*
X161314285Y-77733333D01*
X161552380Y-78447619D02*
X162314285Y-78447619D01*
X162552380Y-78352380D02*
X162552380Y-77352380D01*
X162933333Y-77352380D01*
X163028571Y-77400000D01*
X163076190Y-77447619D01*
X163123809Y-77542857D01*
X163123809Y-77685714D01*
X163076190Y-77780952D01*
X163028571Y-77828571D01*
X162933333Y-77876190D01*
X162552380Y-77876190D01*
X163552380Y-78352380D02*
X163552380Y-77685714D01*
X163552380Y-77352380D02*
X163504761Y-77400000D01*
X163552380Y-77447619D01*
X163600000Y-77400000D01*
X163552380Y-77352380D01*
X163552380Y-77447619D01*
X164028571Y-77685714D02*
X164028571Y-78352380D01*
X164028571Y-77780952D02*
X164076190Y-77733333D01*
X164171428Y-77685714D01*
X164314285Y-77685714D01*
X164409523Y-77733333D01*
X164457142Y-77828571D01*
X164457142Y-78352380D01*
X164933333Y-78352380D02*
X164933333Y-77352380D01*
X164933333Y-77828571D02*
X165504761Y-77828571D01*
X165504761Y-78352380D02*
X165504761Y-77352380D01*
X166361904Y-78304761D02*
X166266666Y-78352380D01*
X166076190Y-78352380D01*
X165980952Y-78304761D01*
X165933333Y-78209523D01*
X165933333Y-77828571D01*
X165980952Y-77733333D01*
X166076190Y-77685714D01*
X166266666Y-77685714D01*
X166361904Y-77733333D01*
X166409523Y-77828571D01*
X166409523Y-77923809D01*
X165933333Y-78019047D01*
X167266666Y-78352380D02*
X167266666Y-77828571D01*
X167219047Y-77733333D01*
X167123809Y-77685714D01*
X166933333Y-77685714D01*
X166838095Y-77733333D01*
X167266666Y-78304761D02*
X167171428Y-78352380D01*
X166933333Y-78352380D01*
X166838095Y-78304761D01*
X166790476Y-78209523D01*
X166790476Y-78114285D01*
X166838095Y-78019047D01*
X166933333Y-77971428D01*
X167171428Y-77971428D01*
X167266666Y-77923809D01*
X168171428Y-78352380D02*
X168171428Y-77352380D01*
X168171428Y-78304761D02*
X168076190Y-78352380D01*
X167885714Y-78352380D01*
X167790476Y-78304761D01*
X167742857Y-78257142D01*
X167695238Y-78161904D01*
X167695238Y-77876190D01*
X167742857Y-77780952D01*
X167790476Y-77733333D01*
X167885714Y-77685714D01*
X168076190Y-77685714D01*
X168171428Y-77733333D01*
X169028571Y-78304761D02*
X168933333Y-78352380D01*
X168742857Y-78352380D01*
X168647619Y-78304761D01*
X168600000Y-78209523D01*
X168600000Y-77828571D01*
X168647619Y-77733333D01*
X168742857Y-77685714D01*
X168933333Y-77685714D01*
X169028571Y-77733333D01*
X169076190Y-77828571D01*
X169076190Y-77923809D01*
X168600000Y-78019047D01*
X169504761Y-78352380D02*
X169504761Y-77685714D01*
X169504761Y-77876190D02*
X169552380Y-77780952D01*
X169600000Y-77733333D01*
X169695238Y-77685714D01*
X169790476Y-77685714D01*
%TO.C,R7*%
X150333333Y-88352380D02*
X150000000Y-87876190D01*
X149761904Y-88352380D02*
X149761904Y-87352380D01*
X150142857Y-87352380D01*
X150238095Y-87400000D01*
X150285714Y-87447619D01*
X150333333Y-87542857D01*
X150333333Y-87685714D01*
X150285714Y-87780952D01*
X150238095Y-87828571D01*
X150142857Y-87876190D01*
X149761904Y-87876190D01*
X150666666Y-87352380D02*
X151333333Y-87352380D01*
X150904761Y-88352380D01*
%TO.C,R1*%
X102133333Y-88352380D02*
X101800000Y-87876190D01*
X101561904Y-88352380D02*
X101561904Y-87352380D01*
X101942857Y-87352380D01*
X102038095Y-87400000D01*
X102085714Y-87447619D01*
X102133333Y-87542857D01*
X102133333Y-87685714D01*
X102085714Y-87780952D01*
X102038095Y-87828571D01*
X101942857Y-87876190D01*
X101561904Y-87876190D01*
X103085714Y-88352380D02*
X102514285Y-88352380D01*
X102800000Y-88352380D02*
X102800000Y-87352380D01*
X102704761Y-87495238D01*
X102609523Y-87590476D01*
X102514285Y-87638095D01*
%TO.C,NTC6*%
X140452380Y-108642857D02*
X139452380Y-108642857D01*
X140452380Y-108071428D01*
X139452380Y-108071428D01*
X139452380Y-107738095D02*
X139452380Y-107166666D01*
X140452380Y-107452380D02*
X139452380Y-107452380D01*
X140357142Y-106261904D02*
X140404761Y-106309523D01*
X140452380Y-106452380D01*
X140452380Y-106547619D01*
X140404761Y-106690476D01*
X140309523Y-106785714D01*
X140214285Y-106833333D01*
X140023809Y-106880952D01*
X139880952Y-106880952D01*
X139690476Y-106833333D01*
X139595238Y-106785714D01*
X139500000Y-106690476D01*
X139452380Y-106547619D01*
X139452380Y-106452380D01*
X139500000Y-106309523D01*
X139547619Y-106261904D01*
X139452380Y-105404761D02*
X139452380Y-105595238D01*
X139500000Y-105690476D01*
X139547619Y-105738095D01*
X139690476Y-105833333D01*
X139880952Y-105880952D01*
X140261904Y-105880952D01*
X140357142Y-105833333D01*
X140404761Y-105785714D01*
X140452380Y-105690476D01*
X140452380Y-105500000D01*
X140404761Y-105404761D01*
X140357142Y-105357142D01*
X140261904Y-105309523D01*
X140023809Y-105309523D01*
X139928571Y-105357142D01*
X139880952Y-105404761D01*
X139833333Y-105500000D01*
X139833333Y-105690476D01*
X139880952Y-105785714D01*
X139928571Y-105833333D01*
X140023809Y-105880952D01*
%TO.C,R5*%
X134233333Y-88352380D02*
X133900000Y-87876190D01*
X133661904Y-88352380D02*
X133661904Y-87352380D01*
X134042857Y-87352380D01*
X134138095Y-87400000D01*
X134185714Y-87447619D01*
X134233333Y-87542857D01*
X134233333Y-87685714D01*
X134185714Y-87780952D01*
X134138095Y-87828571D01*
X134042857Y-87876190D01*
X133661904Y-87876190D01*
X135138095Y-87352380D02*
X134661904Y-87352380D01*
X134614285Y-87828571D01*
X134661904Y-87780952D01*
X134757142Y-87733333D01*
X134995238Y-87733333D01*
X135090476Y-87780952D01*
X135138095Y-87828571D01*
X135185714Y-87923809D01*
X135185714Y-88161904D01*
X135138095Y-88257142D01*
X135090476Y-88304761D01*
X134995238Y-88352380D01*
X134757142Y-88352380D01*
X134661904Y-88304761D01*
X134614285Y-88257142D01*
D13*
%TO.C,XA1*%
X95971190Y-64958952D02*
X96375952Y-64958952D01*
X96423571Y-64935142D01*
X96447380Y-64911333D01*
X96471190Y-64863714D01*
X96471190Y-64768476D01*
X96447380Y-64720857D01*
X96423571Y-64697047D01*
X96375952Y-64673238D01*
X95971190Y-64673238D01*
X96447380Y-64458952D02*
X96471190Y-64387523D01*
X96471190Y-64268476D01*
X96447380Y-64220857D01*
X96423571Y-64197047D01*
X96375952Y-64173238D01*
X96328333Y-64173238D01*
X96280714Y-64197047D01*
X96256904Y-64220857D01*
X96233095Y-64268476D01*
X96209285Y-64363714D01*
X96185476Y-64411333D01*
X96161666Y-64435142D01*
X96114047Y-64458952D01*
X96066428Y-64458952D01*
X96018809Y-64435142D01*
X95995000Y-64411333D01*
X95971190Y-64363714D01*
X95971190Y-64244666D01*
X95995000Y-64173238D01*
X96209285Y-63792285D02*
X96233095Y-63720857D01*
X96256904Y-63697047D01*
X96304523Y-63673238D01*
X96375952Y-63673238D01*
X96423571Y-63697047D01*
X96447380Y-63720857D01*
X96471190Y-63768476D01*
X96471190Y-63958952D01*
X95971190Y-63958952D01*
X95971190Y-63792285D01*
X95995000Y-63744666D01*
X96018809Y-63720857D01*
X96066428Y-63697047D01*
X96114047Y-63697047D01*
X96161666Y-63720857D01*
X96185476Y-63744666D01*
X96209285Y-63792285D01*
X96209285Y-63958952D01*
D12*
%TO.C,NTC1*%
X100352380Y-108692857D02*
X99352380Y-108692857D01*
X100352380Y-108121428D01*
X99352380Y-108121428D01*
X99352380Y-107788095D02*
X99352380Y-107216666D01*
X100352380Y-107502380D02*
X99352380Y-107502380D01*
X100257142Y-106311904D02*
X100304761Y-106359523D01*
X100352380Y-106502380D01*
X100352380Y-106597619D01*
X100304761Y-106740476D01*
X100209523Y-106835714D01*
X100114285Y-106883333D01*
X99923809Y-106930952D01*
X99780952Y-106930952D01*
X99590476Y-106883333D01*
X99495238Y-106835714D01*
X99400000Y-106740476D01*
X99352380Y-106597619D01*
X99352380Y-106502380D01*
X99400000Y-106359523D01*
X99447619Y-106311904D01*
X100352380Y-105359523D02*
X100352380Y-105930952D01*
X100352380Y-105645238D02*
X99352380Y-105645238D01*
X99495238Y-105740476D01*
X99590476Y-105835714D01*
X99638095Y-105930952D01*
%TO.C,NTC7*%
X148452380Y-108642857D02*
X147452380Y-108642857D01*
X148452380Y-108071428D01*
X147452380Y-108071428D01*
X147452380Y-107738095D02*
X147452380Y-107166666D01*
X148452380Y-107452380D02*
X147452380Y-107452380D01*
X148357142Y-106261904D02*
X148404761Y-106309523D01*
X148452380Y-106452380D01*
X148452380Y-106547619D01*
X148404761Y-106690476D01*
X148309523Y-106785714D01*
X148214285Y-106833333D01*
X148023809Y-106880952D01*
X147880952Y-106880952D01*
X147690476Y-106833333D01*
X147595238Y-106785714D01*
X147500000Y-106690476D01*
X147452380Y-106547619D01*
X147452380Y-106452380D01*
X147500000Y-106309523D01*
X147547619Y-106261904D01*
X147452380Y-105928571D02*
X147452380Y-105261904D01*
X148452380Y-105690476D01*
%TO.C,R2*%
X110233333Y-88452380D02*
X109900000Y-87976190D01*
X109661904Y-88452380D02*
X109661904Y-87452380D01*
X110042857Y-87452380D01*
X110138095Y-87500000D01*
X110185714Y-87547619D01*
X110233333Y-87642857D01*
X110233333Y-87785714D01*
X110185714Y-87880952D01*
X110138095Y-87928571D01*
X110042857Y-87976190D01*
X109661904Y-87976190D01*
X110614285Y-87547619D02*
X110661904Y-87500000D01*
X110757142Y-87452380D01*
X110995238Y-87452380D01*
X111090476Y-87500000D01*
X111138095Y-87547619D01*
X111185714Y-87642857D01*
X111185714Y-87738095D01*
X111138095Y-87880952D01*
X110566666Y-88452380D01*
X111185714Y-88452380D01*
%TO.C,NTC5*%
X132452380Y-108642857D02*
X131452380Y-108642857D01*
X132452380Y-108071428D01*
X131452380Y-108071428D01*
X131452380Y-107738095D02*
X131452380Y-107166666D01*
X132452380Y-107452380D02*
X131452380Y-107452380D01*
X132357142Y-106261904D02*
X132404761Y-106309523D01*
X132452380Y-106452380D01*
X132452380Y-106547619D01*
X132404761Y-106690476D01*
X132309523Y-106785714D01*
X132214285Y-106833333D01*
X132023809Y-106880952D01*
X131880952Y-106880952D01*
X131690476Y-106833333D01*
X131595238Y-106785714D01*
X131500000Y-106690476D01*
X131452380Y-106547619D01*
X131452380Y-106452380D01*
X131500000Y-106309523D01*
X131547619Y-106261904D01*
X131452380Y-105357142D02*
X131452380Y-105833333D01*
X131928571Y-105880952D01*
X131880952Y-105833333D01*
X131833333Y-105738095D01*
X131833333Y-105500000D01*
X131880952Y-105404761D01*
X131928571Y-105357142D01*
X132023809Y-105309523D01*
X132261904Y-105309523D01*
X132357142Y-105357142D01*
X132404761Y-105404761D01*
X132452380Y-105500000D01*
X132452380Y-105738095D01*
X132404761Y-105833333D01*
X132357142Y-105880952D01*
%TO.C,NTC3*%
X116452380Y-108642857D02*
X115452380Y-108642857D01*
X116452380Y-108071428D01*
X115452380Y-108071428D01*
X115452380Y-107738095D02*
X115452380Y-107166666D01*
X116452380Y-107452380D02*
X115452380Y-107452380D01*
X116357142Y-106261904D02*
X116404761Y-106309523D01*
X116452380Y-106452380D01*
X116452380Y-106547619D01*
X116404761Y-106690476D01*
X116309523Y-106785714D01*
X116214285Y-106833333D01*
X116023809Y-106880952D01*
X115880952Y-106880952D01*
X115690476Y-106833333D01*
X115595238Y-106785714D01*
X115500000Y-106690476D01*
X115452380Y-106547619D01*
X115452380Y-106452380D01*
X115500000Y-106309523D01*
X115547619Y-106261904D01*
X115452380Y-105928571D02*
X115452380Y-105309523D01*
X115833333Y-105642857D01*
X115833333Y-105500000D01*
X115880952Y-105404761D01*
X115928571Y-105357142D01*
X116023809Y-105309523D01*
X116261904Y-105309523D01*
X116357142Y-105357142D01*
X116404761Y-105404761D01*
X116452380Y-105500000D01*
X116452380Y-105785714D01*
X116404761Y-105880952D01*
X116357142Y-105928571D01*
%TO.C,NTC4*%
X124452380Y-108642857D02*
X123452380Y-108642857D01*
X124452380Y-108071428D01*
X123452380Y-108071428D01*
X123452380Y-107738095D02*
X123452380Y-107166666D01*
X124452380Y-107452380D02*
X123452380Y-107452380D01*
X124357142Y-106261904D02*
X124404761Y-106309523D01*
X124452380Y-106452380D01*
X124452380Y-106547619D01*
X124404761Y-106690476D01*
X124309523Y-106785714D01*
X124214285Y-106833333D01*
X124023809Y-106880952D01*
X123880952Y-106880952D01*
X123690476Y-106833333D01*
X123595238Y-106785714D01*
X123500000Y-106690476D01*
X123452380Y-106547619D01*
X123452380Y-106452380D01*
X123500000Y-106309523D01*
X123547619Y-106261904D01*
X123785714Y-105404761D02*
X124452380Y-105404761D01*
X123404761Y-105642857D02*
X124119047Y-105880952D01*
X124119047Y-105261904D01*
%TO.C,NTC8*%
X156452380Y-108642857D02*
X155452380Y-108642857D01*
X156452380Y-108071428D01*
X155452380Y-108071428D01*
X155452380Y-107738095D02*
X155452380Y-107166666D01*
X156452380Y-107452380D02*
X155452380Y-107452380D01*
X156357142Y-106261904D02*
X156404761Y-106309523D01*
X156452380Y-106452380D01*
X156452380Y-106547619D01*
X156404761Y-106690476D01*
X156309523Y-106785714D01*
X156214285Y-106833333D01*
X156023809Y-106880952D01*
X155880952Y-106880952D01*
X155690476Y-106833333D01*
X155595238Y-106785714D01*
X155500000Y-106690476D01*
X155452380Y-106547619D01*
X155452380Y-106452380D01*
X155500000Y-106309523D01*
X155547619Y-106261904D01*
X155880952Y-105690476D02*
X155833333Y-105785714D01*
X155785714Y-105833333D01*
X155690476Y-105880952D01*
X155642857Y-105880952D01*
X155547619Y-105833333D01*
X155500000Y-105785714D01*
X155452380Y-105690476D01*
X155452380Y-105500000D01*
X155500000Y-105404761D01*
X155547619Y-105357142D01*
X155642857Y-105309523D01*
X155690476Y-105309523D01*
X155785714Y-105357142D01*
X155833333Y-105404761D01*
X155880952Y-105500000D01*
X155880952Y-105690476D01*
X155928571Y-105785714D01*
X155976190Y-105833333D01*
X156071428Y-105880952D01*
X156261904Y-105880952D01*
X156357142Y-105833333D01*
X156404761Y-105785714D01*
X156452380Y-105690476D01*
X156452380Y-105500000D01*
X156404761Y-105404761D01*
X156357142Y-105357142D01*
X156261904Y-105309523D01*
X156071428Y-105309523D01*
X155976190Y-105357142D01*
X155928571Y-105404761D01*
X155880952Y-105500000D01*
%TO.C,NTC2*%
X108552380Y-108792857D02*
X107552380Y-108792857D01*
X108552380Y-108221428D01*
X107552380Y-108221428D01*
X107552380Y-107888095D02*
X107552380Y-107316666D01*
X108552380Y-107602380D02*
X107552380Y-107602380D01*
X108457142Y-106411904D02*
X108504761Y-106459523D01*
X108552380Y-106602380D01*
X108552380Y-106697619D01*
X108504761Y-106840476D01*
X108409523Y-106935714D01*
X108314285Y-106983333D01*
X108123809Y-107030952D01*
X107980952Y-107030952D01*
X107790476Y-106983333D01*
X107695238Y-106935714D01*
X107600000Y-106840476D01*
X107552380Y-106697619D01*
X107552380Y-106602380D01*
X107600000Y-106459523D01*
X107647619Y-106411904D01*
X107647619Y-106030952D02*
X107600000Y-105983333D01*
X107552380Y-105888095D01*
X107552380Y-105650000D01*
X107600000Y-105554761D01*
X107647619Y-105507142D01*
X107742857Y-105459523D01*
X107838095Y-105459523D01*
X107980952Y-105507142D01*
X108552380Y-106078571D01*
X108552380Y-105459523D01*
%TO.C,R6*%
X142533333Y-88352380D02*
X142200000Y-87876190D01*
X141961904Y-88352380D02*
X141961904Y-87352380D01*
X142342857Y-87352380D01*
X142438095Y-87400000D01*
X142485714Y-87447619D01*
X142533333Y-87542857D01*
X142533333Y-87685714D01*
X142485714Y-87780952D01*
X142438095Y-87828571D01*
X142342857Y-87876190D01*
X141961904Y-87876190D01*
X143390476Y-87352380D02*
X143200000Y-87352380D01*
X143104761Y-87400000D01*
X143057142Y-87447619D01*
X142961904Y-87590476D01*
X142914285Y-87780952D01*
X142914285Y-88161904D01*
X142961904Y-88257142D01*
X143009523Y-88304761D01*
X143104761Y-88352380D01*
X143295238Y-88352380D01*
X143390476Y-88304761D01*
X143438095Y-88257142D01*
X143485714Y-88161904D01*
X143485714Y-87923809D01*
X143438095Y-87828571D01*
X143390476Y-87780952D01*
X143295238Y-87733333D01*
X143104761Y-87733333D01*
X143009523Y-87780952D01*
X142961904Y-87828571D01*
X142914285Y-87923809D01*
%TO.C,R8*%
X158533333Y-88352380D02*
X158200000Y-87876190D01*
X157961904Y-88352380D02*
X157961904Y-87352380D01*
X158342857Y-87352380D01*
X158438095Y-87400000D01*
X158485714Y-87447619D01*
X158533333Y-87542857D01*
X158533333Y-87685714D01*
X158485714Y-87780952D01*
X158438095Y-87828571D01*
X158342857Y-87876190D01*
X157961904Y-87876190D01*
X159104761Y-87780952D02*
X159009523Y-87733333D01*
X158961904Y-87685714D01*
X158914285Y-87590476D01*
X158914285Y-87542857D01*
X158961904Y-87447619D01*
X159009523Y-87400000D01*
X159104761Y-87352380D01*
X159295238Y-87352380D01*
X159390476Y-87400000D01*
X159438095Y-87447619D01*
X159485714Y-87542857D01*
X159485714Y-87590476D01*
X159438095Y-87685714D01*
X159390476Y-87733333D01*
X159295238Y-87780952D01*
X159104761Y-87780952D01*
X159009523Y-87828571D01*
X158961904Y-87876190D01*
X158914285Y-87971428D01*
X158914285Y-88161904D01*
X158961904Y-88257142D01*
X159009523Y-88304761D01*
X159104761Y-88352380D01*
X159295238Y-88352380D01*
X159390476Y-88304761D01*
X159438095Y-88257142D01*
X159485714Y-88161904D01*
X159485714Y-87971428D01*
X159438095Y-87876190D01*
X159390476Y-87828571D01*
X159295238Y-87780952D01*
D14*
%TO.C,R/O-Board_I2C_Interface*%
X144440000Y-47925000D02*
X144440000Y-46925000D01*
X145135000Y-40015000D02*
X145135000Y-47625000D01*
X145135000Y-55985000D02*
X145135000Y-50425000D01*
X145180000Y-55985000D02*
X161865000Y-55985000D01*
X145180000Y-40015000D02*
X161820000Y-40015000D01*
X144940000Y-47425000D02*
X144440000Y-47925000D01*
X161865000Y-40015000D02*
X161865000Y-47625000D01*
X144440000Y-46925000D02*
X144940000Y-47425000D01*
X161865000Y-55985000D02*
X161865000Y-50425000D01*
%TO.C,J1*%
X149330000Y-76930000D02*
X154470000Y-76930000D01*
X148060000Y-76930000D02*
X146730000Y-76930000D01*
X149330000Y-74270000D02*
X154470000Y-74270000D01*
X146730000Y-76930000D02*
X146730000Y-75600000D01*
X149330000Y-76930000D02*
X149330000Y-74270000D01*
X154470000Y-76930000D02*
X154470000Y-74270000D01*
%TO.C,NTC6-Pin1*%
X148170000Y-91855000D02*
X148170000Y-90525000D01*
X150770000Y-91855000D02*
X150770000Y-89195000D01*
X150770000Y-91855000D02*
X153370000Y-91855000D01*
X149500000Y-91855000D02*
X148170000Y-91855000D01*
X153370000Y-91855000D02*
X153370000Y-89195000D01*
X150770000Y-89195000D02*
X153370000Y-89195000D01*
%TO.C,I2C-Pins*%
X158310000Y-62470000D02*
X158310000Y-63800000D01*
X155710000Y-65130000D02*
X148030000Y-65130000D01*
X156980000Y-62470000D02*
X158310000Y-62470000D01*
X155710000Y-62470000D02*
X155710000Y-65130000D01*
X148030000Y-62470000D02*
X148030000Y-65130000D01*
X155710000Y-62470000D02*
X148030000Y-62470000D01*
%TO.C,Freq_PinHeader*%
X160070000Y-73070000D02*
X160070000Y-70470000D01*
X162730000Y-73070000D02*
X162730000Y-70470000D01*
X162730000Y-73070000D02*
X160070000Y-73070000D01*
X162730000Y-70470000D02*
X160070000Y-70470000D01*
X162730000Y-74340000D02*
X162730000Y-75670000D01*
X162730000Y-75670000D02*
X161400000Y-75670000D01*
%TO.C,ArdTopPins1*%
X135013000Y-48420000D02*
X99393000Y-48420000D01*
X135013000Y-48420000D02*
X135013000Y-51080000D01*
X99393000Y-48420000D02*
X99393000Y-51080000D01*
X135013000Y-51080000D02*
X99393000Y-51080000D01*
X136283000Y-48420000D02*
X137613000Y-48420000D01*
X137613000Y-48420000D02*
X137613000Y-49750000D01*
%TO.C,NTC6*%
X146000000Y-102715000D02*
X146810000Y-102715000D01*
X144300000Y-99615000D02*
X144300000Y-98335000D01*
X146600000Y-101425000D02*
X146600000Y-102025000D01*
X141190000Y-102715000D02*
X141190000Y-115735000D01*
X142000000Y-102715000D02*
X141190000Y-102715000D01*
X143700000Y-99615000D02*
X143700000Y-98335000D01*
X146810000Y-115735000D02*
X144000000Y-115735000D01*
X146600000Y-102025000D02*
X146000000Y-101725000D01*
X141190000Y-115735000D02*
X144000000Y-115735000D01*
X146810000Y-102715000D02*
X146810000Y-115735000D01*
X146000000Y-101725000D02*
X146600000Y-101425000D01*
D15*
%TO.C,J2*%
X173500000Y-76000000D02*
X173500000Y-69000000D01*
X166500000Y-76000000D02*
X173500000Y-76000000D01*
X166500000Y-76000000D02*
X166500000Y-69000000D01*
X166500000Y-69000000D02*
X173500000Y-69000000D01*
D14*
%TO.C,NTC7-Pin1*%
X158730000Y-91855000D02*
X158730000Y-89195000D01*
X158730000Y-91855000D02*
X161330000Y-91855000D01*
X156130000Y-91855000D02*
X156130000Y-90525000D01*
X161330000Y-91855000D02*
X161330000Y-89195000D01*
X157460000Y-91855000D02*
X156130000Y-91855000D01*
X158730000Y-89195000D02*
X161330000Y-89195000D01*
D12*
%TO.C,XA1*%
X95430000Y-60264000D02*
X95430000Y-68392000D01*
X96880000Y-55438000D02*
X96880000Y-73218000D01*
X95430000Y-68392000D02*
X96880000Y-68392000D01*
X140060000Y-55438000D02*
X140060000Y-73218000D01*
X140060000Y-73218000D02*
X96880000Y-73218000D01*
X96880000Y-60264000D02*
X95430000Y-60264000D01*
X140060000Y-55438000D02*
X96880000Y-55438000D01*
D14*
%TO.C,NTC1*%
X106810000Y-102740000D02*
X106810000Y-115760000D01*
X101190000Y-102740000D02*
X101190000Y-115760000D01*
X106600000Y-101450000D02*
X106600000Y-102050000D01*
X106000000Y-102740000D02*
X106810000Y-102740000D01*
X103700000Y-99640000D02*
X103700000Y-98360000D01*
X106000000Y-101750000D02*
X106600000Y-101450000D01*
X106810000Y-115760000D02*
X104000000Y-115760000D01*
X101190000Y-115760000D02*
X104000000Y-115760000D01*
X106600000Y-102050000D02*
X106000000Y-101750000D01*
X104300000Y-99640000D02*
X104300000Y-98360000D01*
X102000000Y-102740000D02*
X101190000Y-102740000D01*
%TO.C,NTC3-Pin1*%
X126730000Y-89195000D02*
X129330000Y-89195000D01*
X126730000Y-91855000D02*
X129330000Y-91855000D01*
X125460000Y-91855000D02*
X124130000Y-91855000D01*
X126730000Y-91855000D02*
X126730000Y-89195000D01*
X124130000Y-91855000D02*
X124130000Y-90525000D01*
X129330000Y-91855000D02*
X129330000Y-89195000D01*
%TO.C,NTC7*%
X154810000Y-115760000D02*
X152000000Y-115760000D01*
X154000000Y-101750000D02*
X154600000Y-101450000D01*
X149190000Y-102740000D02*
X149190000Y-115760000D01*
X154000000Y-102740000D02*
X154810000Y-102740000D01*
X149190000Y-115760000D02*
X152000000Y-115760000D01*
X152300000Y-99640000D02*
X152300000Y-98360000D01*
X154600000Y-102050000D02*
X154000000Y-101750000D01*
X150000000Y-102740000D02*
X149190000Y-102740000D01*
X151700000Y-99640000D02*
X151700000Y-98360000D01*
X154600000Y-101450000D02*
X154600000Y-102050000D01*
X154810000Y-102740000D02*
X154810000Y-115760000D01*
%TO.C,NTC5*%
X136300000Y-99615000D02*
X136300000Y-98335000D01*
X138600000Y-101425000D02*
X138600000Y-102025000D01*
X133190000Y-115735000D02*
X136000000Y-115735000D01*
X135700000Y-99615000D02*
X135700000Y-98335000D01*
X138000000Y-101725000D02*
X138600000Y-101425000D01*
X133190000Y-102715000D02*
X133190000Y-115735000D01*
X138600000Y-102025000D02*
X138000000Y-101725000D01*
X138810000Y-102715000D02*
X138810000Y-115735000D01*
X138000000Y-102715000D02*
X138810000Y-102715000D01*
X134000000Y-102715000D02*
X133190000Y-102715000D01*
X138810000Y-115735000D02*
X136000000Y-115735000D01*
%TO.C,NTC3*%
X122810000Y-115760000D02*
X120000000Y-115760000D01*
X117190000Y-102740000D02*
X117190000Y-115760000D01*
X122000000Y-102740000D02*
X122810000Y-102740000D01*
X120300000Y-99640000D02*
X120300000Y-98360000D01*
X122600000Y-101450000D02*
X122600000Y-102050000D01*
X122600000Y-102050000D02*
X122000000Y-101750000D01*
X122000000Y-101750000D02*
X122600000Y-101450000D01*
X119700000Y-99640000D02*
X119700000Y-98360000D01*
X117190000Y-115760000D02*
X120000000Y-115760000D01*
X118000000Y-102740000D02*
X117190000Y-102740000D01*
X122810000Y-102740000D02*
X122810000Y-115760000D01*
%TO.C,NTC4*%
X130810000Y-102715000D02*
X130810000Y-115735000D01*
X130600000Y-101425000D02*
X130600000Y-102025000D01*
X130000000Y-102715000D02*
X130810000Y-102715000D01*
X127700000Y-99615000D02*
X127700000Y-98335000D01*
X130600000Y-102025000D02*
X130000000Y-101725000D01*
X125190000Y-115735000D02*
X128000000Y-115735000D01*
X130000000Y-101725000D02*
X130600000Y-101425000D01*
X126000000Y-102715000D02*
X125190000Y-102715000D01*
X125190000Y-102715000D02*
X125190000Y-115735000D01*
X128300000Y-99615000D02*
X128300000Y-98335000D01*
X130810000Y-115735000D02*
X128000000Y-115735000D01*
%TO.C,NTC8*%
X162810000Y-115735000D02*
X160000000Y-115735000D01*
X162810000Y-102715000D02*
X162810000Y-115735000D01*
X162600000Y-102025000D02*
X162000000Y-101725000D01*
X157190000Y-115735000D02*
X160000000Y-115735000D01*
X162000000Y-102715000D02*
X162810000Y-102715000D01*
X162000000Y-101725000D02*
X162600000Y-101425000D01*
X160300000Y-99615000D02*
X160300000Y-98335000D01*
X159700000Y-99615000D02*
X159700000Y-98335000D01*
X162600000Y-101425000D02*
X162600000Y-102025000D01*
X157190000Y-102715000D02*
X157190000Y-115735000D01*
X158000000Y-102715000D02*
X157190000Y-102715000D01*
%TO.C,NTC2*%
X114810000Y-115735000D02*
X112000000Y-115735000D01*
X112300000Y-99615000D02*
X112300000Y-98335000D01*
X114000000Y-101725000D02*
X114600000Y-101425000D01*
X114600000Y-102025000D02*
X114000000Y-101725000D01*
X110000000Y-102715000D02*
X109190000Y-102715000D01*
X109190000Y-115735000D02*
X112000000Y-115735000D01*
X114810000Y-102715000D02*
X114810000Y-115735000D01*
X114000000Y-102715000D02*
X114810000Y-102715000D01*
X114600000Y-101425000D02*
X114600000Y-102025000D01*
X109190000Y-102715000D02*
X109190000Y-115735000D01*
X111700000Y-99615000D02*
X111700000Y-98335000D01*
%TO.C,NTC5-Pin1*%
X142770000Y-89195000D02*
X145370000Y-89195000D01*
X140170000Y-91855000D02*
X140170000Y-90525000D01*
X145370000Y-91855000D02*
X145370000Y-89195000D01*
X141500000Y-91855000D02*
X140170000Y-91855000D01*
X142770000Y-91855000D02*
X142770000Y-89195000D01*
X142770000Y-91855000D02*
X145370000Y-91855000D01*
%TO.C,NTC0-Pin1*%
X101460000Y-91855000D02*
X100130000Y-91855000D01*
X102730000Y-91855000D02*
X105330000Y-91855000D01*
X102730000Y-91855000D02*
X102730000Y-89195000D01*
X105330000Y-91855000D02*
X105330000Y-89195000D01*
X100130000Y-91855000D02*
X100130000Y-90525000D01*
X102730000Y-89195000D02*
X105330000Y-89195000D01*
%TO.C,NTC4-Pin1*%
X133460000Y-91855000D02*
X132130000Y-91855000D01*
X134730000Y-89195000D02*
X137330000Y-89195000D01*
X134730000Y-91855000D02*
X134730000Y-89195000D01*
X137330000Y-91855000D02*
X137330000Y-89195000D01*
X132130000Y-91855000D02*
X132130000Y-90525000D01*
X134730000Y-91855000D02*
X137330000Y-91855000D01*
%TO.C,NTC1-Pin1*%
X113330000Y-91855000D02*
X113330000Y-89195000D01*
X109460000Y-91855000D02*
X108130000Y-91855000D01*
X110730000Y-89195000D02*
X113330000Y-89195000D01*
X108130000Y-91855000D02*
X108130000Y-90525000D01*
X110730000Y-91855000D02*
X113330000Y-91855000D01*
X110730000Y-91855000D02*
X110730000Y-89195000D01*
%TO.C,ArdNanoBotPins1*%
X101940000Y-77670000D02*
X137560000Y-77670000D01*
X101940000Y-80330000D02*
X101940000Y-77670000D01*
X137560000Y-80330000D02*
X137560000Y-77670000D01*
X99340000Y-80330000D02*
X99340000Y-79000000D01*
X100670000Y-80330000D02*
X99340000Y-80330000D01*
X101940000Y-80330000D02*
X137560000Y-80330000D01*
%TO.C,NTC2-Pin1*%
X118730000Y-91855000D02*
X121330000Y-91855000D01*
X121330000Y-91855000D02*
X121330000Y-89195000D01*
X118730000Y-91855000D02*
X118730000Y-89195000D01*
X116130000Y-91855000D02*
X116130000Y-90525000D01*
X118730000Y-89195000D02*
X121330000Y-89195000D01*
X117460000Y-91855000D02*
X116130000Y-91855000D01*
%TD*%
M02*
