%TF.GenerationSoftware,KiCad,Pcbnew,(6.0.1-0)*%
%TF.CreationDate,2022-11-29T12:21:40+01:00*%
%TF.ProjectId,nano_board,6e616e6f-5f62-46f6-9172-642e6b696361,rev?*%
%TF.SameCoordinates,Original*%
%TF.FileFunction,Soldermask,Bot*%
%TF.FilePolarity,Negative*%
%FSLAX46Y46*%
G04 Gerber Fmt 4.6, Leading zero omitted, Abs format (unit mm)*
G04 Created by KiCad (PCBNEW (6.0.1-0)) date 2022-11-29 12:21:40*
%MOMM*%
%LPD*%
G01*
G04 APERTURE LIST*
G04 Aperture macros list*
%AMRoundRect*
0 Rectangle with rounded corners*
0 $1 Rounding radius*
0 $2 $3 $4 $5 $6 $7 $8 $9 X,Y pos of 4 corners*
0 Add a 4 corners polygon primitive as box body*
4,1,4,$2,$3,$4,$5,$6,$7,$8,$9,$2,$3,0*
0 Add four circle primitives for the rounded corners*
1,1,$1+$1,$2,$3*
1,1,$1+$1,$4,$5*
1,1,$1+$1,$6,$7*
1,1,$1+$1,$8,$9*
0 Add four rect primitives between the rounded corners*
20,1,$1+$1,$2,$3,$4,$5,0*
20,1,$1+$1,$4,$5,$6,$7,0*
20,1,$1+$1,$6,$7,$8,$9,0*
20,1,$1+$1,$8,$9,$2,$3,0*%
G04 Aperture macros list end*
%ADD10C,4.300000*%
%ADD11R,1.700000X1.700000*%
%ADD12O,1.700000X1.700000*%
%ADD13C,3.250000*%
%ADD14R,1.500000X1.500000*%
%ADD15C,1.500000*%
%ADD16C,2.300000*%
%ADD17C,3.000000*%
%ADD18RoundRect,0.250001X1.099999X1.599999X-1.099999X1.599999X-1.099999X-1.599999X1.099999X-1.599999X0*%
%ADD19O,2.700000X3.700000*%
%ADD20C,1.300000*%
%ADD21C,1.850000*%
%ADD22C,1.727200*%
%ADD23R,1.727200X1.727200*%
%ADD24RoundRect,0.200000X0.275000X-0.200000X0.275000X0.200000X-0.275000X0.200000X-0.275000X-0.200000X0*%
G04 APERTURE END LIST*
D10*
%TO.C,REF\u002A\u002A*%
X94750000Y-110000000D03*
%TD*%
D11*
%TO.C,NTC6-Pin0*%
X149500000Y-90525000D03*
D12*
X152040000Y-90525000D03*
%TD*%
D13*
%TO.C,J0*%
X147150000Y-45600000D03*
X159850000Y-45600000D03*
D14*
X149940000Y-48140000D03*
D15*
X150956000Y-49920000D03*
X151972000Y-48140000D03*
X152988000Y-49920000D03*
X154004000Y-48140000D03*
X155020000Y-49920000D03*
X156036000Y-48140000D03*
X157052000Y-49920000D03*
D16*
X145370000Y-49030000D03*
X161630000Y-49030000D03*
%TD*%
D11*
%TO.C,I2C-Pins0*%
X156980000Y-62600000D03*
D12*
X154440000Y-62600000D03*
X151900000Y-62600000D03*
X149360000Y-62600000D03*
%TD*%
D11*
%TO.C,Freq_Pins0*%
X169700000Y-69760000D03*
D12*
X169700000Y-72300000D03*
%TD*%
D11*
%TO.C,ArdTopPins0*%
X136283000Y-49750000D03*
D12*
X133743000Y-49750000D03*
X131203000Y-49750000D03*
X128663000Y-49750000D03*
X126123000Y-49750000D03*
X123583000Y-49750000D03*
X121043000Y-49750000D03*
X118503000Y-49750000D03*
X115963000Y-49750000D03*
X113423000Y-49750000D03*
X110883000Y-49750000D03*
X108343000Y-49750000D03*
X105803000Y-49750000D03*
X103263000Y-49750000D03*
X100723000Y-49750000D03*
%TD*%
D17*
%TO.C,NTC5*%
X144000000Y-109025000D03*
D18*
X144000000Y-101725000D03*
D19*
X144000000Y-96225000D03*
%TD*%
D20*
%TO.C,J2*%
X169710000Y-82060000D03*
X172250000Y-79520000D03*
X167170000Y-79520000D03*
X167170000Y-84600000D03*
X172250000Y-84600000D03*
%TD*%
D11*
%TO.C,NTC7-Pin0*%
X157460000Y-90525000D03*
D12*
X160000000Y-90525000D03*
%TD*%
D21*
%TO.C,XA0*%
X98150000Y-56708000D03*
X138790000Y-56708000D03*
X138790000Y-71948000D03*
X98150000Y-71948000D03*
D22*
X103230000Y-71948000D03*
X128630000Y-71948000D03*
X108310000Y-71948000D03*
X110850000Y-71948000D03*
X113390000Y-71948000D03*
X115930000Y-71948000D03*
X118470000Y-71948000D03*
X121010000Y-71948000D03*
X123550000Y-71948000D03*
X126090000Y-71948000D03*
X105770000Y-71948000D03*
X133710000Y-56708000D03*
D23*
X136250000Y-56708000D03*
D22*
X126090000Y-56708000D03*
X123550000Y-56708000D03*
X121010000Y-56708000D03*
X118470000Y-56708000D03*
X115930000Y-56708000D03*
X113390000Y-56708000D03*
X110850000Y-56708000D03*
X108310000Y-56708000D03*
X105770000Y-56708000D03*
X103230000Y-56708000D03*
X100690000Y-56708000D03*
X100690000Y-71948000D03*
X128630000Y-56708000D03*
X133710000Y-71948000D03*
X131170000Y-56708000D03*
X131170000Y-71948000D03*
X136250000Y-71948000D03*
%TD*%
D17*
%TO.C,NTC0*%
X104000000Y-109050000D03*
D18*
X104000000Y-101750000D03*
D19*
X104000000Y-96250000D03*
%TD*%
D10*
%TO.C,REF\u002A\u002A*%
X94750000Y-45750000D03*
%TD*%
D11*
%TO.C,NTC3-Pin0*%
X125460000Y-90525000D03*
D12*
X128000000Y-90525000D03*
%TD*%
D11*
%TO.C,J1*%
X148825000Y-76505000D03*
D12*
X148825000Y-73965000D03*
X151365000Y-76505000D03*
X151365000Y-73965000D03*
X153905000Y-76505000D03*
X153905000Y-73965000D03*
X156445000Y-76505000D03*
X156445000Y-73965000D03*
X158985000Y-76505000D03*
X158985000Y-73965000D03*
%TD*%
D17*
%TO.C,NTC6*%
X152000000Y-109050000D03*
D18*
X152000000Y-101750000D03*
D19*
X152000000Y-96250000D03*
%TD*%
D10*
%TO.C,REF\u002A\u002A*%
X169250000Y-45750000D03*
%TD*%
%TO.C,REF\u002A\u002A*%
X169250000Y-110000000D03*
%TD*%
D17*
%TO.C,NTC4*%
X136000000Y-109025000D03*
D18*
X136000000Y-101725000D03*
D19*
X136000000Y-96225000D03*
%TD*%
D17*
%TO.C,NTC2*%
X120000000Y-109050000D03*
D18*
X120000000Y-101750000D03*
D19*
X120000000Y-96250000D03*
%TD*%
D17*
%TO.C,NTC3*%
X128000000Y-109025000D03*
D18*
X128000000Y-101725000D03*
D19*
X128000000Y-96225000D03*
%TD*%
D17*
%TO.C,NTC7*%
X160000000Y-109025000D03*
D18*
X160000000Y-101725000D03*
D19*
X160000000Y-96225000D03*
%TD*%
D17*
%TO.C,NTC1*%
X112000000Y-109025000D03*
D18*
X112000000Y-101725000D03*
D19*
X112000000Y-96225000D03*
%TD*%
D11*
%TO.C,NTC5-Pin0*%
X141500000Y-90525000D03*
D12*
X144040000Y-90525000D03*
%TD*%
D11*
%TO.C,NTC0-Pin0*%
X101460000Y-90525000D03*
D12*
X104000000Y-90525000D03*
%TD*%
D11*
%TO.C,NTC4-Pin0*%
X133460000Y-90525000D03*
D12*
X136000000Y-90525000D03*
%TD*%
D11*
%TO.C,NTC1-Pin0*%
X109460000Y-90525000D03*
D12*
X112000000Y-90525000D03*
%TD*%
D11*
%TO.C,ArdNanoBotPins0*%
X100670000Y-79000000D03*
D12*
X103210000Y-79000000D03*
X105750000Y-79000000D03*
X108290000Y-79000000D03*
X110830000Y-79000000D03*
X113370000Y-79000000D03*
X115910000Y-79000000D03*
X118450000Y-79000000D03*
X120990000Y-79000000D03*
X123530000Y-79000000D03*
X126070000Y-79000000D03*
X128610000Y-79000000D03*
X131150000Y-79000000D03*
X133690000Y-79000000D03*
X136230000Y-79000000D03*
%TD*%
D11*
%TO.C,NTC2-Pin0*%
X117460000Y-90525000D03*
D12*
X120000000Y-90525000D03*
%TD*%
D24*
%TO.C,R_Pullup0*%
X151900000Y-67500000D03*
X151900000Y-65850000D03*
%TD*%
%TO.C,R_Pullup1*%
X154450000Y-67450000D03*
X154450000Y-65800000D03*
%TD*%
M02*
