%TF.GenerationSoftware,KiCad,Pcbnew,(6.0.1-0)*%
%TF.CreationDate,2023-04-20T23:15:09+02:00*%
%TF.ProjectId,nano_board,6e616e6f-5f62-46f6-9172-642e6b696361,rev?*%
%TF.SameCoordinates,Original*%
%TF.FileFunction,Legend,Bot*%
%TF.FilePolarity,Positive*%
%FSLAX46Y46*%
G04 Gerber Fmt 4.6, Leading zero omitted, Abs format (unit mm)*
G04 Created by KiCad (PCBNEW (6.0.1-0)) date 2023-04-20 23:15:09*
%MOMM*%
%LPD*%
G01*
G04 APERTURE LIST*
%ADD10C,0.150000*%
%ADD11C,0.120000*%
G04 APERTURE END LIST*
D10*
X166695238Y-66222380D02*
X166695238Y-65222380D01*
X166266666Y-65317619D02*
X166219047Y-65270000D01*
X166123809Y-65222380D01*
X165885714Y-65222380D01*
X165790476Y-65270000D01*
X165742857Y-65317619D01*
X165695238Y-65412857D01*
X165695238Y-65508095D01*
X165742857Y-65650952D01*
X166314285Y-66222380D01*
X165695238Y-66222380D01*
X164695238Y-66127142D02*
X164742857Y-66174761D01*
X164885714Y-66222380D01*
X164980952Y-66222380D01*
X165123809Y-66174761D01*
X165219047Y-66079523D01*
X165266666Y-65984285D01*
X165314285Y-65793809D01*
X165314285Y-65650952D01*
X165266666Y-65460476D01*
X165219047Y-65365238D01*
X165123809Y-65270000D01*
X164980952Y-65222380D01*
X164885714Y-65222380D01*
X164742857Y-65270000D01*
X164695238Y-65317619D01*
X164266666Y-65841428D02*
X163504761Y-65841428D01*
X163028571Y-66222380D02*
X163028571Y-65222380D01*
X162647619Y-65222380D01*
X162552380Y-65270000D01*
X162504761Y-65317619D01*
X162457142Y-65412857D01*
X162457142Y-65555714D01*
X162504761Y-65650952D01*
X162552380Y-65698571D01*
X162647619Y-65746190D01*
X163028571Y-65746190D01*
X161600000Y-65555714D02*
X161600000Y-66222380D01*
X162028571Y-65555714D02*
X162028571Y-66079523D01*
X161980952Y-66174761D01*
X161885714Y-66222380D01*
X161742857Y-66222380D01*
X161647619Y-66174761D01*
X161600000Y-66127142D01*
X160980952Y-66222380D02*
X161076190Y-66174761D01*
X161123809Y-66079523D01*
X161123809Y-65222380D01*
X160457142Y-66222380D02*
X160552380Y-66174761D01*
X160600000Y-66079523D01*
X160600000Y-65222380D01*
X159647619Y-65555714D02*
X159647619Y-66222380D01*
X160076190Y-65555714D02*
X160076190Y-66079523D01*
X160028571Y-66174761D01*
X159933333Y-66222380D01*
X159790476Y-66222380D01*
X159695238Y-66174761D01*
X159647619Y-66127142D01*
X159171428Y-65555714D02*
X159171428Y-66555714D01*
X159171428Y-65603333D02*
X159076190Y-65555714D01*
X158885714Y-65555714D01*
X158790476Y-65603333D01*
X158742857Y-65650952D01*
X158695238Y-65746190D01*
X158695238Y-66031904D01*
X158742857Y-66127142D01*
X158790476Y-66174761D01*
X158885714Y-66222380D01*
X159076190Y-66222380D01*
X159171428Y-66174761D01*
X158266666Y-65841428D02*
X157504761Y-65841428D01*
X164719047Y-67832380D02*
X165052380Y-67356190D01*
X165290476Y-67832380D02*
X165290476Y-66832380D01*
X164909523Y-66832380D01*
X164814285Y-66880000D01*
X164766666Y-66927619D01*
X164719047Y-67022857D01*
X164719047Y-67165714D01*
X164766666Y-67260952D01*
X164814285Y-67308571D01*
X164909523Y-67356190D01*
X165290476Y-67356190D01*
X163909523Y-67784761D02*
X164004761Y-67832380D01*
X164195238Y-67832380D01*
X164290476Y-67784761D01*
X164338095Y-67689523D01*
X164338095Y-67308571D01*
X164290476Y-67213333D01*
X164195238Y-67165714D01*
X164004761Y-67165714D01*
X163909523Y-67213333D01*
X163861904Y-67308571D01*
X163861904Y-67403809D01*
X164338095Y-67499047D01*
X163480952Y-67784761D02*
X163385714Y-67832380D01*
X163195238Y-67832380D01*
X163100000Y-67784761D01*
X163052380Y-67689523D01*
X163052380Y-67641904D01*
X163100000Y-67546666D01*
X163195238Y-67499047D01*
X163338095Y-67499047D01*
X163433333Y-67451428D01*
X163480952Y-67356190D01*
X163480952Y-67308571D01*
X163433333Y-67213333D01*
X163338095Y-67165714D01*
X163195238Y-67165714D01*
X163100000Y-67213333D01*
X162623809Y-67832380D02*
X162623809Y-67165714D01*
X162623809Y-66832380D02*
X162671428Y-66880000D01*
X162623809Y-66927619D01*
X162576190Y-66880000D01*
X162623809Y-66832380D01*
X162623809Y-66927619D01*
X162195238Y-67784761D02*
X162100000Y-67832380D01*
X161909523Y-67832380D01*
X161814285Y-67784761D01*
X161766666Y-67689523D01*
X161766666Y-67641904D01*
X161814285Y-67546666D01*
X161909523Y-67499047D01*
X162052380Y-67499047D01*
X162147619Y-67451428D01*
X162195238Y-67356190D01*
X162195238Y-67308571D01*
X162147619Y-67213333D01*
X162052380Y-67165714D01*
X161909523Y-67165714D01*
X161814285Y-67213333D01*
X161480952Y-67165714D02*
X161100000Y-67165714D01*
X161338095Y-66832380D02*
X161338095Y-67689523D01*
X161290476Y-67784761D01*
X161195238Y-67832380D01*
X161100000Y-67832380D01*
X160623809Y-67832380D02*
X160719047Y-67784761D01*
X160766666Y-67737142D01*
X160814285Y-67641904D01*
X160814285Y-67356190D01*
X160766666Y-67260952D01*
X160719047Y-67213333D01*
X160623809Y-67165714D01*
X160480952Y-67165714D01*
X160385714Y-67213333D01*
X160338095Y-67260952D01*
X160290476Y-67356190D01*
X160290476Y-67641904D01*
X160338095Y-67737142D01*
X160385714Y-67784761D01*
X160480952Y-67832380D01*
X160623809Y-67832380D01*
X159861904Y-67832380D02*
X159861904Y-67165714D01*
X159861904Y-67356190D02*
X159814285Y-67260952D01*
X159766666Y-67213333D01*
X159671428Y-67165714D01*
X159576190Y-67165714D01*
X159290476Y-67784761D02*
X159195238Y-67832380D01*
X159004761Y-67832380D01*
X158909523Y-67784761D01*
X158861904Y-67689523D01*
X158861904Y-67641904D01*
X158909523Y-67546666D01*
X159004761Y-67499047D01*
X159147619Y-67499047D01*
X159242857Y-67451428D01*
X159290476Y-67356190D01*
X159290476Y-67308571D01*
X159242857Y-67213333D01*
X159147619Y-67165714D01*
X159004761Y-67165714D01*
X158909523Y-67213333D01*
%TO.C,R_Pullup0*%
X150752380Y-65954761D02*
X150752380Y-65383333D01*
X150752380Y-65669047D02*
X149752380Y-65669047D01*
X149895238Y-65573809D01*
X149990476Y-65478571D01*
X150038095Y-65383333D01*
X149752380Y-66573809D02*
X149752380Y-66669047D01*
X149800000Y-66764285D01*
X149847619Y-66811904D01*
X149942857Y-66859523D01*
X150133333Y-66907142D01*
X150371428Y-66907142D01*
X150561904Y-66859523D01*
X150657142Y-66811904D01*
X150704761Y-66764285D01*
X150752380Y-66669047D01*
X150752380Y-66573809D01*
X150704761Y-66478571D01*
X150657142Y-66430952D01*
X150561904Y-66383333D01*
X150371428Y-66335714D01*
X150133333Y-66335714D01*
X149942857Y-66383333D01*
X149847619Y-66430952D01*
X149800000Y-66478571D01*
X149752380Y-66573809D01*
X150752380Y-67335714D02*
X149752380Y-67335714D01*
X150371428Y-67430952D02*
X150752380Y-67716666D01*
X150085714Y-67716666D02*
X150466666Y-67335714D01*
%TO.C,R_Pullup1*%
X156552380Y-66104761D02*
X156552380Y-65533333D01*
X156552380Y-65819047D02*
X155552380Y-65819047D01*
X155695238Y-65723809D01*
X155790476Y-65628571D01*
X155838095Y-65533333D01*
X155552380Y-66723809D02*
X155552380Y-66819047D01*
X155600000Y-66914285D01*
X155647619Y-66961904D01*
X155742857Y-67009523D01*
X155933333Y-67057142D01*
X156171428Y-67057142D01*
X156361904Y-67009523D01*
X156457142Y-66961904D01*
X156504761Y-66914285D01*
X156552380Y-66819047D01*
X156552380Y-66723809D01*
X156504761Y-66628571D01*
X156457142Y-66580952D01*
X156361904Y-66533333D01*
X156171428Y-66485714D01*
X155933333Y-66485714D01*
X155742857Y-66533333D01*
X155647619Y-66580952D01*
X155600000Y-66628571D01*
X155552380Y-66723809D01*
X156552380Y-67485714D02*
X155552380Y-67485714D01*
X156171428Y-67580952D02*
X156552380Y-67866666D01*
X155885714Y-67866666D02*
X156266666Y-67485714D01*
D11*
%TO.C,R_Pullup0*%
X151377500Y-66912258D02*
X151377500Y-66437742D01*
X152422500Y-66912258D02*
X152422500Y-66437742D01*
%TO.C,R_Pullup1*%
X154972500Y-66862258D02*
X154972500Y-66387742D01*
X153927500Y-66862258D02*
X153927500Y-66387742D01*
%TD*%
M02*
