%TF.GenerationSoftware,KiCad,Pcbnew,(6.0.1-0)*%
%TF.CreationDate,2023-04-20T23:15:08+02:00*%
%TF.ProjectId,nano_board,6e616e6f-5f62-46f6-9172-642e6b696361,rev?*%
%TF.SameCoordinates,Original*%
%TF.FileFunction,Legend,Top*%
%TF.FilePolarity,Positive*%
%FSLAX46Y46*%
G04 Gerber Fmt 4.6, Leading zero omitted, Abs format (unit mm)*
G04 Created by KiCad (PCBNEW (6.0.1-0)) date 2023-04-20 23:15:08*
%MOMM*%
%LPD*%
G01*
G04 APERTURE LIST*
%ADD10C,0.100000*%
%ADD11C,0.200000*%
%ADD12C,0.150000*%
%ADD13C,0.075000*%
%ADD14C,0.120000*%
%ADD15C,0.127000*%
G04 APERTURE END LIST*
D10*
X161700000Y-60621428D02*
X161700000Y-60021428D01*
X161928571Y-60021428D01*
X161985714Y-60050000D01*
X162014285Y-60078571D01*
X162042857Y-60135714D01*
X162042857Y-60221428D01*
X162014285Y-60278571D01*
X161985714Y-60307142D01*
X161928571Y-60335714D01*
X161700000Y-60335714D01*
X162300000Y-60621428D02*
X162300000Y-60021428D01*
X162585714Y-60621428D02*
X162585714Y-60021428D01*
X162928571Y-60621428D01*
X162928571Y-60021428D01*
X163300000Y-60278571D02*
X163242857Y-60250000D01*
X163214285Y-60221428D01*
X163185714Y-60164285D01*
X163185714Y-60135714D01*
X163214285Y-60078571D01*
X163242857Y-60050000D01*
X163300000Y-60021428D01*
X163414285Y-60021428D01*
X163471428Y-60050000D01*
X163500000Y-60078571D01*
X163528571Y-60135714D01*
X163528571Y-60164285D01*
X163500000Y-60221428D01*
X163471428Y-60250000D01*
X163414285Y-60278571D01*
X163300000Y-60278571D01*
X163242857Y-60307142D01*
X163214285Y-60335714D01*
X163185714Y-60392857D01*
X163185714Y-60507142D01*
X163214285Y-60564285D01*
X163242857Y-60592857D01*
X163300000Y-60621428D01*
X163414285Y-60621428D01*
X163471428Y-60592857D01*
X163500000Y-60564285D01*
X163528571Y-60507142D01*
X163528571Y-60392857D01*
X163500000Y-60335714D01*
X163471428Y-60307142D01*
X163414285Y-60278571D01*
X159150000Y-60571428D02*
X159150000Y-59971428D01*
X159378571Y-59971428D01*
X159435714Y-60000000D01*
X159464285Y-60028571D01*
X159492857Y-60085714D01*
X159492857Y-60171428D01*
X159464285Y-60228571D01*
X159435714Y-60257142D01*
X159378571Y-60285714D01*
X159150000Y-60285714D01*
X159750000Y-60571428D02*
X159750000Y-59971428D01*
X160035714Y-60571428D02*
X160035714Y-59971428D01*
X160378571Y-60571428D01*
X160378571Y-59971428D01*
X160607142Y-59971428D02*
X161007142Y-59971428D01*
X160750000Y-60571428D01*
X154050000Y-60571428D02*
X154050000Y-59971428D01*
X154278571Y-59971428D01*
X154335714Y-60000000D01*
X154364285Y-60028571D01*
X154392857Y-60085714D01*
X154392857Y-60171428D01*
X154364285Y-60228571D01*
X154335714Y-60257142D01*
X154278571Y-60285714D01*
X154050000Y-60285714D01*
X154650000Y-60571428D02*
X154650000Y-59971428D01*
X154935714Y-60571428D02*
X154935714Y-59971428D01*
X155278571Y-60571428D01*
X155278571Y-59971428D01*
X155850000Y-59971428D02*
X155564285Y-59971428D01*
X155535714Y-60257142D01*
X155564285Y-60228571D01*
X155621428Y-60200000D01*
X155764285Y-60200000D01*
X155821428Y-60228571D01*
X155850000Y-60257142D01*
X155878571Y-60314285D01*
X155878571Y-60457142D01*
X155850000Y-60514285D01*
X155821428Y-60542857D01*
X155764285Y-60571428D01*
X155621428Y-60571428D01*
X155564285Y-60542857D01*
X155535714Y-60514285D01*
X151550000Y-60571428D02*
X151550000Y-59971428D01*
X151778571Y-59971428D01*
X151835714Y-60000000D01*
X151864285Y-60028571D01*
X151892857Y-60085714D01*
X151892857Y-60171428D01*
X151864285Y-60228571D01*
X151835714Y-60257142D01*
X151778571Y-60285714D01*
X151550000Y-60285714D01*
X152150000Y-60571428D02*
X152150000Y-59971428D01*
X152435714Y-60571428D02*
X152435714Y-59971428D01*
X152778571Y-60571428D01*
X152778571Y-59971428D01*
X153321428Y-60171428D02*
X153321428Y-60571428D01*
X153178571Y-59942857D02*
X153035714Y-60371428D01*
X153407142Y-60371428D01*
X144342857Y-60000000D02*
X144285714Y-59971428D01*
X144200000Y-59971428D01*
X144114285Y-60000000D01*
X144057142Y-60057142D01*
X144028571Y-60114285D01*
X144000000Y-60228571D01*
X144000000Y-60314285D01*
X144028571Y-60428571D01*
X144057142Y-60485714D01*
X144114285Y-60542857D01*
X144200000Y-60571428D01*
X144257142Y-60571428D01*
X144342857Y-60542857D01*
X144371428Y-60514285D01*
X144371428Y-60314285D01*
X144257142Y-60314285D01*
X144628571Y-60571428D02*
X144628571Y-59971428D01*
X144971428Y-60571428D01*
X144971428Y-59971428D01*
X145257142Y-60571428D02*
X145257142Y-59971428D01*
X145400000Y-59971428D01*
X145485714Y-60000000D01*
X145542857Y-60057142D01*
X145571428Y-60114285D01*
X145600000Y-60228571D01*
X145600000Y-60314285D01*
X145571428Y-60428571D01*
X145542857Y-60485714D01*
X145485714Y-60542857D01*
X145400000Y-60571428D01*
X145257142Y-60571428D01*
X146621428Y-60542857D02*
X146707142Y-60571428D01*
X146850000Y-60571428D01*
X146907142Y-60542857D01*
X146935714Y-60514285D01*
X146964285Y-60457142D01*
X146964285Y-60400000D01*
X146935714Y-60342857D01*
X146907142Y-60314285D01*
X146850000Y-60285714D01*
X146735714Y-60257142D01*
X146678571Y-60228571D01*
X146650000Y-60200000D01*
X146621428Y-60142857D01*
X146621428Y-60085714D01*
X146650000Y-60028571D01*
X146678571Y-60000000D01*
X146735714Y-59971428D01*
X146878571Y-59971428D01*
X146964285Y-60000000D01*
X147221428Y-60571428D02*
X147221428Y-59971428D01*
X147364285Y-59971428D01*
X147450000Y-60000000D01*
X147507142Y-60057142D01*
X147535714Y-60114285D01*
X147564285Y-60228571D01*
X147564285Y-60314285D01*
X147535714Y-60428571D01*
X147507142Y-60485714D01*
X147450000Y-60542857D01*
X147364285Y-60571428D01*
X147221428Y-60571428D01*
X147792857Y-60400000D02*
X148078571Y-60400000D01*
X147735714Y-60571428D02*
X147935714Y-59971428D01*
X148135714Y-60571428D01*
D11*
X103200000Y-81000000D02*
X103200000Y-81400000D01*
X148800000Y-78780000D02*
X148800000Y-79130000D01*
X153910000Y-78640000D02*
X153910000Y-78990000D01*
X156460000Y-78990000D02*
X156460000Y-78590000D01*
X105750000Y-81400000D02*
X105750000Y-81000000D01*
X148850000Y-79130000D02*
X151350000Y-79130000D01*
X153960000Y-78990000D02*
X156460000Y-78990000D01*
X151350000Y-79130000D02*
X151350000Y-78730000D01*
X103200000Y-81400000D02*
X105750000Y-81400000D01*
D12*
X168033333Y-75473571D02*
X167700000Y-75473571D01*
X167700000Y-75997380D02*
X167700000Y-74997380D01*
X168176190Y-74997380D01*
X168557142Y-75997380D02*
X168557142Y-75330714D01*
X168557142Y-75521190D02*
X168604761Y-75425952D01*
X168652380Y-75378333D01*
X168747619Y-75330714D01*
X168842857Y-75330714D01*
X169557142Y-75949761D02*
X169461904Y-75997380D01*
X169271428Y-75997380D01*
X169176190Y-75949761D01*
X169128571Y-75854523D01*
X169128571Y-75473571D01*
X169176190Y-75378333D01*
X169271428Y-75330714D01*
X169461904Y-75330714D01*
X169557142Y-75378333D01*
X169604761Y-75473571D01*
X169604761Y-75568809D01*
X169128571Y-75664047D01*
X170461904Y-75330714D02*
X170461904Y-76330714D01*
X170461904Y-75949761D02*
X170366666Y-75997380D01*
X170176190Y-75997380D01*
X170080952Y-75949761D01*
X170033333Y-75902142D01*
X169985714Y-75806904D01*
X169985714Y-75521190D01*
X170033333Y-75425952D01*
X170080952Y-75378333D01*
X170176190Y-75330714D01*
X170366666Y-75330714D01*
X170461904Y-75378333D01*
X170938095Y-75616428D02*
X171700000Y-75616428D01*
X167628571Y-77512142D02*
X167580952Y-77559761D01*
X167438095Y-77607380D01*
X167342857Y-77607380D01*
X167200000Y-77559761D01*
X167104761Y-77464523D01*
X167057142Y-77369285D01*
X167009523Y-77178809D01*
X167009523Y-77035952D01*
X167057142Y-76845476D01*
X167104761Y-76750238D01*
X167200000Y-76655000D01*
X167342857Y-76607380D01*
X167438095Y-76607380D01*
X167580952Y-76655000D01*
X167628571Y-76702619D01*
X168200000Y-77607380D02*
X168104761Y-77559761D01*
X168057142Y-77512142D01*
X168009523Y-77416904D01*
X168009523Y-77131190D01*
X168057142Y-77035952D01*
X168104761Y-76988333D01*
X168200000Y-76940714D01*
X168342857Y-76940714D01*
X168438095Y-76988333D01*
X168485714Y-77035952D01*
X168533333Y-77131190D01*
X168533333Y-77416904D01*
X168485714Y-77512142D01*
X168438095Y-77559761D01*
X168342857Y-77607380D01*
X168200000Y-77607380D01*
X169390476Y-76940714D02*
X169390476Y-77607380D01*
X168961904Y-76940714D02*
X168961904Y-77464523D01*
X169009523Y-77559761D01*
X169104761Y-77607380D01*
X169247619Y-77607380D01*
X169342857Y-77559761D01*
X169390476Y-77512142D01*
X169866666Y-76940714D02*
X169866666Y-77607380D01*
X169866666Y-77035952D02*
X169914285Y-76988333D01*
X170009523Y-76940714D01*
X170152380Y-76940714D01*
X170247619Y-76988333D01*
X170295238Y-77083571D01*
X170295238Y-77607380D01*
X170628571Y-76940714D02*
X171009523Y-76940714D01*
X170771428Y-76607380D02*
X170771428Y-77464523D01*
X170819047Y-77559761D01*
X170914285Y-77607380D01*
X171009523Y-77607380D01*
X171723809Y-77559761D02*
X171628571Y-77607380D01*
X171438095Y-77607380D01*
X171342857Y-77559761D01*
X171295238Y-77464523D01*
X171295238Y-77083571D01*
X171342857Y-76988333D01*
X171438095Y-76940714D01*
X171628571Y-76940714D01*
X171723809Y-76988333D01*
X171771428Y-77083571D01*
X171771428Y-77178809D01*
X171295238Y-77274047D01*
X172200000Y-77607380D02*
X172200000Y-76940714D01*
X172200000Y-77131190D02*
X172247619Y-77035952D01*
X172295238Y-76988333D01*
X172390476Y-76940714D01*
X172485714Y-76940714D01*
D10*
X156885714Y-58988428D02*
X157085714Y-59588428D01*
X157285714Y-58988428D01*
X157742857Y-59559857D02*
X157685714Y-59588428D01*
X157571428Y-59588428D01*
X157514285Y-59559857D01*
X157485714Y-59531285D01*
X157457142Y-59474142D01*
X157457142Y-59302714D01*
X157485714Y-59245571D01*
X157514285Y-59217000D01*
X157571428Y-59188428D01*
X157685714Y-59188428D01*
X157742857Y-59217000D01*
X158257142Y-59559857D02*
X158200000Y-59588428D01*
X158085714Y-59588428D01*
X158028571Y-59559857D01*
X158000000Y-59531285D01*
X157971428Y-59474142D01*
X157971428Y-59302714D01*
X158000000Y-59245571D01*
X158028571Y-59217000D01*
X158085714Y-59188428D01*
X158200000Y-59188428D01*
X158257142Y-59217000D01*
X157485714Y-59954428D02*
X157200000Y-59954428D01*
X157171428Y-60240142D01*
X157200000Y-60211571D01*
X157257142Y-60183000D01*
X157400000Y-60183000D01*
X157457142Y-60211571D01*
X157485714Y-60240142D01*
X157514285Y-60297285D01*
X157514285Y-60440142D01*
X157485714Y-60497285D01*
X157457142Y-60525857D01*
X157400000Y-60554428D01*
X157257142Y-60554428D01*
X157200000Y-60525857D01*
X157171428Y-60497285D01*
X157685714Y-59954428D02*
X157885714Y-60554428D01*
X158085714Y-59954428D01*
X101842857Y-82659857D02*
X101928571Y-82688428D01*
X102071428Y-82688428D01*
X102128571Y-82659857D01*
X102157142Y-82631285D01*
X102185714Y-82574142D01*
X102185714Y-82517000D01*
X102157142Y-82459857D01*
X102128571Y-82431285D01*
X102071428Y-82402714D01*
X101957142Y-82374142D01*
X101900000Y-82345571D01*
X101871428Y-82317000D01*
X101842857Y-82259857D01*
X101842857Y-82202714D01*
X101871428Y-82145571D01*
X101900000Y-82117000D01*
X101957142Y-82088428D01*
X102100000Y-82088428D01*
X102185714Y-82117000D01*
X102442857Y-82374142D02*
X102642857Y-82374142D01*
X102728571Y-82688428D02*
X102442857Y-82688428D01*
X102442857Y-82088428D01*
X102728571Y-82088428D01*
X102900000Y-82088428D02*
X103242857Y-82088428D01*
X103071428Y-82688428D02*
X103071428Y-82088428D01*
X104071428Y-82088428D02*
X104071428Y-82517000D01*
X104042857Y-82602714D01*
X103985714Y-82659857D01*
X103900000Y-82688428D01*
X103842857Y-82688428D01*
X104357142Y-82088428D02*
X104357142Y-82574142D01*
X104385714Y-82631285D01*
X104414285Y-82659857D01*
X104471428Y-82688428D01*
X104585714Y-82688428D01*
X104642857Y-82659857D01*
X104671428Y-82631285D01*
X104700000Y-82574142D01*
X104700000Y-82088428D01*
X104985714Y-82688428D02*
X104985714Y-82088428D01*
X105185714Y-82517000D01*
X105385714Y-82088428D01*
X105385714Y-82688428D01*
X105671428Y-82688428D02*
X105671428Y-82088428D01*
X105900000Y-82088428D01*
X105957142Y-82117000D01*
X105985714Y-82145571D01*
X106014285Y-82202714D01*
X106014285Y-82288428D01*
X105985714Y-82345571D01*
X105957142Y-82374142D01*
X105900000Y-82402714D01*
X105671428Y-82402714D01*
X106271428Y-82374142D02*
X106471428Y-82374142D01*
X106557142Y-82688428D02*
X106271428Y-82688428D01*
X106271428Y-82088428D01*
X106557142Y-82088428D01*
X107157142Y-82688428D02*
X106957142Y-82402714D01*
X106814285Y-82688428D02*
X106814285Y-82088428D01*
X107042857Y-82088428D01*
X107100000Y-82117000D01*
X107128571Y-82145571D01*
X107157142Y-82202714D01*
X107157142Y-82288428D01*
X107128571Y-82345571D01*
X107100000Y-82374142D01*
X107042857Y-82402714D01*
X106814285Y-82402714D01*
X102557142Y-83054428D02*
X102928571Y-83054428D01*
X102728571Y-83283000D01*
X102814285Y-83283000D01*
X102871428Y-83311571D01*
X102900000Y-83340142D01*
X102928571Y-83397285D01*
X102928571Y-83540142D01*
X102900000Y-83597285D01*
X102871428Y-83625857D01*
X102814285Y-83654428D01*
X102642857Y-83654428D01*
X102585714Y-83625857D01*
X102557142Y-83597285D01*
X103100000Y-83054428D02*
X103300000Y-83654428D01*
X103500000Y-83054428D01*
X103642857Y-83054428D02*
X104014285Y-83054428D01*
X103814285Y-83283000D01*
X103900000Y-83283000D01*
X103957142Y-83311571D01*
X103985714Y-83340142D01*
X104014285Y-83397285D01*
X104014285Y-83540142D01*
X103985714Y-83597285D01*
X103957142Y-83625857D01*
X103900000Y-83654428D01*
X103728571Y-83654428D01*
X103671428Y-83625857D01*
X103642857Y-83597285D01*
X104271428Y-83425857D02*
X104728571Y-83425857D01*
X105357142Y-83654428D02*
X105157142Y-83368714D01*
X105014285Y-83654428D02*
X105014285Y-83054428D01*
X105242857Y-83054428D01*
X105300000Y-83083000D01*
X105328571Y-83111571D01*
X105357142Y-83168714D01*
X105357142Y-83254428D01*
X105328571Y-83311571D01*
X105300000Y-83340142D01*
X105242857Y-83368714D01*
X105014285Y-83368714D01*
X105614285Y-83340142D02*
X105814285Y-83340142D01*
X105900000Y-83654428D02*
X105614285Y-83654428D01*
X105614285Y-83054428D01*
X105900000Y-83054428D01*
X106357142Y-83340142D02*
X106157142Y-83340142D01*
X106157142Y-83654428D02*
X106157142Y-83054428D01*
X106442857Y-83054428D01*
X153185714Y-71842857D02*
X153271428Y-71871428D01*
X153414285Y-71871428D01*
X153471428Y-71842857D01*
X153500000Y-71814285D01*
X153528571Y-71757142D01*
X153528571Y-71700000D01*
X153500000Y-71642857D01*
X153471428Y-71614285D01*
X153414285Y-71585714D01*
X153300000Y-71557142D01*
X153242857Y-71528571D01*
X153214285Y-71500000D01*
X153185714Y-71442857D01*
X153185714Y-71385714D01*
X153214285Y-71328571D01*
X153242857Y-71300000D01*
X153300000Y-71271428D01*
X153442857Y-71271428D01*
X153528571Y-71300000D01*
X154128571Y-71814285D02*
X154100000Y-71842857D01*
X154014285Y-71871428D01*
X153957142Y-71871428D01*
X153871428Y-71842857D01*
X153814285Y-71785714D01*
X153785714Y-71728571D01*
X153757142Y-71614285D01*
X153757142Y-71528571D01*
X153785714Y-71414285D01*
X153814285Y-71357142D01*
X153871428Y-71300000D01*
X153957142Y-71271428D01*
X154014285Y-71271428D01*
X154100000Y-71300000D01*
X154128571Y-71328571D01*
X154671428Y-71871428D02*
X154385714Y-71871428D01*
X154385714Y-71271428D01*
D12*
X146216666Y-58102380D02*
X146216666Y-57102380D01*
X146645238Y-57197619D02*
X146692857Y-57150000D01*
X146788095Y-57102380D01*
X147026190Y-57102380D01*
X147121428Y-57150000D01*
X147169047Y-57197619D01*
X147216666Y-57292857D01*
X147216666Y-57388095D01*
X147169047Y-57530952D01*
X146597619Y-58102380D01*
X147216666Y-58102380D01*
X148216666Y-58007142D02*
X148169047Y-58054761D01*
X148026190Y-58102380D01*
X147930952Y-58102380D01*
X147788095Y-58054761D01*
X147692857Y-57959523D01*
X147645238Y-57864285D01*
X147597619Y-57673809D01*
X147597619Y-57530952D01*
X147645238Y-57340476D01*
X147692857Y-57245238D01*
X147788095Y-57150000D01*
X147930952Y-57102380D01*
X148026190Y-57102380D01*
X148169047Y-57150000D01*
X148216666Y-57197619D01*
X148645238Y-57721428D02*
X149407142Y-57721428D01*
X150454761Y-58007142D02*
X150407142Y-58054761D01*
X150264285Y-58102380D01*
X150169047Y-58102380D01*
X150026190Y-58054761D01*
X149930952Y-57959523D01*
X149883333Y-57864285D01*
X149835714Y-57673809D01*
X149835714Y-57530952D01*
X149883333Y-57340476D01*
X149930952Y-57245238D01*
X150026190Y-57150000D01*
X150169047Y-57102380D01*
X150264285Y-57102380D01*
X150407142Y-57150000D01*
X150454761Y-57197619D01*
X151026190Y-58102380D02*
X150930952Y-58054761D01*
X150883333Y-58007142D01*
X150835714Y-57911904D01*
X150835714Y-57626190D01*
X150883333Y-57530952D01*
X150930952Y-57483333D01*
X151026190Y-57435714D01*
X151169047Y-57435714D01*
X151264285Y-57483333D01*
X151311904Y-57530952D01*
X151359523Y-57626190D01*
X151359523Y-57911904D01*
X151311904Y-58007142D01*
X151264285Y-58054761D01*
X151169047Y-58102380D01*
X151026190Y-58102380D01*
X151788095Y-58102380D02*
X151788095Y-57435714D01*
X151788095Y-57530952D02*
X151835714Y-57483333D01*
X151930952Y-57435714D01*
X152073809Y-57435714D01*
X152169047Y-57483333D01*
X152216666Y-57578571D01*
X152216666Y-58102380D01*
X152216666Y-57578571D02*
X152264285Y-57483333D01*
X152359523Y-57435714D01*
X152502380Y-57435714D01*
X152597619Y-57483333D01*
X152645238Y-57578571D01*
X152645238Y-58102380D01*
X153121428Y-58102380D02*
X153121428Y-57435714D01*
X153121428Y-57530952D02*
X153169047Y-57483333D01*
X153264285Y-57435714D01*
X153407142Y-57435714D01*
X153502380Y-57483333D01*
X153550000Y-57578571D01*
X153550000Y-58102380D01*
X153550000Y-57578571D02*
X153597619Y-57483333D01*
X153692857Y-57435714D01*
X153835714Y-57435714D01*
X153930952Y-57483333D01*
X153978571Y-57578571D01*
X153978571Y-58102380D01*
X154883333Y-57435714D02*
X154883333Y-58102380D01*
X154454761Y-57435714D02*
X154454761Y-57959523D01*
X154502380Y-58054761D01*
X154597619Y-58102380D01*
X154740476Y-58102380D01*
X154835714Y-58054761D01*
X154883333Y-58007142D01*
X155359523Y-57435714D02*
X155359523Y-58102380D01*
X155359523Y-57530952D02*
X155407142Y-57483333D01*
X155502380Y-57435714D01*
X155645238Y-57435714D01*
X155740476Y-57483333D01*
X155788095Y-57578571D01*
X155788095Y-58102380D01*
X156264285Y-58102380D02*
X156264285Y-57435714D01*
X156264285Y-57102380D02*
X156216666Y-57150000D01*
X156264285Y-57197619D01*
X156311904Y-57150000D01*
X156264285Y-57102380D01*
X156264285Y-57197619D01*
X157169047Y-58054761D02*
X157073809Y-58102380D01*
X156883333Y-58102380D01*
X156788095Y-58054761D01*
X156740476Y-58007142D01*
X156692857Y-57911904D01*
X156692857Y-57626190D01*
X156740476Y-57530952D01*
X156788095Y-57483333D01*
X156883333Y-57435714D01*
X157073809Y-57435714D01*
X157169047Y-57483333D01*
X158026190Y-58102380D02*
X158026190Y-57578571D01*
X157978571Y-57483333D01*
X157883333Y-57435714D01*
X157692857Y-57435714D01*
X157597619Y-57483333D01*
X158026190Y-58054761D02*
X157930952Y-58102380D01*
X157692857Y-58102380D01*
X157597619Y-58054761D01*
X157550000Y-57959523D01*
X157550000Y-57864285D01*
X157597619Y-57769047D01*
X157692857Y-57721428D01*
X157930952Y-57721428D01*
X158026190Y-57673809D01*
X158359523Y-57435714D02*
X158740476Y-57435714D01*
X158502380Y-57102380D02*
X158502380Y-57959523D01*
X158550000Y-58054761D01*
X158645238Y-58102380D01*
X158740476Y-58102380D01*
X159073809Y-58102380D02*
X159073809Y-57435714D01*
X159073809Y-57102380D02*
X159026190Y-57150000D01*
X159073809Y-57197619D01*
X159121428Y-57150000D01*
X159073809Y-57102380D01*
X159073809Y-57197619D01*
X159692857Y-58102380D02*
X159597619Y-58054761D01*
X159550000Y-58007142D01*
X159502380Y-57911904D01*
X159502380Y-57626190D01*
X159550000Y-57530952D01*
X159597619Y-57483333D01*
X159692857Y-57435714D01*
X159835714Y-57435714D01*
X159930952Y-57483333D01*
X159978571Y-57530952D01*
X160026190Y-57626190D01*
X160026190Y-57911904D01*
X159978571Y-58007142D01*
X159930952Y-58054761D01*
X159835714Y-58102380D01*
X159692857Y-58102380D01*
X160454761Y-57435714D02*
X160454761Y-58102380D01*
X160454761Y-57530952D02*
X160502380Y-57483333D01*
X160597619Y-57435714D01*
X160740476Y-57435714D01*
X160835714Y-57483333D01*
X160883333Y-57578571D01*
X160883333Y-58102380D01*
D11*
X108613095Y-43959226D02*
X108613095Y-42709226D01*
X109327380Y-43959226D01*
X109327380Y-42709226D01*
X110458333Y-43959226D02*
X110458333Y-43304464D01*
X110398809Y-43185416D01*
X110279761Y-43125892D01*
X110041666Y-43125892D01*
X109922619Y-43185416D01*
X110458333Y-43899702D02*
X110339285Y-43959226D01*
X110041666Y-43959226D01*
X109922619Y-43899702D01*
X109863095Y-43780654D01*
X109863095Y-43661607D01*
X109922619Y-43542559D01*
X110041666Y-43483035D01*
X110339285Y-43483035D01*
X110458333Y-43423511D01*
X111053571Y-43125892D02*
X111053571Y-43959226D01*
X111053571Y-43244940D02*
X111113095Y-43185416D01*
X111232142Y-43125892D01*
X111410714Y-43125892D01*
X111529761Y-43185416D01*
X111589285Y-43304464D01*
X111589285Y-43959226D01*
X112363095Y-43959226D02*
X112244047Y-43899702D01*
X112184523Y-43840178D01*
X112125000Y-43721130D01*
X112125000Y-43363988D01*
X112184523Y-43244940D01*
X112244047Y-43185416D01*
X112363095Y-43125892D01*
X112541666Y-43125892D01*
X112660714Y-43185416D01*
X112720238Y-43244940D01*
X112779761Y-43363988D01*
X112779761Y-43721130D01*
X112720238Y-43840178D01*
X112660714Y-43899702D01*
X112541666Y-43959226D01*
X112363095Y-43959226D01*
X113315476Y-43483035D02*
X114267857Y-43483035D01*
X114863095Y-42709226D02*
X114863095Y-43721130D01*
X114922619Y-43840178D01*
X114982142Y-43899702D01*
X115101190Y-43959226D01*
X115339285Y-43959226D01*
X115458333Y-43899702D01*
X115517857Y-43840178D01*
X115577380Y-43721130D01*
X115577380Y-42709226D01*
X115994047Y-43125892D02*
X116470238Y-43125892D01*
X116172619Y-42709226D02*
X116172619Y-43780654D01*
X116232142Y-43899702D01*
X116351190Y-43959226D01*
X116470238Y-43959226D01*
X116886904Y-43959226D02*
X116886904Y-43125892D01*
X116886904Y-42709226D02*
X116827380Y-42768750D01*
X116886904Y-42828273D01*
X116946428Y-42768750D01*
X116886904Y-42709226D01*
X116886904Y-42828273D01*
X117660714Y-43959226D02*
X117541666Y-43899702D01*
X117482142Y-43780654D01*
X117482142Y-42709226D01*
X118136904Y-43483035D02*
X119089285Y-43483035D01*
X120101190Y-43304464D02*
X120279761Y-43363988D01*
X120339285Y-43423511D01*
X120398809Y-43542559D01*
X120398809Y-43721130D01*
X120339285Y-43840178D01*
X120279761Y-43899702D01*
X120160714Y-43959226D01*
X119684523Y-43959226D01*
X119684523Y-42709226D01*
X120101190Y-42709226D01*
X120220238Y-42768750D01*
X120279761Y-42828273D01*
X120339285Y-42947321D01*
X120339285Y-43066369D01*
X120279761Y-43185416D01*
X120220238Y-43244940D01*
X120101190Y-43304464D01*
X119684523Y-43304464D01*
X121113095Y-43959226D02*
X120994047Y-43899702D01*
X120934523Y-43840178D01*
X120875000Y-43721130D01*
X120875000Y-43363988D01*
X120934523Y-43244940D01*
X120994047Y-43185416D01*
X121113095Y-43125892D01*
X121291666Y-43125892D01*
X121410714Y-43185416D01*
X121470238Y-43244940D01*
X121529761Y-43363988D01*
X121529761Y-43721130D01*
X121470238Y-43840178D01*
X121410714Y-43899702D01*
X121291666Y-43959226D01*
X121113095Y-43959226D01*
X122601190Y-43959226D02*
X122601190Y-43304464D01*
X122541666Y-43185416D01*
X122422619Y-43125892D01*
X122184523Y-43125892D01*
X122065476Y-43185416D01*
X122601190Y-43899702D02*
X122482142Y-43959226D01*
X122184523Y-43959226D01*
X122065476Y-43899702D01*
X122005952Y-43780654D01*
X122005952Y-43661607D01*
X122065476Y-43542559D01*
X122184523Y-43483035D01*
X122482142Y-43483035D01*
X122601190Y-43423511D01*
X123196428Y-43959226D02*
X123196428Y-43125892D01*
X123196428Y-43363988D02*
X123255952Y-43244940D01*
X123315476Y-43185416D01*
X123434523Y-43125892D01*
X123553571Y-43125892D01*
X124505952Y-43959226D02*
X124505952Y-42709226D01*
X124505952Y-43899702D02*
X124386904Y-43959226D01*
X124148809Y-43959226D01*
X124029761Y-43899702D01*
X123970238Y-43840178D01*
X123910714Y-43721130D01*
X123910714Y-43363988D01*
X123970238Y-43244940D01*
X124029761Y-43185416D01*
X124148809Y-43125892D01*
X124386904Y-43125892D01*
X124505952Y-43185416D01*
X125934523Y-43125892D02*
X126232142Y-43959226D01*
X126529761Y-43125892D01*
X127660714Y-43959226D02*
X126946428Y-43959226D01*
X127303571Y-43959226D02*
X127303571Y-42709226D01*
X127184523Y-42887797D01*
X127065476Y-43006845D01*
X126946428Y-43066369D01*
X128196428Y-43840178D02*
X128255952Y-43899702D01*
X128196428Y-43959226D01*
X128136904Y-43899702D01*
X128196428Y-43840178D01*
X128196428Y-43959226D01*
X129029761Y-42709226D02*
X129148809Y-42709226D01*
X129267857Y-42768750D01*
X129327380Y-42828273D01*
X129386904Y-42947321D01*
X129446428Y-43185416D01*
X129446428Y-43483035D01*
X129386904Y-43721130D01*
X129327380Y-43840178D01*
X129267857Y-43899702D01*
X129148809Y-43959226D01*
X129029761Y-43959226D01*
X128910714Y-43899702D01*
X128851190Y-43840178D01*
X128791666Y-43721130D01*
X128732142Y-43483035D01*
X128732142Y-43185416D01*
X128791666Y-42947321D01*
X128851190Y-42828273D01*
X128910714Y-42768750D01*
X129029761Y-42709226D01*
X114952380Y-45316964D02*
X115130952Y-45376488D01*
X115190476Y-45436011D01*
X115250000Y-45555059D01*
X115250000Y-45733630D01*
X115190476Y-45852678D01*
X115130952Y-45912202D01*
X115011904Y-45971726D01*
X114535714Y-45971726D01*
X114535714Y-44721726D01*
X114952380Y-44721726D01*
X115071428Y-44781250D01*
X115130952Y-44840773D01*
X115190476Y-44959821D01*
X115190476Y-45078869D01*
X115130952Y-45197916D01*
X115071428Y-45257440D01*
X114952380Y-45316964D01*
X114535714Y-45316964D01*
X115785714Y-45971726D02*
X115785714Y-44721726D01*
X116500000Y-45971726D02*
X115964285Y-45257440D01*
X116500000Y-44721726D02*
X115785714Y-45436011D01*
X118226190Y-44721726D02*
X118345238Y-44721726D01*
X118464285Y-44781250D01*
X118523809Y-44840773D01*
X118583333Y-44959821D01*
X118642857Y-45197916D01*
X118642857Y-45495535D01*
X118583333Y-45733630D01*
X118523809Y-45852678D01*
X118464285Y-45912202D01*
X118345238Y-45971726D01*
X118226190Y-45971726D01*
X118107142Y-45912202D01*
X118047619Y-45852678D01*
X117988095Y-45733630D01*
X117928571Y-45495535D01*
X117928571Y-45197916D01*
X117988095Y-44959821D01*
X118047619Y-44840773D01*
X118107142Y-44781250D01*
X118226190Y-44721726D01*
X119714285Y-45138392D02*
X119714285Y-45971726D01*
X119416666Y-44662202D02*
X119119047Y-45555059D01*
X119892857Y-45555059D01*
X121261904Y-44662202D02*
X120190476Y-46269345D01*
X121619047Y-44840773D02*
X121678571Y-44781250D01*
X121797619Y-44721726D01*
X122095238Y-44721726D01*
X122214285Y-44781250D01*
X122273809Y-44840773D01*
X122333333Y-44959821D01*
X122333333Y-45078869D01*
X122273809Y-45257440D01*
X121559523Y-45971726D01*
X122333333Y-45971726D01*
X122750000Y-44721726D02*
X123523809Y-44721726D01*
X123107142Y-45197916D01*
X123285714Y-45197916D01*
X123404761Y-45257440D01*
X123464285Y-45316964D01*
X123523809Y-45436011D01*
X123523809Y-45733630D01*
X123464285Y-45852678D01*
X123404761Y-45912202D01*
X123285714Y-45971726D01*
X122928571Y-45971726D01*
X122809523Y-45912202D01*
X122750000Y-45852678D01*
D10*
X172074142Y-72928571D02*
X172074142Y-73128571D01*
X172388428Y-73128571D02*
X171788428Y-73128571D01*
X171788428Y-72842857D01*
X172388428Y-72614285D02*
X171988428Y-72614285D01*
X172102714Y-72614285D02*
X172045571Y-72585714D01*
X172017000Y-72557142D01*
X171988428Y-72500000D01*
X171988428Y-72442857D01*
X172359857Y-72014285D02*
X172388428Y-72071428D01*
X172388428Y-72185714D01*
X172359857Y-72242857D01*
X172302714Y-72271428D01*
X172074142Y-72271428D01*
X172017000Y-72242857D01*
X171988428Y-72185714D01*
X171988428Y-72071428D01*
X172017000Y-72014285D01*
X172074142Y-71985714D01*
X172131285Y-71985714D01*
X172188428Y-72271428D01*
X171988428Y-71471428D02*
X172588428Y-71471428D01*
X172359857Y-71471428D02*
X172388428Y-71528571D01*
X172388428Y-71642857D01*
X172359857Y-71700000D01*
X172331285Y-71728571D01*
X172274142Y-71757142D01*
X172102714Y-71757142D01*
X172045571Y-71728571D01*
X172017000Y-71700000D01*
X171988428Y-71642857D01*
X171988428Y-71528571D01*
X172017000Y-71471428D01*
X173354428Y-73285714D02*
X172754428Y-73285714D01*
X172954428Y-73000000D02*
X173354428Y-73000000D01*
X173011571Y-73000000D02*
X172983000Y-72971428D01*
X172954428Y-72914285D01*
X172954428Y-72828571D01*
X172983000Y-72771428D01*
X173040142Y-72742857D01*
X173354428Y-72742857D01*
X172954428Y-72457142D02*
X173554428Y-72457142D01*
X172983000Y-72457142D02*
X172954428Y-72400000D01*
X172954428Y-72285714D01*
X172983000Y-72228571D01*
X173011571Y-72200000D01*
X173068714Y-72171428D01*
X173240142Y-72171428D01*
X173297285Y-72200000D01*
X173325857Y-72228571D01*
X173354428Y-72285714D01*
X173354428Y-72400000D01*
X173325857Y-72457142D01*
X172954428Y-71657142D02*
X173354428Y-71657142D01*
X172954428Y-71914285D02*
X173268714Y-71914285D01*
X173325857Y-71885714D01*
X173354428Y-71828571D01*
X173354428Y-71742857D01*
X173325857Y-71685714D01*
X173297285Y-71657142D01*
X172954428Y-71457142D02*
X172954428Y-71228571D01*
X172754428Y-71371428D02*
X173268714Y-71371428D01*
X173325857Y-71342857D01*
X173354428Y-71285714D01*
X173354428Y-71228571D01*
X149185714Y-60542857D02*
X149271428Y-60571428D01*
X149414285Y-60571428D01*
X149471428Y-60542857D01*
X149500000Y-60514285D01*
X149528571Y-60457142D01*
X149528571Y-60400000D01*
X149500000Y-60342857D01*
X149471428Y-60314285D01*
X149414285Y-60285714D01*
X149300000Y-60257142D01*
X149242857Y-60228571D01*
X149214285Y-60200000D01*
X149185714Y-60142857D01*
X149185714Y-60085714D01*
X149214285Y-60028571D01*
X149242857Y-60000000D01*
X149300000Y-59971428D01*
X149442857Y-59971428D01*
X149528571Y-60000000D01*
X150128571Y-60514285D02*
X150100000Y-60542857D01*
X150014285Y-60571428D01*
X149957142Y-60571428D01*
X149871428Y-60542857D01*
X149814285Y-60485714D01*
X149785714Y-60428571D01*
X149757142Y-60314285D01*
X149757142Y-60228571D01*
X149785714Y-60114285D01*
X149814285Y-60057142D01*
X149871428Y-60000000D01*
X149957142Y-59971428D01*
X150014285Y-59971428D01*
X150100000Y-60000000D01*
X150128571Y-60028571D01*
X150671428Y-60571428D02*
X150385714Y-60571428D01*
X150385714Y-59971428D01*
X171950000Y-70307142D02*
X171921428Y-70364285D01*
X171921428Y-70450000D01*
X171950000Y-70535714D01*
X172007142Y-70592857D01*
X172064285Y-70621428D01*
X172178571Y-70650000D01*
X172264285Y-70650000D01*
X172378571Y-70621428D01*
X172435714Y-70592857D01*
X172492857Y-70535714D01*
X172521428Y-70450000D01*
X172521428Y-70392857D01*
X172492857Y-70307142D01*
X172464285Y-70278571D01*
X172264285Y-70278571D01*
X172264285Y-70392857D01*
X172521428Y-70021428D02*
X171921428Y-70021428D01*
X172521428Y-69678571D01*
X171921428Y-69678571D01*
X172521428Y-69392857D02*
X171921428Y-69392857D01*
X171921428Y-69250000D01*
X171950000Y-69164285D01*
X172007142Y-69107142D01*
X172064285Y-69078571D01*
X172178571Y-69050000D01*
X172264285Y-69050000D01*
X172378571Y-69078571D01*
X172435714Y-69107142D01*
X172492857Y-69164285D01*
X172521428Y-69250000D01*
X172521428Y-69392857D01*
X155464285Y-71871428D02*
X155464285Y-71271428D01*
X155807142Y-71871428D01*
X155807142Y-71271428D01*
X156007142Y-71271428D02*
X156350000Y-71271428D01*
X156178571Y-71871428D02*
X156178571Y-71271428D01*
X156892857Y-71814285D02*
X156864285Y-71842857D01*
X156778571Y-71871428D01*
X156721428Y-71871428D01*
X156635714Y-71842857D01*
X156578571Y-71785714D01*
X156550000Y-71728571D01*
X156521428Y-71614285D01*
X156521428Y-71528571D01*
X156550000Y-71414285D01*
X156578571Y-71357142D01*
X156635714Y-71300000D01*
X156721428Y-71271428D01*
X156778571Y-71271428D01*
X156864285Y-71300000D01*
X156892857Y-71328571D01*
X157435714Y-71271428D02*
X157150000Y-71271428D01*
X157121428Y-71557142D01*
X157150000Y-71528571D01*
X157207142Y-71500000D01*
X157350000Y-71500000D01*
X157407142Y-71528571D01*
X157435714Y-71557142D01*
X157464285Y-71614285D01*
X157464285Y-71757142D01*
X157435714Y-71814285D01*
X157407142Y-71842857D01*
X157350000Y-71871428D01*
X157207142Y-71871428D01*
X157150000Y-71842857D01*
X157121428Y-71814285D01*
X105242857Y-86271428D02*
X104900000Y-86271428D01*
X105071428Y-86271428D02*
X105071428Y-85671428D01*
X105014285Y-85757142D01*
X104957142Y-85814285D01*
X104900000Y-85842857D01*
X105614285Y-85671428D02*
X105671428Y-85671428D01*
X105728571Y-85700000D01*
X105757142Y-85728571D01*
X105785714Y-85785714D01*
X105814285Y-85900000D01*
X105814285Y-86042857D01*
X105785714Y-86157142D01*
X105757142Y-86214285D01*
X105728571Y-86242857D01*
X105671428Y-86271428D01*
X105614285Y-86271428D01*
X105557142Y-86242857D01*
X105528571Y-86214285D01*
X105500000Y-86157142D01*
X105471428Y-86042857D01*
X105471428Y-85900000D01*
X105500000Y-85785714D01*
X105528571Y-85728571D01*
X105557142Y-85700000D01*
X105614285Y-85671428D01*
X106071428Y-86271428D02*
X106071428Y-85671428D01*
X106128571Y-86042857D02*
X106300000Y-86271428D01*
X106300000Y-85871428D02*
X106071428Y-86100000D01*
X149671428Y-80130000D02*
X149957142Y-80130000D01*
X149614285Y-80301428D02*
X149814285Y-79701428D01*
X150014285Y-80301428D01*
X150471428Y-79901428D02*
X150471428Y-80301428D01*
X150328571Y-79672857D02*
X150185714Y-80101428D01*
X150557142Y-80101428D01*
X154751428Y-80190000D02*
X155037142Y-80190000D01*
X154694285Y-80361428D02*
X154894285Y-79761428D01*
X155094285Y-80361428D01*
X155580000Y-79761428D02*
X155294285Y-79761428D01*
X155265714Y-80047142D01*
X155294285Y-80018571D01*
X155351428Y-79990000D01*
X155494285Y-79990000D01*
X155551428Y-80018571D01*
X155580000Y-80047142D01*
X155608571Y-80104285D01*
X155608571Y-80247142D01*
X155580000Y-80304285D01*
X155551428Y-80332857D01*
X155494285Y-80361428D01*
X155351428Y-80361428D01*
X155294285Y-80332857D01*
X155265714Y-80304285D01*
D12*
X163519047Y-90247380D02*
X163519047Y-89247380D01*
X164090476Y-90247380D01*
X164090476Y-89247380D01*
X164423809Y-89247380D02*
X164995238Y-89247380D01*
X164709523Y-90247380D02*
X164709523Y-89247380D01*
X165900000Y-90152142D02*
X165852380Y-90199761D01*
X165709523Y-90247380D01*
X165614285Y-90247380D01*
X165471428Y-90199761D01*
X165376190Y-90104523D01*
X165328571Y-90009285D01*
X165280952Y-89818809D01*
X165280952Y-89675952D01*
X165328571Y-89485476D01*
X165376190Y-89390238D01*
X165471428Y-89295000D01*
X165614285Y-89247380D01*
X165709523Y-89247380D01*
X165852380Y-89295000D01*
X165900000Y-89342619D01*
X167090476Y-90247380D02*
X167090476Y-89247380D01*
X167471428Y-89247380D01*
X167566666Y-89295000D01*
X167614285Y-89342619D01*
X167661904Y-89437857D01*
X167661904Y-89580714D01*
X167614285Y-89675952D01*
X167566666Y-89723571D01*
X167471428Y-89771190D01*
X167090476Y-89771190D01*
X168090476Y-90247380D02*
X168090476Y-89580714D01*
X168090476Y-89247380D02*
X168042857Y-89295000D01*
X168090476Y-89342619D01*
X168138095Y-89295000D01*
X168090476Y-89247380D01*
X168090476Y-89342619D01*
X168566666Y-89580714D02*
X168566666Y-90247380D01*
X168566666Y-89675952D02*
X168614285Y-89628333D01*
X168709523Y-89580714D01*
X168852380Y-89580714D01*
X168947619Y-89628333D01*
X168995238Y-89723571D01*
X168995238Y-90247380D01*
X169423809Y-90199761D02*
X169519047Y-90247380D01*
X169709523Y-90247380D01*
X169804761Y-90199761D01*
X169852380Y-90104523D01*
X169852380Y-90056904D01*
X169804761Y-89961666D01*
X169709523Y-89914047D01*
X169566666Y-89914047D01*
X169471428Y-89866428D01*
X169423809Y-89771190D01*
X169423809Y-89723571D01*
X169471428Y-89628333D01*
X169566666Y-89580714D01*
X169709523Y-89580714D01*
X169804761Y-89628333D01*
X170280952Y-90152142D02*
X170328571Y-90199761D01*
X170280952Y-90247380D01*
X170233333Y-90199761D01*
X170280952Y-90152142D01*
X170280952Y-90247380D01*
X170280952Y-89628333D02*
X170328571Y-89675952D01*
X170280952Y-89723571D01*
X170233333Y-89675952D01*
X170280952Y-89628333D01*
X170280952Y-89723571D01*
X163923809Y-90905000D02*
X163828571Y-90857380D01*
X163685714Y-90857380D01*
X163542857Y-90905000D01*
X163447619Y-91000238D01*
X163400000Y-91095476D01*
X163352380Y-91285952D01*
X163352380Y-91428809D01*
X163400000Y-91619285D01*
X163447619Y-91714523D01*
X163542857Y-91809761D01*
X163685714Y-91857380D01*
X163780952Y-91857380D01*
X163923809Y-91809761D01*
X163971428Y-91762142D01*
X163971428Y-91428809D01*
X163780952Y-91428809D01*
X164400000Y-91857380D02*
X164400000Y-90857380D01*
X164971428Y-91857380D01*
X164971428Y-90857380D01*
X165447619Y-91857380D02*
X165447619Y-90857380D01*
X165685714Y-90857380D01*
X165828571Y-90905000D01*
X165923809Y-91000238D01*
X165971428Y-91095476D01*
X166019047Y-91285952D01*
X166019047Y-91428809D01*
X165971428Y-91619285D01*
X165923809Y-91714523D01*
X165828571Y-91809761D01*
X165685714Y-91857380D01*
X165447619Y-91857380D01*
X167209523Y-91476428D02*
X167971428Y-91476428D01*
X169161904Y-91571666D02*
X169638095Y-91571666D01*
X169066666Y-91857380D02*
X169400000Y-90857380D01*
X169733333Y-91857380D01*
X169971428Y-91857380D02*
X170495238Y-91190714D01*
X169971428Y-91190714D02*
X170495238Y-91857380D01*
D10*
X148121428Y-71892857D02*
X148207142Y-71921428D01*
X148350000Y-71921428D01*
X148407142Y-71892857D01*
X148435714Y-71864285D01*
X148464285Y-71807142D01*
X148464285Y-71750000D01*
X148435714Y-71692857D01*
X148407142Y-71664285D01*
X148350000Y-71635714D01*
X148235714Y-71607142D01*
X148178571Y-71578571D01*
X148150000Y-71550000D01*
X148121428Y-71492857D01*
X148121428Y-71435714D01*
X148150000Y-71378571D01*
X148178571Y-71350000D01*
X148235714Y-71321428D01*
X148378571Y-71321428D01*
X148464285Y-71350000D01*
X148721428Y-71921428D02*
X148721428Y-71321428D01*
X148864285Y-71321428D01*
X148950000Y-71350000D01*
X149007142Y-71407142D01*
X149035714Y-71464285D01*
X149064285Y-71578571D01*
X149064285Y-71664285D01*
X149035714Y-71778571D01*
X149007142Y-71835714D01*
X148950000Y-71892857D01*
X148864285Y-71921428D01*
X148721428Y-71921428D01*
X149292857Y-71750000D02*
X149578571Y-71750000D01*
X149235714Y-71921428D02*
X149435714Y-71321428D01*
X149635714Y-71921428D01*
X150414285Y-71921428D02*
X150414285Y-71321428D01*
X150757142Y-71921428D01*
X150757142Y-71321428D01*
X150957142Y-71321428D02*
X151300000Y-71321428D01*
X151128571Y-71921428D02*
X151128571Y-71321428D01*
X151842857Y-71864285D02*
X151814285Y-71892857D01*
X151728571Y-71921428D01*
X151671428Y-71921428D01*
X151585714Y-71892857D01*
X151528571Y-71835714D01*
X151500000Y-71778571D01*
X151471428Y-71664285D01*
X151471428Y-71578571D01*
X151500000Y-71464285D01*
X151528571Y-71407142D01*
X151585714Y-71350000D01*
X151671428Y-71321428D01*
X151728571Y-71321428D01*
X151814285Y-71350000D01*
X151842857Y-71378571D01*
X152357142Y-71521428D02*
X152357142Y-71921428D01*
X152214285Y-71292857D02*
X152071428Y-71721428D01*
X152442857Y-71721428D01*
D12*
X150007142Y-68097380D02*
X150007142Y-68906904D01*
X150054761Y-69002142D01*
X150102380Y-69049761D01*
X150197619Y-69097380D01*
X150388095Y-69097380D01*
X150483333Y-69049761D01*
X150530952Y-69002142D01*
X150578571Y-68906904D01*
X150578571Y-68097380D01*
X151007142Y-69049761D02*
X151102380Y-69097380D01*
X151292857Y-69097380D01*
X151388095Y-69049761D01*
X151435714Y-68954523D01*
X151435714Y-68906904D01*
X151388095Y-68811666D01*
X151292857Y-68764047D01*
X151150000Y-68764047D01*
X151054761Y-68716428D01*
X151007142Y-68621190D01*
X151007142Y-68573571D01*
X151054761Y-68478333D01*
X151150000Y-68430714D01*
X151292857Y-68430714D01*
X151388095Y-68478333D01*
X152292857Y-69097380D02*
X152292857Y-68573571D01*
X152245238Y-68478333D01*
X152150000Y-68430714D01*
X151959523Y-68430714D01*
X151864285Y-68478333D01*
X152292857Y-69049761D02*
X152197619Y-69097380D01*
X151959523Y-69097380D01*
X151864285Y-69049761D01*
X151816666Y-68954523D01*
X151816666Y-68859285D01*
X151864285Y-68764047D01*
X151959523Y-68716428D01*
X152197619Y-68716428D01*
X152292857Y-68668809D01*
X153197619Y-68430714D02*
X153197619Y-69240238D01*
X153150000Y-69335476D01*
X153102380Y-69383095D01*
X153007142Y-69430714D01*
X152864285Y-69430714D01*
X152769047Y-69383095D01*
X153197619Y-69049761D02*
X153102380Y-69097380D01*
X152911904Y-69097380D01*
X152816666Y-69049761D01*
X152769047Y-69002142D01*
X152721428Y-68906904D01*
X152721428Y-68621190D01*
X152769047Y-68525952D01*
X152816666Y-68478333D01*
X152911904Y-68430714D01*
X153102380Y-68430714D01*
X153197619Y-68478333D01*
X154054761Y-69049761D02*
X153959523Y-69097380D01*
X153769047Y-69097380D01*
X153673809Y-69049761D01*
X153626190Y-68954523D01*
X153626190Y-68573571D01*
X153673809Y-68478333D01*
X153769047Y-68430714D01*
X153959523Y-68430714D01*
X154054761Y-68478333D01*
X154102380Y-68573571D01*
X154102380Y-68668809D01*
X153626190Y-68764047D01*
X154530952Y-68716428D02*
X155292857Y-68716428D01*
X149388095Y-70659761D02*
X149530952Y-70707380D01*
X149769047Y-70707380D01*
X149864285Y-70659761D01*
X149911904Y-70612142D01*
X149959523Y-70516904D01*
X149959523Y-70421666D01*
X149911904Y-70326428D01*
X149864285Y-70278809D01*
X149769047Y-70231190D01*
X149578571Y-70183571D01*
X149483333Y-70135952D01*
X149435714Y-70088333D01*
X149388095Y-69993095D01*
X149388095Y-69897857D01*
X149435714Y-69802619D01*
X149483333Y-69755000D01*
X149578571Y-69707380D01*
X149816666Y-69707380D01*
X149959523Y-69755000D01*
X150769047Y-70659761D02*
X150673809Y-70707380D01*
X150483333Y-70707380D01*
X150388095Y-70659761D01*
X150340476Y-70564523D01*
X150340476Y-70183571D01*
X150388095Y-70088333D01*
X150483333Y-70040714D01*
X150673809Y-70040714D01*
X150769047Y-70088333D01*
X150816666Y-70183571D01*
X150816666Y-70278809D01*
X150340476Y-70374047D01*
X151388095Y-70707380D02*
X151292857Y-70659761D01*
X151245238Y-70564523D01*
X151245238Y-69707380D01*
X152150000Y-70659761D02*
X152054761Y-70707380D01*
X151864285Y-70707380D01*
X151769047Y-70659761D01*
X151721428Y-70564523D01*
X151721428Y-70183571D01*
X151769047Y-70088333D01*
X151864285Y-70040714D01*
X152054761Y-70040714D01*
X152150000Y-70088333D01*
X152197619Y-70183571D01*
X152197619Y-70278809D01*
X151721428Y-70374047D01*
X153054761Y-70659761D02*
X152959523Y-70707380D01*
X152769047Y-70707380D01*
X152673809Y-70659761D01*
X152626190Y-70612142D01*
X152578571Y-70516904D01*
X152578571Y-70231190D01*
X152626190Y-70135952D01*
X152673809Y-70088333D01*
X152769047Y-70040714D01*
X152959523Y-70040714D01*
X153054761Y-70088333D01*
X153340476Y-70040714D02*
X153721428Y-70040714D01*
X153483333Y-69707380D02*
X153483333Y-70564523D01*
X153530952Y-70659761D01*
X153626190Y-70707380D01*
X153721428Y-70707380D01*
X154054761Y-70707380D02*
X154054761Y-70040714D01*
X154054761Y-69707380D02*
X154007142Y-69755000D01*
X154054761Y-69802619D01*
X154102380Y-69755000D01*
X154054761Y-69707380D01*
X154054761Y-69802619D01*
X154673809Y-70707380D02*
X154578571Y-70659761D01*
X154530952Y-70612142D01*
X154483333Y-70516904D01*
X154483333Y-70231190D01*
X154530952Y-70135952D01*
X154578571Y-70088333D01*
X154673809Y-70040714D01*
X154816666Y-70040714D01*
X154911904Y-70088333D01*
X154959523Y-70135952D01*
X155007142Y-70231190D01*
X155007142Y-70516904D01*
X154959523Y-70612142D01*
X154911904Y-70659761D01*
X154816666Y-70707380D01*
X154673809Y-70707380D01*
X155435714Y-70040714D02*
X155435714Y-70707380D01*
X155435714Y-70135952D02*
X155483333Y-70088333D01*
X155578571Y-70040714D01*
X155721428Y-70040714D01*
X155816666Y-70088333D01*
X155864285Y-70183571D01*
X155864285Y-70707380D01*
X99738333Y-59442857D02*
X99738333Y-59919047D01*
X99452619Y-59347619D02*
X100452619Y-59680952D01*
X99452619Y-60014285D01*
X99452619Y-60347619D02*
X100119285Y-60347619D01*
X99928809Y-60347619D02*
X100024047Y-60395238D01*
X100071666Y-60442857D01*
X100119285Y-60538095D01*
X100119285Y-60633333D01*
X99452619Y-61395238D02*
X100452619Y-61395238D01*
X99500238Y-61395238D02*
X99452619Y-61300000D01*
X99452619Y-61109523D01*
X99500238Y-61014285D01*
X99547857Y-60966666D01*
X99643095Y-60919047D01*
X99928809Y-60919047D01*
X100024047Y-60966666D01*
X100071666Y-61014285D01*
X100119285Y-61109523D01*
X100119285Y-61300000D01*
X100071666Y-61395238D01*
X100119285Y-62300000D02*
X99452619Y-62300000D01*
X100119285Y-61871428D02*
X99595476Y-61871428D01*
X99500238Y-61919047D01*
X99452619Y-62014285D01*
X99452619Y-62157142D01*
X99500238Y-62252380D01*
X99547857Y-62300000D01*
X99452619Y-62776190D02*
X100119285Y-62776190D01*
X100452619Y-62776190D02*
X100405000Y-62728571D01*
X100357380Y-62776190D01*
X100405000Y-62823809D01*
X100452619Y-62776190D01*
X100357380Y-62776190D01*
X100119285Y-63252380D02*
X99452619Y-63252380D01*
X100024047Y-63252380D02*
X100071666Y-63300000D01*
X100119285Y-63395238D01*
X100119285Y-63538095D01*
X100071666Y-63633333D01*
X99976428Y-63680952D01*
X99452619Y-63680952D01*
X99452619Y-64300000D02*
X99500238Y-64204761D01*
X99547857Y-64157142D01*
X99643095Y-64109523D01*
X99928809Y-64109523D01*
X100024047Y-64157142D01*
X100071666Y-64204761D01*
X100119285Y-64300000D01*
X100119285Y-64442857D01*
X100071666Y-64538095D01*
X100024047Y-64585714D01*
X99928809Y-64633333D01*
X99643095Y-64633333D01*
X99547857Y-64585714D01*
X99500238Y-64538095D01*
X99452619Y-64442857D01*
X99452619Y-64300000D01*
X99452619Y-65823809D02*
X100452619Y-65823809D01*
X99452619Y-66395238D01*
X100452619Y-66395238D01*
X99452619Y-67300000D02*
X99976428Y-67300000D01*
X100071666Y-67252380D01*
X100119285Y-67157142D01*
X100119285Y-66966666D01*
X100071666Y-66871428D01*
X99500238Y-67300000D02*
X99452619Y-67204761D01*
X99452619Y-66966666D01*
X99500238Y-66871428D01*
X99595476Y-66823809D01*
X99690714Y-66823809D01*
X99785952Y-66871428D01*
X99833571Y-66966666D01*
X99833571Y-67204761D01*
X99881190Y-67300000D01*
X100119285Y-67776190D02*
X99452619Y-67776190D01*
X100024047Y-67776190D02*
X100071666Y-67823809D01*
X100119285Y-67919047D01*
X100119285Y-68061904D01*
X100071666Y-68157142D01*
X99976428Y-68204761D01*
X99452619Y-68204761D01*
X99452619Y-68823809D02*
X99500238Y-68728571D01*
X99547857Y-68680952D01*
X99643095Y-68633333D01*
X99928809Y-68633333D01*
X100024047Y-68680952D01*
X100071666Y-68728571D01*
X100119285Y-68823809D01*
X100119285Y-68966666D01*
X100071666Y-69061904D01*
X100024047Y-69109523D01*
X99928809Y-69157142D01*
X99643095Y-69157142D01*
X99547857Y-69109523D01*
X99500238Y-69061904D01*
X99452619Y-68966666D01*
X99452619Y-68823809D01*
X98842619Y-61038095D02*
X98033095Y-61038095D01*
X97937857Y-61085714D01*
X97890238Y-61133333D01*
X97842619Y-61228571D01*
X97842619Y-61419047D01*
X97890238Y-61514285D01*
X97937857Y-61561904D01*
X98033095Y-61609523D01*
X98842619Y-61609523D01*
X97890238Y-62038095D02*
X97842619Y-62180952D01*
X97842619Y-62419047D01*
X97890238Y-62514285D01*
X97937857Y-62561904D01*
X98033095Y-62609523D01*
X98128333Y-62609523D01*
X98223571Y-62561904D01*
X98271190Y-62514285D01*
X98318809Y-62419047D01*
X98366428Y-62228571D01*
X98414047Y-62133333D01*
X98461666Y-62085714D01*
X98556904Y-62038095D01*
X98652142Y-62038095D01*
X98747380Y-62085714D01*
X98795000Y-62133333D01*
X98842619Y-62228571D01*
X98842619Y-62466666D01*
X98795000Y-62609523D01*
X98366428Y-63371428D02*
X98318809Y-63514285D01*
X98271190Y-63561904D01*
X98175952Y-63609523D01*
X98033095Y-63609523D01*
X97937857Y-63561904D01*
X97890238Y-63514285D01*
X97842619Y-63419047D01*
X97842619Y-63038095D01*
X98842619Y-63038095D01*
X98842619Y-63371428D01*
X98795000Y-63466666D01*
X98747380Y-63514285D01*
X98652142Y-63561904D01*
X98556904Y-63561904D01*
X98461666Y-63514285D01*
X98414047Y-63466666D01*
X98366428Y-63371428D01*
X98366428Y-63038095D01*
X97842619Y-64800000D02*
X98842619Y-64800000D01*
X97842619Y-65228571D02*
X98366428Y-65228571D01*
X98461666Y-65180952D01*
X98509285Y-65085714D01*
X98509285Y-64942857D01*
X98461666Y-64847619D01*
X98414047Y-64800000D01*
X97890238Y-66085714D02*
X97842619Y-65990476D01*
X97842619Y-65800000D01*
X97890238Y-65704761D01*
X97985476Y-65657142D01*
X98366428Y-65657142D01*
X98461666Y-65704761D01*
X98509285Y-65800000D01*
X98509285Y-65990476D01*
X98461666Y-66085714D01*
X98366428Y-66133333D01*
X98271190Y-66133333D01*
X98175952Y-65657142D01*
X97842619Y-66561904D02*
X98509285Y-66561904D01*
X98318809Y-66561904D02*
X98414047Y-66609523D01*
X98461666Y-66657142D01*
X98509285Y-66752380D01*
X98509285Y-66847619D01*
X97890238Y-67561904D02*
X97842619Y-67466666D01*
X97842619Y-67276190D01*
X97890238Y-67180952D01*
X97985476Y-67133333D01*
X98366428Y-67133333D01*
X98461666Y-67180952D01*
X98509285Y-67276190D01*
X98509285Y-67466666D01*
X98461666Y-67561904D01*
X98366428Y-67609523D01*
X98271190Y-67609523D01*
X98175952Y-67133333D01*
D10*
%TO.C,R4*%
X132900000Y-86271428D02*
X132700000Y-85985714D01*
X132557142Y-86271428D02*
X132557142Y-85671428D01*
X132785714Y-85671428D01*
X132842857Y-85700000D01*
X132871428Y-85728571D01*
X132900000Y-85785714D01*
X132900000Y-85871428D01*
X132871428Y-85928571D01*
X132842857Y-85957142D01*
X132785714Y-85985714D01*
X132557142Y-85985714D01*
X133414285Y-85871428D02*
X133414285Y-86271428D01*
X133271428Y-85642857D02*
X133128571Y-86071428D01*
X133500000Y-86071428D01*
%TO.C,R2*%
X116900000Y-86271428D02*
X116700000Y-85985714D01*
X116557142Y-86271428D02*
X116557142Y-85671428D01*
X116785714Y-85671428D01*
X116842857Y-85700000D01*
X116871428Y-85728571D01*
X116900000Y-85785714D01*
X116900000Y-85871428D01*
X116871428Y-85928571D01*
X116842857Y-85957142D01*
X116785714Y-85985714D01*
X116557142Y-85985714D01*
X117128571Y-85728571D02*
X117157142Y-85700000D01*
X117214285Y-85671428D01*
X117357142Y-85671428D01*
X117414285Y-85700000D01*
X117442857Y-85728571D01*
X117471428Y-85785714D01*
X117471428Y-85842857D01*
X117442857Y-85928571D01*
X117100000Y-86271428D01*
X117471428Y-86271428D01*
%TO.C,R0*%
X100800000Y-86296428D02*
X100600000Y-86010714D01*
X100457142Y-86296428D02*
X100457142Y-85696428D01*
X100685714Y-85696428D01*
X100742857Y-85725000D01*
X100771428Y-85753571D01*
X100800000Y-85810714D01*
X100800000Y-85896428D01*
X100771428Y-85953571D01*
X100742857Y-85982142D01*
X100685714Y-86010714D01*
X100457142Y-86010714D01*
X101171428Y-85696428D02*
X101228571Y-85696428D01*
X101285714Y-85725000D01*
X101314285Y-85753571D01*
X101342857Y-85810714D01*
X101371428Y-85925000D01*
X101371428Y-86067857D01*
X101342857Y-86182142D01*
X101314285Y-86239285D01*
X101285714Y-86267857D01*
X101228571Y-86296428D01*
X101171428Y-86296428D01*
X101114285Y-86267857D01*
X101085714Y-86239285D01*
X101057142Y-86182142D01*
X101028571Y-86067857D01*
X101028571Y-85925000D01*
X101057142Y-85810714D01*
X101085714Y-85753571D01*
X101114285Y-85725000D01*
X101171428Y-85696428D01*
%TO.C,R3*%
X124900000Y-86271428D02*
X124700000Y-85985714D01*
X124557142Y-86271428D02*
X124557142Y-85671428D01*
X124785714Y-85671428D01*
X124842857Y-85700000D01*
X124871428Y-85728571D01*
X124900000Y-85785714D01*
X124900000Y-85871428D01*
X124871428Y-85928571D01*
X124842857Y-85957142D01*
X124785714Y-85985714D01*
X124557142Y-85985714D01*
X125100000Y-85671428D02*
X125471428Y-85671428D01*
X125271428Y-85900000D01*
X125357142Y-85900000D01*
X125414285Y-85928571D01*
X125442857Y-85957142D01*
X125471428Y-86014285D01*
X125471428Y-86157142D01*
X125442857Y-86214285D01*
X125414285Y-86242857D01*
X125357142Y-86271428D01*
X125185714Y-86271428D01*
X125128571Y-86242857D01*
X125100000Y-86214285D01*
%TO.C,R1*%
X108900000Y-86271428D02*
X108700000Y-85985714D01*
X108557142Y-86271428D02*
X108557142Y-85671428D01*
X108785714Y-85671428D01*
X108842857Y-85700000D01*
X108871428Y-85728571D01*
X108900000Y-85785714D01*
X108900000Y-85871428D01*
X108871428Y-85928571D01*
X108842857Y-85957142D01*
X108785714Y-85985714D01*
X108557142Y-85985714D01*
X109471428Y-86271428D02*
X109128571Y-86271428D01*
X109300000Y-86271428D02*
X109300000Y-85671428D01*
X109242857Y-85757142D01*
X109185714Y-85814285D01*
X109128571Y-85842857D01*
D12*
%TO.C,NTC5*%
X140452380Y-108642857D02*
X139452380Y-108642857D01*
X140452380Y-108071428D01*
X139452380Y-108071428D01*
X139452380Y-107738095D02*
X139452380Y-107166666D01*
X140452380Y-107452380D02*
X139452380Y-107452380D01*
X140357142Y-106261904D02*
X140404761Y-106309523D01*
X140452380Y-106452380D01*
X140452380Y-106547619D01*
X140404761Y-106690476D01*
X140309523Y-106785714D01*
X140214285Y-106833333D01*
X140023809Y-106880952D01*
X139880952Y-106880952D01*
X139690476Y-106833333D01*
X139595238Y-106785714D01*
X139500000Y-106690476D01*
X139452380Y-106547619D01*
X139452380Y-106452380D01*
X139500000Y-106309523D01*
X139547619Y-106261904D01*
X139452380Y-105357142D02*
X139452380Y-105833333D01*
X139928571Y-105880952D01*
X139880952Y-105833333D01*
X139833333Y-105738095D01*
X139833333Y-105500000D01*
X139880952Y-105404761D01*
X139928571Y-105357142D01*
X140023809Y-105309523D01*
X140261904Y-105309523D01*
X140357142Y-105357142D01*
X140404761Y-105404761D01*
X140452380Y-105500000D01*
X140452380Y-105738095D01*
X140404761Y-105833333D01*
X140357142Y-105880952D01*
D10*
%TO.C,R6*%
X148900000Y-86271428D02*
X148700000Y-85985714D01*
X148557142Y-86271428D02*
X148557142Y-85671428D01*
X148785714Y-85671428D01*
X148842857Y-85700000D01*
X148871428Y-85728571D01*
X148900000Y-85785714D01*
X148900000Y-85871428D01*
X148871428Y-85928571D01*
X148842857Y-85957142D01*
X148785714Y-85985714D01*
X148557142Y-85985714D01*
X149414285Y-85671428D02*
X149300000Y-85671428D01*
X149242857Y-85700000D01*
X149214285Y-85728571D01*
X149157142Y-85814285D01*
X149128571Y-85928571D01*
X149128571Y-86157142D01*
X149157142Y-86214285D01*
X149185714Y-86242857D01*
X149242857Y-86271428D01*
X149357142Y-86271428D01*
X149414285Y-86242857D01*
X149442857Y-86214285D01*
X149471428Y-86157142D01*
X149471428Y-86014285D01*
X149442857Y-85957142D01*
X149414285Y-85928571D01*
X149357142Y-85900000D01*
X149242857Y-85900000D01*
X149185714Y-85928571D01*
X149157142Y-85957142D01*
X149128571Y-86014285D01*
D13*
%TO.C,XA0*%
X95971190Y-64958952D02*
X96375952Y-64958952D01*
X96423571Y-64935142D01*
X96447380Y-64911333D01*
X96471190Y-64863714D01*
X96471190Y-64768476D01*
X96447380Y-64720857D01*
X96423571Y-64697047D01*
X96375952Y-64673238D01*
X95971190Y-64673238D01*
X96447380Y-64458952D02*
X96471190Y-64387523D01*
X96471190Y-64268476D01*
X96447380Y-64220857D01*
X96423571Y-64197047D01*
X96375952Y-64173238D01*
X96328333Y-64173238D01*
X96280714Y-64197047D01*
X96256904Y-64220857D01*
X96233095Y-64268476D01*
X96209285Y-64363714D01*
X96185476Y-64411333D01*
X96161666Y-64435142D01*
X96114047Y-64458952D01*
X96066428Y-64458952D01*
X96018809Y-64435142D01*
X95995000Y-64411333D01*
X95971190Y-64363714D01*
X95971190Y-64244666D01*
X95995000Y-64173238D01*
X96209285Y-63792285D02*
X96233095Y-63720857D01*
X96256904Y-63697047D01*
X96304523Y-63673238D01*
X96375952Y-63673238D01*
X96423571Y-63697047D01*
X96447380Y-63720857D01*
X96471190Y-63768476D01*
X96471190Y-63958952D01*
X95971190Y-63958952D01*
X95971190Y-63792285D01*
X95995000Y-63744666D01*
X96018809Y-63720857D01*
X96066428Y-63697047D01*
X96114047Y-63697047D01*
X96161666Y-63720857D01*
X96185476Y-63744666D01*
X96209285Y-63792285D01*
X96209285Y-63958952D01*
D12*
%TO.C,NTC0*%
X100352380Y-108692857D02*
X99352380Y-108692857D01*
X100352380Y-108121428D01*
X99352380Y-108121428D01*
X99352380Y-107788095D02*
X99352380Y-107216666D01*
X100352380Y-107502380D02*
X99352380Y-107502380D01*
X100257142Y-106311904D02*
X100304761Y-106359523D01*
X100352380Y-106502380D01*
X100352380Y-106597619D01*
X100304761Y-106740476D01*
X100209523Y-106835714D01*
X100114285Y-106883333D01*
X99923809Y-106930952D01*
X99780952Y-106930952D01*
X99590476Y-106883333D01*
X99495238Y-106835714D01*
X99400000Y-106740476D01*
X99352380Y-106597619D01*
X99352380Y-106502380D01*
X99400000Y-106359523D01*
X99447619Y-106311904D01*
X99352380Y-105692857D02*
X99352380Y-105597619D01*
X99400000Y-105502380D01*
X99447619Y-105454761D01*
X99542857Y-105407142D01*
X99733333Y-105359523D01*
X99971428Y-105359523D01*
X100161904Y-105407142D01*
X100257142Y-105454761D01*
X100304761Y-105502380D01*
X100352380Y-105597619D01*
X100352380Y-105692857D01*
X100304761Y-105788095D01*
X100257142Y-105835714D01*
X100161904Y-105883333D01*
X99971428Y-105930952D01*
X99733333Y-105930952D01*
X99542857Y-105883333D01*
X99447619Y-105835714D01*
X99400000Y-105788095D01*
X99352380Y-105692857D01*
D10*
%TO.C,R5*%
X140900000Y-86271428D02*
X140700000Y-85985714D01*
X140557142Y-86271428D02*
X140557142Y-85671428D01*
X140785714Y-85671428D01*
X140842857Y-85700000D01*
X140871428Y-85728571D01*
X140900000Y-85785714D01*
X140900000Y-85871428D01*
X140871428Y-85928571D01*
X140842857Y-85957142D01*
X140785714Y-85985714D01*
X140557142Y-85985714D01*
X141442857Y-85671428D02*
X141157142Y-85671428D01*
X141128571Y-85957142D01*
X141157142Y-85928571D01*
X141214285Y-85900000D01*
X141357142Y-85900000D01*
X141414285Y-85928571D01*
X141442857Y-85957142D01*
X141471428Y-86014285D01*
X141471428Y-86157142D01*
X141442857Y-86214285D01*
X141414285Y-86242857D01*
X141357142Y-86271428D01*
X141214285Y-86271428D01*
X141157142Y-86242857D01*
X141128571Y-86214285D01*
D12*
%TO.C,NTC6*%
X148452380Y-108642857D02*
X147452380Y-108642857D01*
X148452380Y-108071428D01*
X147452380Y-108071428D01*
X147452380Y-107738095D02*
X147452380Y-107166666D01*
X148452380Y-107452380D02*
X147452380Y-107452380D01*
X148357142Y-106261904D02*
X148404761Y-106309523D01*
X148452380Y-106452380D01*
X148452380Y-106547619D01*
X148404761Y-106690476D01*
X148309523Y-106785714D01*
X148214285Y-106833333D01*
X148023809Y-106880952D01*
X147880952Y-106880952D01*
X147690476Y-106833333D01*
X147595238Y-106785714D01*
X147500000Y-106690476D01*
X147452380Y-106547619D01*
X147452380Y-106452380D01*
X147500000Y-106309523D01*
X147547619Y-106261904D01*
X147452380Y-105404761D02*
X147452380Y-105595238D01*
X147500000Y-105690476D01*
X147547619Y-105738095D01*
X147690476Y-105833333D01*
X147880952Y-105880952D01*
X148261904Y-105880952D01*
X148357142Y-105833333D01*
X148404761Y-105785714D01*
X148452380Y-105690476D01*
X148452380Y-105500000D01*
X148404761Y-105404761D01*
X148357142Y-105357142D01*
X148261904Y-105309523D01*
X148023809Y-105309523D01*
X147928571Y-105357142D01*
X147880952Y-105404761D01*
X147833333Y-105500000D01*
X147833333Y-105690476D01*
X147880952Y-105785714D01*
X147928571Y-105833333D01*
X148023809Y-105880952D01*
%TO.C,NTC4*%
X132452380Y-108642857D02*
X131452380Y-108642857D01*
X132452380Y-108071428D01*
X131452380Y-108071428D01*
X131452380Y-107738095D02*
X131452380Y-107166666D01*
X132452380Y-107452380D02*
X131452380Y-107452380D01*
X132357142Y-106261904D02*
X132404761Y-106309523D01*
X132452380Y-106452380D01*
X132452380Y-106547619D01*
X132404761Y-106690476D01*
X132309523Y-106785714D01*
X132214285Y-106833333D01*
X132023809Y-106880952D01*
X131880952Y-106880952D01*
X131690476Y-106833333D01*
X131595238Y-106785714D01*
X131500000Y-106690476D01*
X131452380Y-106547619D01*
X131452380Y-106452380D01*
X131500000Y-106309523D01*
X131547619Y-106261904D01*
X131785714Y-105404761D02*
X132452380Y-105404761D01*
X131404761Y-105642857D02*
X132119047Y-105880952D01*
X132119047Y-105261904D01*
%TO.C,NTC2*%
X116452380Y-108642857D02*
X115452380Y-108642857D01*
X116452380Y-108071428D01*
X115452380Y-108071428D01*
X115452380Y-107738095D02*
X115452380Y-107166666D01*
X116452380Y-107452380D02*
X115452380Y-107452380D01*
X116357142Y-106261904D02*
X116404761Y-106309523D01*
X116452380Y-106452380D01*
X116452380Y-106547619D01*
X116404761Y-106690476D01*
X116309523Y-106785714D01*
X116214285Y-106833333D01*
X116023809Y-106880952D01*
X115880952Y-106880952D01*
X115690476Y-106833333D01*
X115595238Y-106785714D01*
X115500000Y-106690476D01*
X115452380Y-106547619D01*
X115452380Y-106452380D01*
X115500000Y-106309523D01*
X115547619Y-106261904D01*
X115547619Y-105880952D02*
X115500000Y-105833333D01*
X115452380Y-105738095D01*
X115452380Y-105500000D01*
X115500000Y-105404761D01*
X115547619Y-105357142D01*
X115642857Y-105309523D01*
X115738095Y-105309523D01*
X115880952Y-105357142D01*
X116452380Y-105928571D01*
X116452380Y-105309523D01*
%TO.C,NTC3*%
X124452380Y-108642857D02*
X123452380Y-108642857D01*
X124452380Y-108071428D01*
X123452380Y-108071428D01*
X123452380Y-107738095D02*
X123452380Y-107166666D01*
X124452380Y-107452380D02*
X123452380Y-107452380D01*
X124357142Y-106261904D02*
X124404761Y-106309523D01*
X124452380Y-106452380D01*
X124452380Y-106547619D01*
X124404761Y-106690476D01*
X124309523Y-106785714D01*
X124214285Y-106833333D01*
X124023809Y-106880952D01*
X123880952Y-106880952D01*
X123690476Y-106833333D01*
X123595238Y-106785714D01*
X123500000Y-106690476D01*
X123452380Y-106547619D01*
X123452380Y-106452380D01*
X123500000Y-106309523D01*
X123547619Y-106261904D01*
X123452380Y-105928571D02*
X123452380Y-105309523D01*
X123833333Y-105642857D01*
X123833333Y-105500000D01*
X123880952Y-105404761D01*
X123928571Y-105357142D01*
X124023809Y-105309523D01*
X124261904Y-105309523D01*
X124357142Y-105357142D01*
X124404761Y-105404761D01*
X124452380Y-105500000D01*
X124452380Y-105785714D01*
X124404761Y-105880952D01*
X124357142Y-105928571D01*
%TO.C,NTC7*%
X156452380Y-108642857D02*
X155452380Y-108642857D01*
X156452380Y-108071428D01*
X155452380Y-108071428D01*
X155452380Y-107738095D02*
X155452380Y-107166666D01*
X156452380Y-107452380D02*
X155452380Y-107452380D01*
X156357142Y-106261904D02*
X156404761Y-106309523D01*
X156452380Y-106452380D01*
X156452380Y-106547619D01*
X156404761Y-106690476D01*
X156309523Y-106785714D01*
X156214285Y-106833333D01*
X156023809Y-106880952D01*
X155880952Y-106880952D01*
X155690476Y-106833333D01*
X155595238Y-106785714D01*
X155500000Y-106690476D01*
X155452380Y-106547619D01*
X155452380Y-106452380D01*
X155500000Y-106309523D01*
X155547619Y-106261904D01*
X155452380Y-105928571D02*
X155452380Y-105261904D01*
X156452380Y-105690476D01*
%TO.C,NTC1*%
X108552380Y-108792857D02*
X107552380Y-108792857D01*
X108552380Y-108221428D01*
X107552380Y-108221428D01*
X107552380Y-107888095D02*
X107552380Y-107316666D01*
X108552380Y-107602380D02*
X107552380Y-107602380D01*
X108457142Y-106411904D02*
X108504761Y-106459523D01*
X108552380Y-106602380D01*
X108552380Y-106697619D01*
X108504761Y-106840476D01*
X108409523Y-106935714D01*
X108314285Y-106983333D01*
X108123809Y-107030952D01*
X107980952Y-107030952D01*
X107790476Y-106983333D01*
X107695238Y-106935714D01*
X107600000Y-106840476D01*
X107552380Y-106697619D01*
X107552380Y-106602380D01*
X107600000Y-106459523D01*
X107647619Y-106411904D01*
X108552380Y-105459523D02*
X108552380Y-106030952D01*
X108552380Y-105745238D02*
X107552380Y-105745238D01*
X107695238Y-105840476D01*
X107790476Y-105935714D01*
X107838095Y-106030952D01*
D10*
%TO.C,R7*%
X156900000Y-86296428D02*
X156700000Y-86010714D01*
X156557142Y-86296428D02*
X156557142Y-85696428D01*
X156785714Y-85696428D01*
X156842857Y-85725000D01*
X156871428Y-85753571D01*
X156900000Y-85810714D01*
X156900000Y-85896428D01*
X156871428Y-85953571D01*
X156842857Y-85982142D01*
X156785714Y-86010714D01*
X156557142Y-86010714D01*
X157100000Y-85696428D02*
X157500000Y-85696428D01*
X157242857Y-86296428D01*
D14*
%TO.C,J0*%
X145180000Y-40030000D02*
X161820000Y-40030000D01*
X145180000Y-56000000D02*
X161865000Y-56000000D01*
X161865000Y-40030000D02*
X161865000Y-47640000D01*
X144440000Y-46940000D02*
X144940000Y-47440000D01*
X145135000Y-40030000D02*
X145135000Y-47640000D01*
X161865000Y-56000000D02*
X161865000Y-50440000D01*
X144440000Y-47940000D02*
X144440000Y-46940000D01*
X145135000Y-56000000D02*
X145135000Y-50440000D01*
X144940000Y-47440000D02*
X144440000Y-47940000D01*
%TO.C,J1*%
X146090000Y-64005000D02*
X146090000Y-61345000D01*
X163930000Y-64005000D02*
X163930000Y-61345000D01*
X146090000Y-64005000D02*
X163930000Y-64005000D01*
X144820000Y-64005000D02*
X143490000Y-64005000D01*
X146090000Y-61345000D02*
X163930000Y-61345000D01*
X143490000Y-64005000D02*
X143490000Y-62675000D01*
%TO.C,R4*%
X135412258Y-85477500D02*
X134937742Y-85477500D01*
X135412258Y-86522500D02*
X134937742Y-86522500D01*
%TO.C,R2*%
X119412258Y-85477500D02*
X118937742Y-85477500D01*
X119412258Y-86522500D02*
X118937742Y-86522500D01*
%TO.C,R0*%
X103412258Y-85477500D02*
X102937742Y-85477500D01*
X103412258Y-86522500D02*
X102937742Y-86522500D01*
%TO.C,R3*%
X127412258Y-85477500D02*
X126937742Y-85477500D01*
X127412258Y-86522500D02*
X126937742Y-86522500D01*
%TO.C,NTC6-Pin0*%
X148170000Y-91855000D02*
X148170000Y-90525000D01*
X150770000Y-91855000D02*
X150770000Y-89195000D01*
X150770000Y-91855000D02*
X153370000Y-91855000D01*
X149500000Y-91855000D02*
X148170000Y-91855000D01*
X153370000Y-91855000D02*
X153370000Y-89195000D01*
X150770000Y-89195000D02*
X153370000Y-89195000D01*
%TO.C,R1*%
X111412258Y-85477500D02*
X110937742Y-85477500D01*
X111412258Y-86522500D02*
X110937742Y-86522500D01*
%TO.C,Freq_Pins0*%
X171030000Y-71030000D02*
X171030000Y-73630000D01*
X168370000Y-71030000D02*
X168370000Y-73630000D01*
X168370000Y-71030000D02*
X171030000Y-71030000D01*
X168370000Y-73630000D02*
X171030000Y-73630000D01*
X168370000Y-69760000D02*
X168370000Y-68430000D01*
X168370000Y-68430000D02*
X169700000Y-68430000D01*
%TO.C,ArdTopPins0*%
X135013000Y-48420000D02*
X99393000Y-48420000D01*
X135013000Y-48420000D02*
X135013000Y-51080000D01*
X99393000Y-48420000D02*
X99393000Y-51080000D01*
X135013000Y-51080000D02*
X99393000Y-51080000D01*
X136283000Y-48420000D02*
X137613000Y-48420000D01*
X137613000Y-48420000D02*
X137613000Y-49750000D01*
%TO.C,NTC5*%
X146000000Y-102715000D02*
X146810000Y-102715000D01*
X144300000Y-99615000D02*
X144300000Y-98335000D01*
X146600000Y-101425000D02*
X146600000Y-102025000D01*
X141190000Y-102715000D02*
X141190000Y-115735000D01*
X142000000Y-102715000D02*
X141190000Y-102715000D01*
X143700000Y-99615000D02*
X143700000Y-98335000D01*
X146810000Y-115735000D02*
X144000000Y-115735000D01*
X146600000Y-102025000D02*
X146000000Y-101725000D01*
X141190000Y-115735000D02*
X144000000Y-115735000D01*
X146810000Y-102715000D02*
X146810000Y-115735000D01*
X146000000Y-101725000D02*
X146600000Y-101425000D01*
%TO.C,R6*%
X151412258Y-86522500D02*
X150937742Y-86522500D01*
X151412258Y-85477500D02*
X150937742Y-85477500D01*
D15*
%TO.C,J3*%
X173210000Y-85560000D02*
X173210000Y-78560000D01*
X166210000Y-85560000D02*
X173210000Y-85560000D01*
X166210000Y-85560000D02*
X166210000Y-78560000D01*
X166210000Y-78560000D02*
X173210000Y-78560000D01*
D14*
%TO.C,NTC7-Pin0*%
X158730000Y-91855000D02*
X158730000Y-89195000D01*
X158730000Y-91855000D02*
X161330000Y-91855000D01*
X156130000Y-91855000D02*
X156130000Y-90525000D01*
X161330000Y-91855000D02*
X161330000Y-89195000D01*
X157460000Y-91855000D02*
X156130000Y-91855000D01*
X158730000Y-89195000D02*
X161330000Y-89195000D01*
D12*
%TO.C,XA0*%
X95430000Y-60264000D02*
X95430000Y-68392000D01*
X96880000Y-55438000D02*
X96880000Y-73218000D01*
X95430000Y-68392000D02*
X96880000Y-68392000D01*
X140060000Y-55438000D02*
X140060000Y-73218000D01*
X140060000Y-73218000D02*
X96880000Y-73218000D01*
X96880000Y-60264000D02*
X95430000Y-60264000D01*
X140060000Y-55438000D02*
X96880000Y-55438000D01*
D14*
%TO.C,NTC0*%
X106810000Y-102740000D02*
X106810000Y-115760000D01*
X101190000Y-102740000D02*
X101190000Y-115760000D01*
X106600000Y-101450000D02*
X106600000Y-102050000D01*
X106000000Y-102740000D02*
X106810000Y-102740000D01*
X103700000Y-99640000D02*
X103700000Y-98360000D01*
X106000000Y-101750000D02*
X106600000Y-101450000D01*
X106810000Y-115760000D02*
X104000000Y-115760000D01*
X101190000Y-115760000D02*
X104000000Y-115760000D01*
X106600000Y-102050000D02*
X106000000Y-101750000D01*
X104300000Y-99640000D02*
X104300000Y-98360000D01*
X102000000Y-102740000D02*
X101190000Y-102740000D01*
%TO.C,NTC3-Pin0*%
X126730000Y-89195000D02*
X129330000Y-89195000D01*
X126730000Y-91855000D02*
X129330000Y-91855000D01*
X125460000Y-91855000D02*
X124130000Y-91855000D01*
X126730000Y-91855000D02*
X126730000Y-89195000D01*
X124130000Y-91855000D02*
X124130000Y-90525000D01*
X129330000Y-91855000D02*
X129330000Y-89195000D01*
%TO.C,R5*%
X143412258Y-86522500D02*
X142937742Y-86522500D01*
X143412258Y-85477500D02*
X142937742Y-85477500D01*
%TO.C,NTC6*%
X154810000Y-115760000D02*
X152000000Y-115760000D01*
X154000000Y-101750000D02*
X154600000Y-101450000D01*
X149190000Y-102740000D02*
X149190000Y-115760000D01*
X154000000Y-102740000D02*
X154810000Y-102740000D01*
X149190000Y-115760000D02*
X152000000Y-115760000D01*
X152300000Y-99640000D02*
X152300000Y-98360000D01*
X154600000Y-102050000D02*
X154000000Y-101750000D01*
X150000000Y-102740000D02*
X149190000Y-102740000D01*
X151700000Y-99640000D02*
X151700000Y-98360000D01*
X154600000Y-101450000D02*
X154600000Y-102050000D01*
X154810000Y-102740000D02*
X154810000Y-115760000D01*
%TO.C,NTC4*%
X136300000Y-99615000D02*
X136300000Y-98335000D01*
X138600000Y-101425000D02*
X138600000Y-102025000D01*
X133190000Y-115735000D02*
X136000000Y-115735000D01*
X135700000Y-99615000D02*
X135700000Y-98335000D01*
X138000000Y-101725000D02*
X138600000Y-101425000D01*
X133190000Y-102715000D02*
X133190000Y-115735000D01*
X138600000Y-102025000D02*
X138000000Y-101725000D01*
X138810000Y-102715000D02*
X138810000Y-115735000D01*
X138000000Y-102715000D02*
X138810000Y-102715000D01*
X134000000Y-102715000D02*
X133190000Y-102715000D01*
X138810000Y-115735000D02*
X136000000Y-115735000D01*
%TO.C,NTC2*%
X122810000Y-115760000D02*
X120000000Y-115760000D01*
X117190000Y-102740000D02*
X117190000Y-115760000D01*
X122000000Y-102740000D02*
X122810000Y-102740000D01*
X120300000Y-99640000D02*
X120300000Y-98360000D01*
X122600000Y-101450000D02*
X122600000Y-102050000D01*
X122600000Y-102050000D02*
X122000000Y-101750000D01*
X122000000Y-101750000D02*
X122600000Y-101450000D01*
X119700000Y-99640000D02*
X119700000Y-98360000D01*
X117190000Y-115760000D02*
X120000000Y-115760000D01*
X118000000Y-102740000D02*
X117190000Y-102740000D01*
X122810000Y-102740000D02*
X122810000Y-115760000D01*
%TO.C,NTC3*%
X130810000Y-102715000D02*
X130810000Y-115735000D01*
X130600000Y-101425000D02*
X130600000Y-102025000D01*
X130000000Y-102715000D02*
X130810000Y-102715000D01*
X127700000Y-99615000D02*
X127700000Y-98335000D01*
X130600000Y-102025000D02*
X130000000Y-101725000D01*
X125190000Y-115735000D02*
X128000000Y-115735000D01*
X130000000Y-101725000D02*
X130600000Y-101425000D01*
X126000000Y-102715000D02*
X125190000Y-102715000D01*
X125190000Y-102715000D02*
X125190000Y-115735000D01*
X128300000Y-99615000D02*
X128300000Y-98335000D01*
X130810000Y-115735000D02*
X128000000Y-115735000D01*
%TO.C,NTC7*%
X162810000Y-115735000D02*
X160000000Y-115735000D01*
X162810000Y-102715000D02*
X162810000Y-115735000D01*
X162600000Y-102025000D02*
X162000000Y-101725000D01*
X157190000Y-115735000D02*
X160000000Y-115735000D01*
X162000000Y-102715000D02*
X162810000Y-102715000D01*
X162000000Y-101725000D02*
X162600000Y-101425000D01*
X160300000Y-99615000D02*
X160300000Y-98335000D01*
X159700000Y-99615000D02*
X159700000Y-98335000D01*
X162600000Y-101425000D02*
X162600000Y-102025000D01*
X157190000Y-102715000D02*
X157190000Y-115735000D01*
X158000000Y-102715000D02*
X157190000Y-102715000D01*
%TO.C,NTC1*%
X114810000Y-115735000D02*
X112000000Y-115735000D01*
X112300000Y-99615000D02*
X112300000Y-98335000D01*
X114000000Y-101725000D02*
X114600000Y-101425000D01*
X114600000Y-102025000D02*
X114000000Y-101725000D01*
X110000000Y-102715000D02*
X109190000Y-102715000D01*
X109190000Y-115735000D02*
X112000000Y-115735000D01*
X114810000Y-102715000D02*
X114810000Y-115735000D01*
X114000000Y-102715000D02*
X114810000Y-102715000D01*
X114600000Y-101425000D02*
X114600000Y-102025000D01*
X109190000Y-102715000D02*
X109190000Y-115735000D01*
X111700000Y-99615000D02*
X111700000Y-98335000D01*
%TO.C,J2*%
X148830000Y-77830000D02*
X147500000Y-77830000D01*
X147500000Y-75230000D02*
X147500000Y-72630000D01*
X147500000Y-77830000D02*
X147500000Y-76500000D01*
X157780000Y-77830000D02*
X157780000Y-72630000D01*
X150100000Y-75230000D02*
X147500000Y-75230000D01*
X150100000Y-77830000D02*
X157780000Y-77830000D01*
X150100000Y-77830000D02*
X150100000Y-75230000D01*
X147500000Y-72630000D02*
X157780000Y-72630000D01*
%TO.C,NTC5-Pin0*%
X142770000Y-89195000D02*
X145370000Y-89195000D01*
X140170000Y-91855000D02*
X140170000Y-90525000D01*
X145370000Y-91855000D02*
X145370000Y-89195000D01*
X141500000Y-91855000D02*
X140170000Y-91855000D01*
X142770000Y-91855000D02*
X142770000Y-89195000D01*
X142770000Y-91855000D02*
X145370000Y-91855000D01*
%TO.C,NTC0-Pin0*%
X101460000Y-91855000D02*
X100130000Y-91855000D01*
X102730000Y-91855000D02*
X105330000Y-91855000D01*
X102730000Y-91855000D02*
X102730000Y-89195000D01*
X105330000Y-91855000D02*
X105330000Y-89195000D01*
X100130000Y-91855000D02*
X100130000Y-90525000D01*
X102730000Y-89195000D02*
X105330000Y-89195000D01*
%TO.C,R7*%
X159412258Y-86522500D02*
X158937742Y-86522500D01*
X159412258Y-85477500D02*
X158937742Y-85477500D01*
%TO.C,NTC4-Pin0*%
X133460000Y-91855000D02*
X132130000Y-91855000D01*
X134730000Y-89195000D02*
X137330000Y-89195000D01*
X134730000Y-91855000D02*
X134730000Y-89195000D01*
X137330000Y-91855000D02*
X137330000Y-89195000D01*
X132130000Y-91855000D02*
X132130000Y-90525000D01*
X134730000Y-91855000D02*
X137330000Y-91855000D01*
%TO.C,NTC1-Pin0*%
X113330000Y-91855000D02*
X113330000Y-89195000D01*
X109460000Y-91855000D02*
X108130000Y-91855000D01*
X110730000Y-89195000D02*
X113330000Y-89195000D01*
X108130000Y-91855000D02*
X108130000Y-90525000D01*
X110730000Y-91855000D02*
X113330000Y-91855000D01*
X110730000Y-91855000D02*
X110730000Y-89195000D01*
%TO.C,ArdNanoBotPins0*%
X101940000Y-77670000D02*
X137560000Y-77670000D01*
X101940000Y-80330000D02*
X101940000Y-77670000D01*
X137560000Y-80330000D02*
X137560000Y-77670000D01*
X99340000Y-80330000D02*
X99340000Y-79000000D01*
X100670000Y-80330000D02*
X99340000Y-80330000D01*
X101940000Y-80330000D02*
X137560000Y-80330000D01*
%TO.C,NTC2-Pin0*%
X118730000Y-91855000D02*
X121330000Y-91855000D01*
X121330000Y-91855000D02*
X121330000Y-89195000D01*
X118730000Y-91855000D02*
X118730000Y-89195000D01*
X116130000Y-91855000D02*
X116130000Y-90525000D01*
X118730000Y-89195000D02*
X121330000Y-89195000D01*
X117460000Y-91855000D02*
X116130000Y-91855000D01*
%TD*%
M02*
