%TF.GenerationSoftware,KiCad,Pcbnew,(6.0.1-0)*%
%TF.CreationDate,2022-09-06T14:47:32+02:00*%
%TF.ProjectId,nano_board,6e616e6f-5f62-46f6-9172-642e6b696361,rev?*%
%TF.SameCoordinates,Original*%
%TF.FileFunction,Copper,L1,Top*%
%TF.FilePolarity,Positive*%
%FSLAX46Y46*%
G04 Gerber Fmt 4.6, Leading zero omitted, Abs format (unit mm)*
G04 Created by KiCad (PCBNEW (6.0.1-0)) date 2022-09-06 14:47:32*
%MOMM*%
%LPD*%
G01*
G04 APERTURE LIST*
G04 Aperture macros list*
%AMRoundRect*
0 Rectangle with rounded corners*
0 $1 Rounding radius*
0 $2 $3 $4 $5 $6 $7 $8 $9 X,Y pos of 4 corners*
0 Add a 4 corners polygon primitive as box body*
4,1,4,$2,$3,$4,$5,$6,$7,$8,$9,$2,$3,0*
0 Add four circle primitives for the rounded corners*
1,1,$1+$1,$2,$3*
1,1,$1+$1,$4,$5*
1,1,$1+$1,$6,$7*
1,1,$1+$1,$8,$9*
0 Add four rect primitives between the rounded corners*
20,1,$1+$1,$2,$3,$4,$5,0*
20,1,$1+$1,$4,$5,$6,$7,0*
20,1,$1+$1,$6,$7,$8,$9,0*
20,1,$1+$1,$8,$9,$2,$3,0*%
G04 Aperture macros list end*
%TA.AperFunction,ComponentPad*%
%ADD10C,2.300000*%
%TD*%
%TA.AperFunction,ComponentPad*%
%ADD11C,1.500000*%
%TD*%
%TA.AperFunction,ComponentPad*%
%ADD12R,1.500000X1.500000*%
%TD*%
%TA.AperFunction,ComponentPad*%
%ADD13R,1.700000X1.700000*%
%TD*%
%TA.AperFunction,ComponentPad*%
%ADD14O,1.700000X1.700000*%
%TD*%
%TA.AperFunction,SMDPad,CuDef*%
%ADD15RoundRect,0.100000X0.130000X0.100000X-0.130000X0.100000X-0.130000X-0.100000X0.130000X-0.100000X0*%
%TD*%
%TA.AperFunction,ComponentPad*%
%ADD16RoundRect,0.250001X1.099999X1.599999X-1.099999X1.599999X-1.099999X-1.599999X1.099999X-1.599999X0*%
%TD*%
%TA.AperFunction,ComponentPad*%
%ADD17O,2.700000X3.700000*%
%TD*%
%TA.AperFunction,ComponentPad*%
%ADD18C,1.300000*%
%TD*%
%TA.AperFunction,ComponentPad*%
%ADD19C,1.727200*%
%TD*%
%TA.AperFunction,ComponentPad*%
%ADD20R,1.727200X1.727200*%
%TD*%
%TA.AperFunction,ViaPad*%
%ADD21C,0.800000*%
%TD*%
%TA.AperFunction,Conductor*%
%ADD22C,0.300000*%
%TD*%
%TA.AperFunction,Conductor*%
%ADD23C,0.250000*%
%TD*%
G04 APERTURE END LIST*
D10*
%TO.P,R/O-Board_I2C_Interface,SH*%
%TO.N,GND*%
X145370000Y-49015000D03*
X161630000Y-49015000D03*
D11*
%TO.P,R/O-Board_I2C_Interface,8*%
%TO.N,unconnected-(R/O-Board_I2C_Interface1-Pad8)*%
X157052000Y-49905000D03*
%TO.P,R/O-Board_I2C_Interface,7*%
%TO.N,unconnected-(R/O-Board_I2C_Interface1-Pad7)*%
X156036000Y-48125000D03*
%TO.P,R/O-Board_I2C_Interface,6*%
%TO.N,VccI2C*%
X155020000Y-49905000D03*
%TO.P,R/O-Board_I2C_Interface,5*%
%TO.N,unconnected-(R/O-Board_I2C_Interface1-Pad5)*%
X154004000Y-48125000D03*
%TO.P,R/O-Board_I2C_Interface,4*%
%TO.N,unconnected-(R/O-Board_I2C_Interface1-Pad4)*%
X152988000Y-49905000D03*
%TO.P,R/O-Board_I2C_Interface,3*%
%TO.N,A4*%
X151972000Y-48125000D03*
%TO.P,R/O-Board_I2C_Interface,2*%
%TO.N,A5*%
X150956000Y-49905000D03*
D12*
%TO.P,R/O-Board_I2C_Interface,1*%
%TO.N,GND*%
X149940000Y-48125000D03*
%TD*%
D13*
%TO.P,J1,1,Pin_1*%
%TO.N,5V_Ard*%
X148060000Y-75600000D03*
D14*
%TO.P,J1,2,Pin_2*%
%TO.N,VccI2C*%
X150600000Y-75600000D03*
%TO.P,J1,3,Pin_3*%
%TO.N,3V3_Ard*%
X153140000Y-75600000D03*
%TD*%
D15*
%TO.P,R4,1*%
%TO.N,A3*%
X127975000Y-86525000D03*
%TO.P,R4,2*%
%TO.N,GND*%
X127335000Y-86525000D03*
%TD*%
D13*
%TO.P,NTC6-Pin1,1,Pin_1*%
%TO.N,3V3_Ard*%
X149500000Y-90525000D03*
D14*
%TO.P,NTC6-Pin1,2,Pin_2*%
%TO.N,A6*%
X152040000Y-90525000D03*
%TD*%
D15*
%TO.P,R3,1*%
%TO.N,A2*%
X119975000Y-86525000D03*
%TO.P,R3,2*%
%TO.N,GND*%
X119335000Y-86525000D03*
%TD*%
D13*
%TO.P,I2C-Pins,1,VCC*%
%TO.N,VccI2C*%
X156980000Y-63800000D03*
D14*
%TO.P,I2C-Pins,2,SDA*%
%TO.N,A4*%
X154440000Y-63800000D03*
%TO.P,I2C-Pins,3,SCL*%
%TO.N,A5*%
X151900000Y-63800000D03*
%TO.P,I2C-Pins,4,GND*%
%TO.N,GND*%
X149360000Y-63800000D03*
%TD*%
D13*
%TO.P,Freq_PinHeader,1,Pin_1*%
%TO.N,GND*%
X161400000Y-74340000D03*
D14*
%TO.P,Freq_PinHeader,2,Pin_2*%
%TO.N,A5*%
X161400000Y-71800000D03*
%TD*%
D13*
%TO.P,ArdTopPins1,1,Pin_1*%
%TO.N,RX0*%
X136283000Y-49750000D03*
D14*
%TO.P,ArdTopPins1,2,Pin_2*%
%TO.N,TX1*%
X133743000Y-49750000D03*
%TO.P,ArdTopPins1,3,Pin_3*%
%TO.N,RST1*%
X131203000Y-49750000D03*
%TO.P,ArdTopPins1,4,Pin_4*%
%TO.N,GND*%
X128663000Y-49750000D03*
%TO.P,ArdTopPins1,5,Pin_5*%
%TO.N,D2*%
X126123000Y-49750000D03*
%TO.P,ArdTopPins1,6,Pin_6*%
%TO.N,D3*%
X123583000Y-49750000D03*
%TO.P,ArdTopPins1,7,Pin_7*%
%TO.N,D4*%
X121043000Y-49750000D03*
%TO.P,ArdTopPins1,8,Pin_8*%
%TO.N,D5*%
X118503000Y-49750000D03*
%TO.P,ArdTopPins1,9,Pin_9*%
%TO.N,D6*%
X115963000Y-49750000D03*
%TO.P,ArdTopPins1,10,Pin_10*%
%TO.N,D7*%
X113423000Y-49750000D03*
%TO.P,ArdTopPins1,11,Pin_11*%
%TO.N,D8*%
X110883000Y-49750000D03*
%TO.P,ArdTopPins1,12,Pin_12*%
%TO.N,D9*%
X108343000Y-49750000D03*
%TO.P,ArdTopPins1,13,Pin_13*%
%TO.N,D10*%
X105803000Y-49750000D03*
%TO.P,ArdTopPins1,14,Pin_14*%
%TO.N,D11*%
X103263000Y-49750000D03*
%TO.P,ArdTopPins1,15,Pin_15*%
%TO.N,D12*%
X100723000Y-49750000D03*
%TD*%
D15*
%TO.P,R7,1*%
%TO.N,A6*%
X152020000Y-86525000D03*
%TO.P,R7,2*%
%TO.N,GND*%
X151380000Y-86525000D03*
%TD*%
%TO.P,R1,1*%
%TO.N,A0*%
X104000000Y-86525000D03*
%TO.P,R1,2*%
%TO.N,GND*%
X103360000Y-86525000D03*
%TD*%
D16*
%TO.P,NTC6,1,Pin_1*%
%TO.N,3V3_Ard*%
X144000000Y-101725000D03*
D17*
%TO.P,NTC6,2,Pin_2*%
%TO.N,A5*%
X144000000Y-96225000D03*
%TD*%
D15*
%TO.P,R5,1*%
%TO.N,A4*%
X135975000Y-86525000D03*
%TO.P,R5,2*%
%TO.N,GND*%
X135335000Y-86525000D03*
%TD*%
D18*
%TO.P,J2,1*%
%TO.N,A5*%
X170000000Y-72500000D03*
%TO.P,J2,S1*%
%TO.N,GND*%
X167460000Y-69960000D03*
%TO.P,J2,S2*%
X167460000Y-75040000D03*
%TO.P,J2,S3*%
X172540000Y-75040000D03*
%TO.P,J2,S4*%
X172540000Y-69960000D03*
%TD*%
D13*
%TO.P,NTC7-Pin1,1,Pin_1*%
%TO.N,3V3_Ard*%
X157460000Y-90525000D03*
D14*
%TO.P,NTC7-Pin1,2,Pin_2*%
%TO.N,A7*%
X160000000Y-90525000D03*
%TD*%
D19*
%TO.P,XA1,3V3,3.3V*%
%TO.N,3V3_Ard*%
X103230000Y-71948000D03*
%TO.P,XA1,5V,5V*%
%TO.N,5V_Ard*%
X128630000Y-71948000D03*
%TO.P,XA1,A0,A0*%
%TO.N,A0*%
X108310000Y-71948000D03*
%TO.P,XA1,A1,A1*%
%TO.N,A1*%
X110850000Y-71948000D03*
%TO.P,XA1,A2,A2*%
%TO.N,A2*%
X113390000Y-71948000D03*
%TO.P,XA1,A3,A3*%
%TO.N,A3*%
X115930000Y-71948000D03*
%TO.P,XA1,A4,A4_SDA*%
%TO.N,A4*%
X118470000Y-71948000D03*
%TO.P,XA1,A5,A5_SCL*%
%TO.N,A5*%
X121010000Y-71948000D03*
%TO.P,XA1,A6,A6*%
%TO.N,A6*%
X123550000Y-71948000D03*
%TO.P,XA1,A7,A7*%
%TO.N,A7*%
X126090000Y-71948000D03*
%TO.P,XA1,AREF,AREF*%
%TO.N,AREF*%
X105770000Y-71948000D03*
%TO.P,XA1,D0,D0_RX0*%
%TO.N,TX1*%
X133710000Y-56708000D03*
D20*
%TO.P,XA1,D1,D1_TX0*%
%TO.N,RX0*%
X136250000Y-56708000D03*
D19*
%TO.P,XA1,D2,D2_INT0*%
%TO.N,D2*%
X126090000Y-56708000D03*
%TO.P,XA1,D3,D3_INT1*%
%TO.N,D3*%
X123550000Y-56708000D03*
%TO.P,XA1,D4,D4*%
%TO.N,D4*%
X121010000Y-56708000D03*
%TO.P,XA1,D5,D5*%
%TO.N,D5*%
X118470000Y-56708000D03*
%TO.P,XA1,D6,D6*%
%TO.N,D6*%
X115930000Y-56708000D03*
%TO.P,XA1,D7,D7*%
%TO.N,D7*%
X113390000Y-56708000D03*
%TO.P,XA1,D8,D8*%
%TO.N,D8*%
X110850000Y-56708000D03*
%TO.P,XA1,D9,D9*%
%TO.N,D9*%
X108310000Y-56708000D03*
%TO.P,XA1,D10,D10_CS*%
%TO.N,D10*%
X105770000Y-56708000D03*
%TO.P,XA1,D11,D11_MOSI*%
%TO.N,D11*%
X103230000Y-56708000D03*
%TO.P,XA1,D12,D12_MISO*%
%TO.N,D12*%
X100690000Y-56708000D03*
%TO.P,XA1,D13,D13_SCK*%
%TO.N,D13*%
X100690000Y-71948000D03*
%TO.P,XA1,GND1,GND*%
%TO.N,GND*%
X128630000Y-56708000D03*
%TO.P,XA1,GND2,GND*%
X133710000Y-71948000D03*
%TO.P,XA1,RST1,RESET*%
%TO.N,RST1*%
X131170000Y-56708000D03*
%TO.P,XA1,RST2,RESET*%
%TO.N,RST2*%
X131170000Y-71948000D03*
%TO.P,XA1,VIN,VIN*%
%TO.N,A4*%
X136250000Y-71948000D03*
%TD*%
D16*
%TO.P,NTC1,1,Pin_1*%
%TO.N,3V3_Ard*%
X104000000Y-101750000D03*
D17*
%TO.P,NTC1,2,Pin_2*%
%TO.N,A0*%
X104000000Y-96250000D03*
%TD*%
D13*
%TO.P,NTC3-Pin1,1,Pin_1*%
%TO.N,3V3_Ard*%
X125460000Y-90525000D03*
D14*
%TO.P,NTC3-Pin1,2,Pin_2*%
%TO.N,A3*%
X128000000Y-90525000D03*
%TD*%
D16*
%TO.P,NTC7,1,Pin_1*%
%TO.N,3V3_Ard*%
X152000000Y-101750000D03*
D17*
%TO.P,NTC7,2,Pin_2*%
%TO.N,A6*%
X152000000Y-96250000D03*
%TD*%
D15*
%TO.P,R2,1*%
%TO.N,A1*%
X112000000Y-86525000D03*
%TO.P,R2,2*%
%TO.N,GND*%
X111360000Y-86525000D03*
%TD*%
D16*
%TO.P,NTC5,1,Pin_1*%
%TO.N,3V3_Ard*%
X136000000Y-101725000D03*
D17*
%TO.P,NTC5,2,Pin_2*%
%TO.N,A4*%
X136000000Y-96225000D03*
%TD*%
D16*
%TO.P,NTC3,1,Pin_1*%
%TO.N,3V3_Ard*%
X120000000Y-101750000D03*
D17*
%TO.P,NTC3,2,Pin_2*%
%TO.N,A2*%
X120000000Y-96250000D03*
%TD*%
D16*
%TO.P,NTC4,1,Pin_1*%
%TO.N,3V3_Ard*%
X128000000Y-101725000D03*
D17*
%TO.P,NTC4,2,Pin_2*%
%TO.N,A3*%
X128000000Y-96225000D03*
%TD*%
D16*
%TO.P,NTC8,1,Pin_1*%
%TO.N,3V3_Ard*%
X160000000Y-101725000D03*
D17*
%TO.P,NTC8,2,Pin_2*%
%TO.N,A7*%
X160000000Y-96225000D03*
%TD*%
D16*
%TO.P,NTC2,1,Pin_1*%
%TO.N,3V3_Ard*%
X112000000Y-101725000D03*
D17*
%TO.P,NTC2,2,Pin_2*%
%TO.N,A1*%
X112000000Y-96225000D03*
%TD*%
D15*
%TO.P,R6,1*%
%TO.N,A5*%
X144075000Y-86525000D03*
%TO.P,R6,2*%
%TO.N,GND*%
X143435000Y-86525000D03*
%TD*%
D13*
%TO.P,NTC5-Pin1,1,Pin_1*%
%TO.N,3V3_Ard*%
X141500000Y-90525000D03*
D14*
%TO.P,NTC5-Pin1,2,Pin_2*%
%TO.N,A5*%
X144040000Y-90525000D03*
%TD*%
D13*
%TO.P,NTC0-Pin1,1,Pin_1*%
%TO.N,3V3_Ard*%
X101460000Y-90525000D03*
D14*
%TO.P,NTC0-Pin1,2,Pin_2*%
%TO.N,A0*%
X104000000Y-90525000D03*
%TD*%
D15*
%TO.P,R8,1*%
%TO.N,A7*%
X159975000Y-86525000D03*
%TO.P,R8,2*%
%TO.N,GND*%
X159335000Y-86525000D03*
%TD*%
D13*
%TO.P,NTC4-Pin1,1,Pin_1*%
%TO.N,3V3_Ard*%
X133460000Y-90525000D03*
D14*
%TO.P,NTC4-Pin1,2,Pin_2*%
%TO.N,A4*%
X136000000Y-90525000D03*
%TD*%
D13*
%TO.P,NTC1-Pin1,1,Pin_1*%
%TO.N,3V3_Ard*%
X109460000Y-90525000D03*
D14*
%TO.P,NTC1-Pin1,2,Pin_2*%
%TO.N,A1*%
X112000000Y-90525000D03*
%TD*%
D13*
%TO.P,ArdNanoBotPins1,1,Pin_1*%
%TO.N,D13*%
X100670000Y-79000000D03*
D14*
%TO.P,ArdNanoBotPins1,2,Pin_2*%
%TO.N,3V3_Ard*%
X103210000Y-79000000D03*
%TO.P,ArdNanoBotPins1,3,Pin_3*%
%TO.N,AREF*%
X105750000Y-79000000D03*
%TO.P,ArdNanoBotPins1,4,Pin_4*%
%TO.N,A0*%
X108290000Y-79000000D03*
%TO.P,ArdNanoBotPins1,5,Pin_5*%
%TO.N,A1*%
X110830000Y-79000000D03*
%TO.P,ArdNanoBotPins1,6,Pin_6*%
%TO.N,A2*%
X113370000Y-79000000D03*
%TO.P,ArdNanoBotPins1,7,Pin_7*%
%TO.N,A3*%
X115910000Y-79000000D03*
%TO.P,ArdNanoBotPins1,8,Pin_8*%
%TO.N,A4*%
X118450000Y-79000000D03*
%TO.P,ArdNanoBotPins1,9,Pin_9*%
%TO.N,A5*%
X120990000Y-79000000D03*
%TO.P,ArdNanoBotPins1,10,Pin_10*%
%TO.N,A6*%
X123530000Y-79000000D03*
%TO.P,ArdNanoBotPins1,11,Pin_11*%
%TO.N,A7*%
X126070000Y-79000000D03*
%TO.P,ArdNanoBotPins1,12,Pin_12*%
%TO.N,5V_Ard*%
X128610000Y-79000000D03*
%TO.P,ArdNanoBotPins1,13,Pin_13*%
%TO.N,RST2*%
X131150000Y-79000000D03*
%TO.P,ArdNanoBotPins1,14,Pin_14*%
%TO.N,GND*%
X133690000Y-79000000D03*
%TO.P,ArdNanoBotPins1,15,Pin_15*%
%TO.N,A4*%
X136230000Y-79000000D03*
%TD*%
D13*
%TO.P,NTC2-Pin1,1,Pin_1*%
%TO.N,3V3_Ard*%
X117460000Y-90525000D03*
D14*
%TO.P,NTC2-Pin1,2,Pin_2*%
%TO.N,A2*%
X120000000Y-90525000D03*
%TD*%
D21*
%TO.N,3V3_Ard*%
X148900000Y-84700000D03*
X148900000Y-81000000D03*
%TO.N,A5*%
X142400000Y-80000000D03*
X142400000Y-84700000D03*
%TO.N,GND*%
X102000000Y-86500000D03*
X126000000Y-86500000D03*
X158000000Y-86500000D03*
X150500000Y-86500000D03*
X110000000Y-86525000D03*
X142000000Y-86500000D03*
X118000000Y-86500000D03*
X134000000Y-86500000D03*
%TO.N,A4*%
X153800000Y-68300000D03*
X131300000Y-85600000D03*
%TO.N,VccI2C*%
X157000000Y-73000000D03*
%TD*%
D22*
%TO.N,A4*%
X153800000Y-68300000D02*
X154440000Y-67660000D01*
X154440000Y-55310000D02*
X158201511Y-51548489D01*
X158201511Y-51548489D02*
X158201511Y-48806277D01*
X158201511Y-48806277D02*
X156470723Y-47075489D01*
X154440000Y-67660000D02*
X154440000Y-55310000D01*
X156470723Y-47075489D02*
X153021511Y-47075489D01*
X153021511Y-47075489D02*
X151972000Y-48125000D01*
%TO.N,A5*%
X151849511Y-69149511D02*
X151900000Y-69099022D01*
X150956000Y-60956000D02*
X150956000Y-49905000D01*
X151900000Y-69099022D02*
X151900000Y-61900000D01*
X151900000Y-61900000D02*
X150956000Y-60956000D01*
%TO.N,D13*%
X100690000Y-78980000D02*
X100670000Y-79000000D01*
X100690000Y-77978000D02*
X100690000Y-78980000D01*
X100690000Y-71948000D02*
X100690000Y-77978000D01*
%TO.N,3V3_Ard*%
X141500000Y-92100000D02*
X141500000Y-90525000D01*
X107950000Y-101750000D02*
X104000000Y-101750000D01*
X117460000Y-91940000D02*
X117460000Y-90525000D01*
X147950000Y-93850000D02*
X149500000Y-92300000D01*
X98400000Y-91000000D02*
X98400000Y-96150000D01*
X140025000Y-101725000D02*
X140025000Y-93575000D01*
X140025000Y-93575000D02*
X141500000Y-92100000D01*
X124075000Y-101725000D02*
X120025000Y-101725000D01*
X132075000Y-101725000D02*
X128000000Y-101725000D01*
X115950000Y-101750000D02*
X107950000Y-101750000D01*
X128000000Y-101725000D02*
X124075000Y-101725000D01*
X115950000Y-93450000D02*
X117460000Y-91940000D01*
X120000000Y-101750000D02*
X115950000Y-101750000D01*
X133460000Y-92140000D02*
X133460000Y-90525000D01*
X107950000Y-101750000D02*
X107950000Y-93250000D01*
X103208000Y-71970000D02*
X103230000Y-71948000D01*
X107950000Y-93250000D02*
X109460000Y-91740000D01*
X125460000Y-92040000D02*
X124075000Y-93425000D01*
X153140000Y-75600000D02*
X153140000Y-78560000D01*
X101460000Y-90525000D02*
X99575000Y-90525000D01*
X115950000Y-101750000D02*
X115950000Y-93450000D01*
X152025000Y-101725000D02*
X152000000Y-101750000D01*
X155975000Y-93925000D02*
X157460000Y-92440000D01*
X144000000Y-101725000D02*
X140025000Y-101725000D01*
X99575000Y-90525000D02*
X98875000Y-90525000D01*
X149500000Y-85300000D02*
X149500000Y-90525000D01*
X140025000Y-101725000D02*
X136000000Y-101725000D01*
X132075000Y-101725000D02*
X132075000Y-93525000D01*
X160000000Y-101725000D02*
X155975000Y-101725000D01*
X125460000Y-90525000D02*
X125460000Y-92040000D01*
X99125000Y-90525000D02*
X98875000Y-90525000D01*
X155975000Y-101725000D02*
X152025000Y-101725000D01*
X136000000Y-101725000D02*
X132075000Y-101725000D01*
X132075000Y-93525000D02*
X133460000Y-92140000D01*
X98875000Y-90525000D02*
X98400000Y-91000000D01*
X153140000Y-78560000D02*
X150700000Y-81000000D01*
X157460000Y-92440000D02*
X157460000Y-90525000D01*
X147950000Y-101750000D02*
X144025000Y-101750000D01*
X99125000Y-83085000D02*
X99125000Y-90525000D01*
X150700000Y-81000000D02*
X148900000Y-81000000D01*
X98400000Y-96150000D02*
X104000000Y-101750000D01*
X155975000Y-101725000D02*
X155975000Y-93925000D01*
X103210000Y-79000000D02*
X99125000Y-83085000D01*
X103208000Y-77542000D02*
X103208000Y-71970000D01*
X144025000Y-101750000D02*
X144000000Y-101725000D01*
X148900000Y-84700000D02*
X149500000Y-85300000D01*
X147950000Y-101750000D02*
X147950000Y-93850000D01*
X120025000Y-101725000D02*
X120000000Y-101750000D01*
X152000000Y-101750000D02*
X147950000Y-101750000D01*
X124075000Y-93425000D02*
X124075000Y-101725000D01*
X103210000Y-77544000D02*
X103208000Y-77542000D01*
X109460000Y-91740000D02*
X109460000Y-90525000D01*
X149500000Y-92300000D02*
X149500000Y-90525000D01*
X103210000Y-77544000D02*
X103210000Y-79000000D01*
%TO.N,AREF*%
X105770000Y-71948000D02*
X105770000Y-77480000D01*
X105750000Y-79000000D02*
X105750000Y-77500000D01*
%TO.N,A0*%
X104580000Y-85945000D02*
X107805000Y-85945000D01*
X104000000Y-86525000D02*
X104000000Y-90525000D01*
X108290000Y-77464000D02*
X108290000Y-79000000D01*
X108290000Y-85460000D02*
X108290000Y-79000000D01*
X108288000Y-77462000D02*
X108288000Y-71970000D01*
X104000000Y-90525000D02*
X104000000Y-96250000D01*
X108288000Y-77462000D02*
X108290000Y-77464000D01*
X104000000Y-86525000D02*
X104580000Y-85945000D01*
X108288000Y-71970000D02*
X108310000Y-71948000D01*
X107805000Y-85945000D02*
X108290000Y-85460000D01*
%TO.N,A1*%
X110830000Y-77670000D02*
X110850000Y-77650000D01*
X112000000Y-86525000D02*
X112000000Y-90525000D01*
X110830000Y-79000000D02*
X110830000Y-77670000D01*
X111000000Y-85369994D02*
X111000000Y-79170000D01*
X110850000Y-71948000D02*
X110850000Y-77650000D01*
X112000000Y-86369994D02*
X111000000Y-85369994D01*
X111000000Y-79170000D02*
X110830000Y-79000000D01*
X112000000Y-90525000D02*
X112000000Y-96225000D01*
X112000000Y-86525000D02*
X112000000Y-86369994D01*
%TO.N,A2*%
X113370000Y-77370000D02*
X113370000Y-79000000D01*
X120000000Y-90525000D02*
X120000000Y-96250000D01*
X119405495Y-85800489D02*
X119975000Y-86369994D01*
X113370000Y-79000000D02*
X113370000Y-81620000D01*
X113368000Y-71970000D02*
X113390000Y-71948000D01*
X113370000Y-81620000D02*
X117550489Y-85800489D01*
X120000000Y-86550000D02*
X120000000Y-90525000D01*
X119975000Y-86369994D02*
X119975000Y-86525000D01*
X113368000Y-77368000D02*
X113370000Y-77370000D01*
X113368000Y-77368000D02*
X113368000Y-71970000D01*
X119975000Y-86525000D02*
X120000000Y-86550000D01*
X117550489Y-85800489D02*
X119405495Y-85800489D01*
%TO.N,A3*%
X127023808Y-85418802D02*
X127975000Y-86369994D01*
X115910000Y-79000000D02*
X115910000Y-81382151D01*
X127975000Y-86369994D02*
X127975000Y-86525000D01*
X119627849Y-85100000D02*
X126700000Y-85100000D01*
X115910000Y-71968000D02*
X115930000Y-71948000D01*
X115910000Y-81382151D02*
X119627849Y-85100000D01*
X126700000Y-85100000D02*
X127018802Y-85418802D01*
X128000000Y-86550000D02*
X128000000Y-90525000D01*
X128000000Y-90525000D02*
X128000000Y-96225000D01*
X115910000Y-79000000D02*
X115910000Y-71968000D01*
X127018802Y-85418802D02*
X127023808Y-85418802D01*
X127975000Y-86525000D02*
X128000000Y-86550000D01*
%TO.N,A5*%
X120990000Y-82190000D02*
X120990000Y-79000000D01*
X144075000Y-86525000D02*
X144040000Y-86560000D01*
X122450480Y-83650480D02*
X120990000Y-82190000D01*
X158749511Y-69149511D02*
X151849511Y-69149511D01*
X144040000Y-96185000D02*
X144000000Y-96225000D01*
X161400000Y-71800000D02*
X158749511Y-69149511D01*
X144040000Y-86560000D02*
X144040000Y-90525000D01*
X169300000Y-71800000D02*
X170000000Y-72500000D01*
X127092606Y-83650480D02*
X122450480Y-83650480D01*
X144040000Y-90525000D02*
X144040000Y-96185000D01*
X151849511Y-69149511D02*
X147250489Y-69149511D01*
X128142126Y-84700000D02*
X127092606Y-83650480D01*
X147250489Y-69149511D02*
X142400000Y-74000000D01*
X142400000Y-74000000D02*
X142400000Y-80000000D01*
X121010000Y-71948000D02*
X121010000Y-78980000D01*
X144114520Y-86525000D02*
X144114520Y-86075498D01*
X121010000Y-78980000D02*
X120990000Y-79000000D01*
X142739022Y-84700000D02*
X128142126Y-84700000D01*
X144114520Y-86075498D02*
X142739022Y-84700000D01*
X161400000Y-71800000D02*
X169300000Y-71800000D01*
%TO.N,A6*%
X123530000Y-79000000D02*
X123530000Y-81930000D01*
X123528000Y-71970000D02*
X123528000Y-77778000D01*
X123530000Y-81930000D02*
X124650960Y-83050960D01*
X123550000Y-71948000D02*
X123528000Y-71970000D01*
X152040000Y-86545000D02*
X152040000Y-90525000D01*
X124650960Y-83050960D02*
X149550960Y-83050960D01*
X149550960Y-83050960D02*
X152059520Y-85559520D01*
X152040000Y-90525000D02*
X152040000Y-96210000D01*
X123528000Y-77778000D02*
X123530000Y-77780000D01*
X152059520Y-85559520D02*
X152059520Y-86525000D01*
X152040000Y-96210000D02*
X152000000Y-96250000D01*
X123530000Y-77780000D02*
X123530000Y-79000000D01*
%TO.N,A7*%
X126070000Y-79000000D02*
X126070000Y-77180000D01*
X126090000Y-78980000D02*
X126070000Y-79000000D01*
X126951440Y-82451440D02*
X156268578Y-82451440D01*
X126070000Y-77180000D02*
X126090000Y-77160000D01*
X126090000Y-77840000D02*
X126090000Y-78980000D01*
X126070000Y-79000000D02*
X126070000Y-81570000D01*
X160000000Y-90525000D02*
X160000000Y-96225000D01*
X159975000Y-86369994D02*
X159975000Y-86525000D01*
X126068000Y-76772000D02*
X126068000Y-78432000D01*
X159975000Y-86525000D02*
X160000000Y-86550000D01*
X126090000Y-77160000D02*
X126090000Y-77840000D01*
X160014520Y-86197382D02*
X160014520Y-86525000D01*
X126090000Y-77840000D02*
X126090000Y-77978000D01*
X126090000Y-71948000D02*
X126090000Y-77160000D01*
X126070000Y-81570000D02*
X126951440Y-82451440D01*
X126090000Y-77978000D02*
X126068000Y-78000000D01*
X156268578Y-82451440D02*
X160014520Y-86197382D01*
X160000000Y-86550000D02*
X160000000Y-90525000D01*
%TO.N,5V_Ard*%
X148060000Y-78540000D02*
X144800000Y-81800000D01*
X131410000Y-81800000D02*
X128610000Y-79000000D01*
X128630000Y-71948000D02*
X128630000Y-77630000D01*
X128610000Y-77650000D02*
X128610000Y-79000000D01*
X144800000Y-81800000D02*
X131410000Y-81800000D01*
X148060000Y-75600000D02*
X148060000Y-78540000D01*
%TO.N,GND*%
X128663000Y-49750000D02*
X128663000Y-56675000D01*
D23*
X135335000Y-86525000D02*
X134025000Y-86525000D01*
D22*
X133690000Y-71968000D02*
X133710000Y-71948000D01*
D23*
X127310000Y-86500000D02*
X127335000Y-86525000D01*
X150500000Y-86500000D02*
X151355000Y-86500000D01*
X159335000Y-86525000D02*
X158025000Y-86525000D01*
X143435000Y-86525000D02*
X142025000Y-86525000D01*
X111360000Y-86525000D02*
X110000000Y-86525000D01*
X119335000Y-86525000D02*
X118025000Y-86525000D01*
X151355000Y-86500000D02*
X151380000Y-86525000D01*
X158025000Y-86525000D02*
X158000000Y-86500000D01*
X102025000Y-86525000D02*
X102000000Y-86500000D01*
X142025000Y-86525000D02*
X142000000Y-86500000D01*
X126000000Y-86500000D02*
X127310000Y-86500000D01*
D22*
X128663000Y-56675000D02*
X128630000Y-56708000D01*
D23*
X118025000Y-86525000D02*
X118000000Y-86500000D01*
X103360000Y-86525000D02*
X102025000Y-86525000D01*
D22*
X133690000Y-79000000D02*
X133690000Y-71968000D01*
D23*
X134025000Y-86525000D02*
X134000000Y-86500000D01*
D22*
%TO.N,TX1*%
X133743000Y-50750000D02*
X133743000Y-49750000D01*
X133710000Y-56708000D02*
X133710000Y-50783000D01*
X133710000Y-50783000D02*
X133743000Y-50750000D01*
%TO.N,RX0*%
X136250000Y-56708000D02*
X136283000Y-56675000D01*
X136283000Y-56675000D02*
X136283000Y-49750000D01*
%TO.N,RST1*%
X131203000Y-56675000D02*
X131203000Y-49750000D01*
X131170000Y-56708000D02*
X131203000Y-56675000D01*
%TO.N,D2*%
X126123000Y-56675000D02*
X126123000Y-49750000D01*
X126090000Y-56708000D02*
X126123000Y-56675000D01*
%TO.N,D3*%
X123550000Y-56708000D02*
X123550000Y-51050000D01*
X123550000Y-51050000D02*
X123583000Y-51017000D01*
X123583000Y-51017000D02*
X123583000Y-49750000D01*
%TO.N,D4*%
X121043000Y-56675000D02*
X121043000Y-49750000D01*
X121010000Y-56708000D02*
X121043000Y-56675000D01*
%TO.N,D5*%
X118470000Y-50783000D02*
X118470000Y-49783000D01*
X118470000Y-49783000D02*
X118503000Y-49750000D01*
X118470000Y-56708000D02*
X118470000Y-50783000D01*
%TO.N,D6*%
X115963000Y-56675000D02*
X115963000Y-49750000D01*
X115930000Y-56708000D02*
X115963000Y-56675000D01*
%TO.N,D7*%
X113390000Y-51110000D02*
X113423000Y-51077000D01*
X113390000Y-56708000D02*
X113390000Y-51110000D01*
X113423000Y-51077000D02*
X113423000Y-49750000D01*
%TO.N,D8*%
X110883000Y-56675000D02*
X110883000Y-49750000D01*
X110850000Y-56708000D02*
X110883000Y-56675000D01*
%TO.N,D9*%
X108343000Y-49750000D02*
X108343000Y-50750000D01*
X108310000Y-56708000D02*
X108310000Y-50783000D01*
%TO.N,D10*%
X105803000Y-56675000D02*
X105803000Y-49750000D01*
X105770000Y-56708000D02*
X105803000Y-56675000D01*
%TO.N,D11*%
X103263000Y-49750000D02*
X103263000Y-50750000D01*
X103230000Y-56708000D02*
X103230000Y-50783000D01*
%TO.N,D12*%
X100723000Y-56675000D02*
X100723000Y-49750000D01*
X100690000Y-56708000D02*
X100723000Y-56675000D01*
%TO.N,A4*%
X136000000Y-90525000D02*
X136000000Y-96225000D01*
X118450000Y-82450000D02*
X118450000Y-79000000D01*
X118448000Y-77698000D02*
X118450000Y-77700000D01*
X120500480Y-84500480D02*
X118450000Y-82450000D01*
X118448000Y-71970000D02*
X118470000Y-71948000D01*
X136250000Y-78980000D02*
X136230000Y-79000000D01*
X127024046Y-84500480D02*
X120500480Y-84500480D01*
X128123566Y-85600000D02*
X127024046Y-84500480D01*
X136000000Y-86550000D02*
X136000000Y-90525000D01*
X135975000Y-86525000D02*
X136000000Y-86550000D01*
X131300000Y-85600000D02*
X135205006Y-85600000D01*
X136250000Y-71948000D02*
X136250000Y-78980000D01*
X131300000Y-85600000D02*
X128123566Y-85600000D01*
X135205006Y-85600000D02*
X135975000Y-86369994D01*
X135975000Y-86369994D02*
X135975000Y-86525000D01*
X118448000Y-77698000D02*
X118448000Y-71970000D01*
X118450000Y-77700000D02*
X118450000Y-79000000D01*
%TO.N,RST2*%
X131170000Y-71948000D02*
X131170000Y-78980000D01*
%TO.N,VccI2C*%
X152800000Y-73400000D02*
X156600000Y-73400000D01*
X156600000Y-73400000D02*
X157000000Y-73000000D01*
X150600000Y-75600000D02*
X152800000Y-73400000D01*
%TD*%
M02*
