M48
; DRILL file {KiCad (6.0.1-0)} date 2022 November 28, Monday 10:38:07
; FORMAT={-:-/ absolute / inch / decimal}
; #@! TF.CreationDate,2022-11-28T10:38:07+01:00
; #@! TF.GenerationSoftware,Kicad,Pcbnew,(6.0.1-0)
; #@! TF.FileFunction,Plated,1,2,PTH
FMAT,2
INCH
; #@! TA.AperFunction,Plated,PTH,ViaDrill
T1C0.0157
; #@! TA.AperFunction,Plated,PTH,ComponentDrill
T2C0.0315
; #@! TA.AperFunction,Plated,PTH,ComponentDrill
T3C0.0350
; #@! TA.AperFunction,Plated,PTH,ComponentDrill
T4C0.0394
; #@! TA.AperFunction,Plated,PTH,ComponentDrill
T5C0.0400
; #@! TA.AperFunction,Plated,PTH,ComponentDrill
T6C0.0618
; #@! TA.AperFunction,Plated,PTH,ComponentDrill
T7C0.0709
%
G90
G05
T1
X4.0295Y-3.4508
X4.3445Y-3.4508
X4.6594Y-3.4508
X4.6633Y-2.9824
X4.9744Y-3.4508
X5.0642Y-2.9437
X5.2894Y-3.4508
X5.435Y-3.3858
X5.6043Y-3.4528
X5.7549Y-3.3848
X5.9193Y-3.4508
X6.2343Y-3.4508
T2
X6.5815Y-3.1307
X6.5815Y-3.3307
X6.6815Y-3.2307
X6.7815Y-3.1307
X6.7815Y-3.3307
T3
X5.9031Y-1.8953
X5.9431Y-1.9654
X5.9831Y-1.8953
X6.0231Y-1.9654
X6.0631Y-1.8953
X6.1031Y-1.9654
X6.1431Y-1.8953
X6.1831Y-1.9654
T4
X3.9634Y-3.1102
X3.9655Y-1.9587
X3.9945Y-3.564
X4.0634Y-3.1102
X4.0655Y-1.9587
X4.0945Y-3.564
X4.1634Y-3.1102
X4.1655Y-1.9587
X4.2634Y-3.1102
X4.2655Y-1.9587
X4.3094Y-3.564
X4.3634Y-3.1102
X4.3655Y-1.9587
X4.4094Y-3.564
X4.4634Y-3.1102
X4.4655Y-1.9587
X4.5634Y-3.1102
X4.5655Y-1.9587
X4.6244Y-3.564
X4.6634Y-3.1102
X4.6655Y-1.9587
X4.7244Y-3.564
X4.7634Y-3.1102
X4.7655Y-1.9587
X4.8634Y-3.1102
X4.8655Y-1.9587
X4.9394Y-3.564
X4.9634Y-3.1102
X4.9655Y-1.9587
X5.0394Y-3.564
X5.0634Y-3.1102
X5.0655Y-1.9587
X5.1634Y-3.1102
X5.1655Y-1.9587
X5.2543Y-3.564
X5.2634Y-3.1102
X5.2655Y-1.9587
X5.3543Y-3.564
X5.3634Y-3.1102
X5.3655Y-1.9587
X5.5709Y-3.564
X5.6709Y-3.564
X5.8593Y-2.912
X5.8593Y-3.012
X5.8803Y-2.4646
X5.8858Y-3.564
X5.9593Y-2.912
X5.9593Y-3.012
X5.9803Y-2.4646
X5.9858Y-3.564
X6.0593Y-2.912
X6.0593Y-3.012
X6.0803Y-2.4646
X6.1593Y-2.912
X6.1593Y-3.012
X6.1803Y-2.4646
X6.1992Y-3.564
X6.2593Y-2.912
X6.2593Y-3.012
X6.2992Y-3.564
X6.6811Y-2.7465
X6.6811Y-2.8465
T5
X3.9642Y-2.2326
X3.9642Y-2.8326
X4.0642Y-2.2326
X4.0642Y-2.8326
X4.1642Y-2.2326
X4.1642Y-2.8326
X4.2642Y-2.2326
X4.2642Y-2.8326
X4.3642Y-2.2326
X4.3642Y-2.8326
X4.4642Y-2.2326
X4.4642Y-2.8326
X4.5642Y-2.2326
X4.5642Y-2.8326
X4.6642Y-2.2326
X4.6642Y-2.8326
X4.7642Y-2.2326
X4.7642Y-2.8326
X4.8642Y-2.2326
X4.8642Y-2.8326
X4.9642Y-2.2326
X4.9642Y-2.8326
X5.0642Y-2.2326
X5.0642Y-2.8326
X5.1642Y-2.2326
X5.1642Y-2.8326
X5.2642Y-2.2326
X5.2642Y-2.8326
X5.3642Y-2.2326
X5.3642Y-2.8326
T6
X5.7232Y-1.9303
X6.3634Y-1.9303
T7
X4.0945Y-3.7894
X4.0945Y-4.0059
X4.4094Y-3.7884
X4.4094Y-4.0049
X4.7244Y-3.7894
X4.7244Y-4.0059
X5.0394Y-3.7884
X5.0394Y-4.0049
X5.3543Y-3.7884
X5.3543Y-4.0049
X5.6693Y-3.7884
X5.6693Y-4.0049
X5.9843Y-3.7894
X5.9843Y-4.0059
X6.2992Y-3.7884
X6.2992Y-4.0049
T0
M30
